<svg xmlns="http://www.w3.org/2000/svg" viewBox="0 0 1280 720" width="1280" height="720"><rect x="0" y="0" width="1280" height="720" fill="#efe7d3"/><rect x="-640" y="-360" width="1280" height="720" transform="matrix(1 0 0 1 640 360)" fill="#efe7d3"/><circle cx="0" cy="0" r="2.846" transform="matrix(1 0 0 1 32.78 37.073)" fill="#e6dac1" opacity="0.267"/><circle cx="0" cy="0" r="2.464" transform="matrix(1 0 0 1 142.036 53.449)" fill="#d5c8a7" opacity="0.242"/><circle cx="0" cy="0" r="2.353" transform="matrix(1 0 0 1 224.07 44.561)" fill="#d4c6a4" opacity="0.257"/><circle cx="0" cy="0" r="1.32" transform="matrix(1 0 0 1 312.865 43.186)" fill="#d8cbab" opacity="0.351"/><circle cx="0" cy="0" r="2.627" transform="matrix(1 0 0 1 388.74 41.883)" fill="#e4d8bd" opacity="0.389"/><circle cx="0" cy="0" r="2.301" transform="matrix(1 0 0 1 473.931 49.497)" fill="#e6dbc2" opacity="0.308"/><circle cx="0" cy="0" r="1.736" transform="matrix(1 0 0 1 564.241 26.87)" fill="#dfd0b0" opacity="0.288"/><circle cx="0" cy="0" r="2.646" transform="matrix(1 0 0 1 653.467 49.716)" fill="#e6dbc2" opacity="0.383"/><circle cx="0" cy="0" r="2.718" transform="matrix(1 0 0 1 748.239 36.032)" fill="#d8cbac" opacity="0.401"/><circle cx="0" cy="0" r="2.718" transform="matrix(1 0 0 1 818.196 48.961)" fill="#e8ddc6" opacity="0.315"/><circle cx="0" cy="0" r="2.387" transform="matrix(1 0 0 1 923.718 39.06)" fill="#d9ccae" opacity="0.253"/><circle cx="0" cy="0" r="1.532" transform="matrix(1 0 0 1 1016.894 25.399)" fill="#d7caab" opacity="0.302"/><circle cx="0" cy="0" r="2.842" transform="matrix(1 0 0 1 1086.609 54.874)" fill="#e4d8bd" opacity="0.292"/><circle cx="0" cy="0" r="1.43" transform="matrix(1 0 0 1 1186.015 40.821)" fill="#d4c6a3" opacity="0.432"/><circle cx="0" cy="0" r="1.892" transform="matrix(1 0 0 1 1285.087 55.404)" fill="#d2c3a0" opacity="0.387"/><circle cx="0" cy="0" r="2.868" transform="matrix(1 0 0 1 40.632 124.188)" fill="#e3d6ba" opacity="0.361"/><circle cx="0" cy="0" r="2.898" transform="matrix(1 0 0 1 117.294 140.446)" fill="#d4c6a4" opacity="0.349"/><circle cx="0" cy="0" r="2.202" transform="matrix(1 0 0 1 218.481 126.813)" fill="#d2c4a0" opacity="0.384"/><circle cx="0" cy="0" r="1.611" transform="matrix(1 0 0 1 295.462 130.776)" fill="#e7dcc3" opacity="0.326"/><circle cx="0" cy="0" r="1.414" transform="matrix(1 0 0 1 401.755 132.112)" fill="#e2d4b7" opacity="0.364"/><circle cx="0" cy="0" r="2.784" transform="matrix(1 0 0 1 494.339 138.908)" fill="#e5d9bf" opacity="0.246"/><circle cx="0" cy="0" r="1.962" transform="matrix(1 0 0 1 570.312 126.313)" fill="#ded3b9" opacity="0.349"/><circle cx="0" cy="0" r="2.393" transform="matrix(1 0 0 1 655.736 119.874)" fill="#e0d2b3" opacity="0.418"/><circle cx="0" cy="0" r="1.584" transform="matrix(1 0 0 1 753.645 131.967)" fill="#d7caab" opacity="0.393"/><circle cx="0" cy="0" r="1.986" transform="matrix(1 0 0 1 816.822 143.416)" fill="#d5c7a6" opacity="0.305"/><circle cx="0" cy="0" r="1.805" transform="matrix(1 0 0 1 932.675 120.821)" fill="#d5c8a7" opacity="0.329"/><circle cx="0" cy="0" r="2.412" transform="matrix(1 0 0 1 1021.411 139.267)" fill="#dfd1b2" opacity="0.286"/><circle cx="0" cy="0" r="2.885" transform="matrix(1 0 0 1 1090.614 128.97)" fill="#d4c6a4" opacity="0.254"/><circle cx="0" cy="0" r="1.77" transform="matrix(1 0 0 1 1178.614 128.206)" fill="#e2d5b7" opacity="0.415"/><circle cx="0" cy="0" r="1.441" transform="matrix(1 0 0 1 1266.716 134.221)" fill="#d9cdaf" opacity="0.316"/><circle cx="0" cy="0" r="2.801" transform="matrix(1 0 0 1 50.326 231.859)" fill="#e3d6b9" opacity="0.415"/><circle cx="0" cy="0" r="2.814" transform="matrix(1 0 0 1 123.608 220.888)" fill="#d7caaa" opacity="0.413"/><circle cx="0" cy="0" r="2.005" transform="matrix(1 0 0 1 224.37 228.642)" fill="#dbcfb2" opacity="0.246"/><circle cx="0" cy="0" r="2.655" transform="matrix(1 0 0 1 296.987 225.426)" fill="#d5c8a6" opacity="0.436"/><circle cx="0" cy="0" r="1.574" transform="matrix(1 0 0 1 404.011 201.531)" fill="#d9cdaf" opacity="0.437"/><circle cx="0" cy="0" r="1.615" transform="matrix(1 0 0 1 464.18 224.348)" fill="#ddd2b7" opacity="0.293"/><circle cx="0" cy="0" r="2.366" transform="matrix(1 0 0 1 561.541 206.884)" fill="#dacdaf" opacity="0.289"/><circle cx="0" cy="0" r="2.352" transform="matrix(1 0 0 1 651.649 201.149)" fill="#ded3b9" opacity="0.266"/><circle cx="0" cy="0" r="1.493" transform="matrix(1 0 0 1 728.404 203.097)" fill="#ded3b9" opacity="0.354"/><circle cx="0" cy="0" r="2.799" transform="matrix(1 0 0 1 821.493 218.846)" fill="#d4c6a4" opacity="0.426"/><circle cx="0" cy="0" r="1.821" transform="matrix(1 0 0 1 924.623 217.431)" fill="#e4d8bc" opacity="0.28"/><circle cx="0" cy="0" r="2.724" transform="matrix(1 0 0 1 1007.072 210.654)" fill="#dfd0b0" opacity="0.346"/><circle cx="0" cy="0" r="2.654" transform="matrix(1 0 0 1 1099.01 214.082)" fill="#e4d8bd" opacity="0.235"/><circle cx="0" cy="0" r="2.258" transform="matrix(1 0 0 1 1187.369 226.023)" fill="#e4d8be" opacity="0.28"/><circle cx="0" cy="0" r="2.446" transform="matrix(1 0 0 1 1265.961 226.698)" fill="#e8ddc6" opacity="0.395"/><circle cx="0" cy="0" r="2.107" transform="matrix(1 0 0 1 44.613 297.807)" fill="#ded3b8" opacity="0.24"/><circle cx="0" cy="0" r="1.865" transform="matrix(1 0 0 1 114.706 315.367)" fill="#e4d8bd" opacity="0.412"/><circle cx="0" cy="0" r="2.272" transform="matrix(1 0 0 1 208.527 311.17)" fill="#d9ccae" opacity="0.342"/><circle cx="0" cy="0" r="2.769" transform="matrix(1 0 0 1 288.188 312.272)" fill="#ddd2b6" opacity="0.37"/><circle cx="0" cy="0" r="1.759" transform="matrix(1 0 0 1 379.576 313.098)" fill="#dbcfb2" opacity="0.336"/><circle cx="0" cy="0" r="2.823" transform="matrix(1 0 0 1 466.718 303.662)" fill="#d2c4a0" opacity="0.3"/><circle cx="0" cy="0" r="2.716" transform="matrix(1 0 0 1 552.668 305.225)" fill="#d6c9a8" opacity="0.245"/><circle cx="0" cy="0" r="1.427" transform="matrix(1 0 0 1 658.725 306.12)" fill="#d4c5a3" opacity="0.257"/><circle cx="0" cy="0" r="1.475" transform="matrix(1 0 0 1 735.204 308.338)" fill="#d6c8a7" opacity="0.29"/><circle cx="0" cy="0" r="2.851" transform="matrix(1 0 0 1 829.61 301.996)" fill="#dbcfb3" opacity="0.254"/><circle cx="0" cy="0" r="2.457" transform="matrix(1 0 0 1 926.855 298.861)" fill="#e4d8bd" opacity="0.404"/><circle cx="0" cy="0" r="1.354" transform="matrix(1 0 0 1 1006.563 309.117)" fill="#ded3b8" opacity="0.22"/><circle cx="0" cy="0" r="1.381" transform="matrix(1 0 0 1 1101.441 304.672)" fill="#e4d8bd" opacity="0.37"/><circle cx="0" cy="0" r="2.734" transform="matrix(1 0 0 1 1172.904 290.771)" fill="#d3c5a2" opacity="0.339"/><circle cx="0" cy="0" r="1.539" transform="matrix(1 0 0 1 1286.586 319.834)" fill="#e9dfc9" opacity="0.221"/><circle cx="0" cy="0" r="2.113" transform="matrix(1 0 0 1 42.321 397.093)" fill="#d8cbac" opacity="0.254"/><circle cx="0" cy="0" r="2.787" transform="matrix(1 0 0 1 127.735 405.58)" fill="#d5c8a7" opacity="0.395"/><circle cx="0" cy="0" r="2.398" transform="matrix(1 0 0 1 225.709 404.466)" fill="#dfd4ba" opacity="0.403"/><circle cx="0" cy="0" r="1.737" transform="matrix(1 0 0 1 295.295 385.622)" fill="#dacdaf" opacity="0.229"/><circle cx="0" cy="0" r="1.494" transform="matrix(1 0 0 1 403.532 388.329)" fill="#ddd1b6" opacity="0.361"/><circle cx="0" cy="0" r="2.104" transform="matrix(1 0 0 1 475.21 395.573)" fill="#e5d9bf" opacity="0.373"/><circle cx="0" cy="0" r="1.631" transform="matrix(1 0 0 1 552.688 404.422)" fill="#ddd2b7" opacity="0.286"/><circle cx="0" cy="0" r="1.96" transform="matrix(1 0 0 1 663.413 396.442)" fill="#ddd1b6" opacity="0.329"/><circle cx="0" cy="0" r="2.525" transform="matrix(1 0 0 1 737.253 394.536)" fill="#e4d8bc" opacity="0.257"/><circle cx="0" cy="0" r="2.499" transform="matrix(1 0 0 1 836.183 383.966)" fill="#d4c6a5" opacity="0.375"/><circle cx="0" cy="0" r="2.418" transform="matrix(1 0 0 1 909.09 388.44)" fill="#dcd1b5" opacity="0.335"/><circle cx="0" cy="0" r="1.431" transform="matrix(1 0 0 1 996.889 386.252)" fill="#ddd2b7" opacity="0.296"/><circle cx="0" cy="0" r="2.808" transform="matrix(1 0 0 1 1092.299 397.926)" fill="#dfd1b1" opacity="0.282"/><circle cx="0" cy="0" r="2.133" transform="matrix(1 0 0 1 1169.306 381.23)" fill="#d8caab" opacity="0.255"/><circle cx="0" cy="0" r="2.303" transform="matrix(1 0 0 1 1278 407.913)" fill="#e0d2b3" opacity="0.237"/><circle cx="0" cy="0" r="2.988" transform="matrix(1 0 0 1 35.632 480.488)" fill="#dbcfb2" opacity="0.302"/><circle cx="0" cy="0" r="2.806" transform="matrix(1 0 0 1 116.071 480.031)" fill="#d6c8a7" opacity="0.434"/><circle cx="0" cy="0" r="1.356" transform="matrix(1 0 0 1 206.056 483.338)" fill="#e0d2b2" opacity="0.411"/><circle cx="0" cy="0" r="2.301" transform="matrix(1 0 0 1 292.306 495.789)" fill="#e0d3b4" opacity="0.415"/><circle cx="0" cy="0" r="1.684" transform="matrix(1 0 0 1 376.027 464.616)" fill="#d2c39f" opacity="0.344"/><circle cx="0" cy="0" r="2.33" transform="matrix(1 0 0 1 484.997 468.565)" fill="#e2d6b9" opacity="0.377"/><circle cx="0" cy="0" r="2.417" transform="matrix(1 0 0 1 553.532 470.992)" fill="#e4d9be" opacity="0.3"/><circle cx="0" cy="0" r="2.429" transform="matrix(1 0 0 1 655.428 479.481)" fill="#d4c6a3" opacity="0.393"/><circle cx="0" cy="0" r="2.354" transform="matrix(1 0 0 1 757.085 481.981)" fill="#e6dbc1" opacity="0.332"/><circle cx="0" cy="0" r="1.814" transform="matrix(1 0 0 1 839.628 495.448)" fill="#e8ddc6" opacity="0.283"/><circle cx="0" cy="0" r="2.268" transform="matrix(1 0 0 1 907.056 481.998)" fill="#e4d8be" opacity="0.325"/><circle cx="0" cy="0" r="1.508" transform="matrix(1 0 0 1 1003.966 467.864)" fill="#e8ddc6" opacity="0.385"/><circle cx="0" cy="0" r="1.31" transform="matrix(1 0 0 1 1097.198 495.78)" fill="#ded4ba" opacity="0.409"/><circle cx="0" cy="0" r="1.462" transform="matrix(1 0 0 1 1188.494 478.125)" fill="#e0d2b3" opacity="0.288"/><circle cx="0" cy="0" r="2.612" transform="matrix(1 0 0 1 1275.131 492.64)" fill="#dbcfb2" opacity="0.388"/><circle cx="0" cy="0" r="2.362" transform="matrix(1 0 0 1 26.106 569.508)" fill="#d4c6a3" opacity="0.4"/><circle cx="0" cy="0" r="1.55" transform="matrix(1 0 0 1 135.357 581.781)" fill="#daceb1" opacity="0.431"/><circle cx="0" cy="0" r="2.742" transform="matrix(1 0 0 1 224.368 556.936)" fill="#d6c9a8" opacity="0.258"/><circle cx="0" cy="0" r="2.938" transform="matrix(1 0 0 1 297.334 576.186)" fill="#d8cbac" opacity="0.411"/><circle cx="0" cy="0" r="2.737" transform="matrix(1 0 0 1 403.172 564.64)" fill="#e7ddc5" opacity="0.24"/><circle cx="0" cy="0" r="1.328" transform="matrix(1 0 0 1 474.425 556.974)" fill="#dcd0b4" opacity="0.229"/><circle cx="0" cy="0" r="1.951" transform="matrix(1 0 0 1 571.361 554.979)" fill="#e5dac1" opacity="0.298"/><circle cx="0" cy="0" r="1.648" transform="matrix(1 0 0 1 649.083 561.64)" fill="#ded0af" opacity="0.384"/><circle cx="0" cy="0" r="1.353" transform="matrix(1 0 0 1 740.769 565.336)" fill="#e2d5b7" opacity="0.26"/><circle cx="0" cy="0" r="2.774" transform="matrix(1 0 0 1 831.653 580.898)" fill="#e3d6b9" opacity="0.302"/><circle cx="0" cy="0" r="1.346" transform="matrix(1 0 0 1 905.466 572.733)" fill="#e6dbc2" opacity="0.312"/><circle cx="0" cy="0" r="1.553" transform="matrix(1 0 0 1 1009.694 571.372)" fill="#d8cbab" opacity="0.278"/><circle cx="0" cy="0" r="1.426" transform="matrix(1 0 0 1 1082.513 580.539)" fill="#d7c9a9" opacity="0.262"/><circle cx="0" cy="0" r="2.376" transform="matrix(1 0 0 1 1199.098 568.27)" fill="#ddd1b6" opacity="0.439"/><circle cx="0" cy="0" r="1.827" transform="matrix(1 0 0 1 1273.495 583.467)" fill="#d6c8a8" opacity="0.377"/><circle cx="0" cy="0" r="2.576" transform="matrix(1 0 0 1 43.519 670.011)" fill="#eae0cb" opacity="0.284"/><circle cx="0" cy="0" r="2.871" transform="matrix(1 0 0 1 122.741 647.607)" fill="#d4c6a3" opacity="0.266"/><circle cx="0" cy="0" r="2.338" transform="matrix(1 0 0 1 204.025 661.236)" fill="#e0d2b2" opacity="0.4"/><circle cx="0" cy="0" r="1.561" transform="matrix(1 0 0 1 308.035 659.875)" fill="#e6dbc3" opacity="0.267"/><circle cx="0" cy="0" r="1.502" transform="matrix(1 0 0 1 380.674 660.56)" fill="#ded0af" opacity="0.323"/><circle cx="0" cy="0" r="1.391" transform="matrix(1 0 0 1 486.36 651.211)" fill="#d3c4a1" opacity="0.396"/><circle cx="0" cy="0" r="2.044" transform="matrix(1 0 0 1 578.103 640.593)" fill="#e2d6b9" opacity="0.402"/><circle cx="0" cy="0" r="2.198" transform="matrix(1 0 0 1 643.416 667.176)" fill="#dbceb1" opacity="0.238"/><circle cx="0" cy="0" r="2.559" transform="matrix(1 0 0 1 736.102 662.811)" fill="#d7c9a9" opacity="0.277"/><circle cx="0" cy="0" r="2.872" transform="matrix(1 0 0 1 821.358 662.428)" fill="#e5d9be" opacity="0.415"/><circle cx="0" cy="0" r="1.45" transform="matrix(1 0 0 1 911.978 650.799)" fill="#ded3b8" opacity="0.385"/><circle cx="0" cy="0" r="2.481" transform="matrix(1 0 0 1 1006.385 640.905)" fill="#d3c5a2" opacity="0.37"/><circle cx="0" cy="0" r="1.49" transform="matrix(1 0 0 1 1092.494 648.752)" fill="#d2c39f" opacity="0.226"/><circle cx="0" cy="0" r="2.903" transform="matrix(1 0 0 1 1194.323 652.549)" fill="#d8ccad" opacity="0.257"/><circle cx="0" cy="0" r="1.945" transform="matrix(1 0 0 1 1281.726 651.281)" fill="#e8dec7" opacity="0.383"/><rect x="-494" y="-302" width="988" height="604" rx="20" transform="matrix(1 0 0 1 640 380)" fill="#b2c37d" stroke="rgba(35, 32, 26, 0.1)" stroke-width="2"/><circle cx="0" cy="0" r="6" transform="matrix(1 0 0 1 144 84)" fill="rgba(35, 32, 26, 0.14)"/><circle cx="0" cy="0" r="6" transform="matrix(1 0 0 1 144 692)" fill="rgba(35, 32, 26, 0.14)"/><circle cx="0" cy="0" r="6" transform="matrix(1 0 0 1 268 84)" fill="rgba(35, 32, 26, 0.14)"/><circle cx="0" cy="0" r="6" transform="matrix(1 0 0 1 268 692)" fill="rgba(35, 32, 26, 0.14)"/><circle cx="0" cy="0" r="6" transform="matrix(1 0 0 1 392 84)" fill="rgba(35, 32, 26, 0.14)"/><circle cx="0" cy="0" r="6" transform="matrix(1 0 0 1 392 692)" fill="rgba(35, 32, 26, 0.14)"/><circle cx="0" cy="0" r="6" transform="matrix(1 0 0 1 516 84)" fill="rgba(35, 32, 26, 0.14)"/><circle cx="0" cy="0" r="6" transform="matrix(1 0 0 1 516 692)" fill="rgba(35, 32, 26, 0.14)"/><circle cx="0" cy="0" r="6" transform="matrix(1 0 0 1 640 84)" fill="rgba(35, 32, 26, 0.14)"/><circle cx="0" cy="0" r="6" transform="matrix(1 0 0 1 640 692)" fill="rgba(35, 32, 26, 0.14)"/><circle cx="0" cy="0" r="6" transform="matrix(1 0 0 1 764 84)" fill="rgba(35, 32, 26, 0.14)"/><circle cx="0" cy="0" r="6" transform="matrix(1 0 0 1 764 692)" fill="rgba(35, 32, 26, 0.14)"/><circle cx="0" cy="0" r="6" transform="matrix(1 0 0 1 888 84)" fill="rgba(35, 32, 26, 0.14)"/><circle cx="0" cy="0" r="6" transform="matrix(1 0 0 1 888 692)" fill="rgba(35, 32, 26, 0.14)"/><circle cx="0" cy="0" r="6" transform="matrix(1 0 0 1 1012 84)" fill="rgba(35, 32, 26, 0.14)"/><circle cx="0" cy="0" r="6" transform="matrix(1 0 0 1 1012 692)" fill="rgba(35, 32, 26, 0.14)"/><circle cx="0" cy="0" r="6" transform="matrix(1 0 0 1 1136 84)" fill="rgba(35, 32, 26, 0.14)"/><circle cx="0" cy="0" r="6" transform="matrix(1 0 0 1 1136 692)" fill="rgba(35, 32, 26, 0.14)"/><circle cx="0" cy="0" r="6" transform="matrix(1 0 0 1 144 236)" fill="rgba(35, 32, 26, 0.14)"/><circle cx="0" cy="0" r="6" transform="matrix(1 0 0 1 1136 236)" fill="rgba(35, 32, 26, 0.14)"/><circle cx="0" cy="0" r="6" transform="matrix(1 0 0 1 144 388)" fill="rgba(35, 32, 26, 0.14)"/><circle cx="0" cy="0" r="6" transform="matrix(1 0 0 1 1136 388)" fill="rgba(35, 32, 26, 0.14)"/><circle cx="0" cy="0" r="6" transform="matrix(1 0 0 1 144 540)" fill="rgba(35, 32, 26, 0.14)"/><circle cx="0" cy="0" r="6" transform="matrix(1 0 0 1 1136 540)" fill="rgba(35, 32, 26, 0.14)"/><rect x="-496" y="-2" width="992" height="4" rx="2" transform="matrix(1 0 0 1 640 69)" fill="#b9a882" opacity="0.9"/><rect x="-496" y="-2" width="992" height="4" rx="2" transform="matrix(1 0 0 1 640 677)" fill="#b9a882" opacity="0.9"/><rect x="-2" y="-304" width="4" height="608" rx="2" transform="matrix(1 0 0 1 144 373)" fill="#b9a882" opacity="0.9"/><rect x="-2" y="-304" width="4" height="608" rx="2" transform="matrix(1 0 0 1 1136 373)" fill="#b9a882" opacity="0.9"/><rect x="-496" y="-2" width="992" height="4" rx="2" transform="matrix(1 0 0 1 640 81)" fill="#b9a882" opacity="0.9"/><rect x="-496" y="-2" width="992" height="4" rx="2" transform="matrix(1 0 0 1 640 689)" fill="#b9a882" opacity="0.9"/><rect x="-2" y="-304" width="4" height="608" rx="2" transform="matrix(1 0 0 1 144 385)" fill="#b9a882" opacity="0.9"/><rect x="-2" y="-304" width="4" height="608" rx="2" transform="matrix(1 0 0 1 1136 385)" fill="#b9a882" opacity="0.9"/><circle cx="0" cy="0" r="26.247" transform="matrix(1 0 0 1 77 144.497)" fill="rgba(35, 32, 26, 0.14)"/><circle cx="0" cy="0" r="25.804" transform="matrix(1 0 0 1 1213 174.084)" fill="rgba(35, 32, 26, 0.14)"/><circle cx="0" cy="0" r="30.372" transform="matrix(1 0 0 1 85 668.347)" fill="rgba(35, 32, 26, 0.14)"/><circle cx="0" cy="0" r="27.443" transform="matrix(1 0 0 1 1205 635.614)" fill="rgba(35, 32, 26, 0.14)"/><rect x="-4.5" y="-15" width="9" height="30" rx="3" transform="matrix(1 0 0 1 144 76)" fill="#b9a882" stroke="#494133" stroke-width="1.5"/><rect x="-4.5" y="-15" width="9" height="30" rx="3" transform="matrix(1 0 0 1 144 684)" fill="#b9a882" stroke="#494133" stroke-width="1.5"/><rect x="-4.5" y="-15" width="9" height="30" rx="3" transform="matrix(1 0 0 1 268 76)" fill="#b9a882" stroke="#494133" stroke-width="1.5"/><rect x="-4.5" y="-15" width="9" height="30" rx="3" transform="matrix(1 0 0 1 268 684)" fill="#b9a882" stroke="#494133" stroke-width="1.5"/><rect x="-4.5" y="-15" width="9" height="30" rx="3" transform="matrix(1 0 0 1 392 76)" fill="#b9a882" stroke="#494133" stroke-width="1.5"/><rect x="-4.5" y="-15" width="9" height="30" rx="3" transform="matrix(1 0 0 1 392 684)" fill="#b9a882" stroke="#494133" stroke-width="1.5"/><rect x="-4.5" y="-15" width="9" height="30" rx="3" transform="matrix(1 0 0 1 516 76)" fill="#b9a882" stroke="#494133" stroke-width="1.5"/><rect x="-4.5" y="-15" width="9" height="30" rx="3" transform="matrix(1 0 0 1 516 684)" fill="#b9a882" stroke="#494133" stroke-width="1.5"/><rect x="-4.5" y="-15" width="9" height="30" rx="3" transform="matrix(1 0 0 1 640 76)" fill="#b9a882" stroke="#494133" stroke-width="1.5"/><rect x="-4.5" y="-15" width="9" height="30" rx="3" transform="matrix(1 0 0 1 640 684)" fill="#b9a882" stroke="#494133" stroke-width="1.5"/><rect x="-4.5" y="-15" width="9" height="30" rx="3" transform="matrix(1 0 0 1 764 76)" fill="#b9a882" stroke="#494133" stroke-width="1.5"/><rect x="-4.5" y="-15" width="9" height="30" rx="3" transform="matrix(1 0 0 1 764 684)" fill="#b9a882" stroke="#494133" stroke-width="1.5"/><rect x="-4.5" y="-15" width="9" height="30" rx="3" transform="matrix(1 0 0 1 888 76)" fill="#b9a882" stroke="#494133" stroke-width="1.5"/><rect x="-4.5" y="-15" width="9" height="30" rx="3" transform="matrix(1 0 0 1 888 684)" fill="#b9a882" stroke="#494133" stroke-width="1.5"/><rect x="-4.5" y="-15" width="9" height="30" rx="3" transform="matrix(1 0 0 1 1012 76)" fill="#b9a882" stroke="#494133" stroke-width="1.5"/><rect x="-4.5" y="-15" width="9" height="30" rx="3" transform="matrix(1 0 0 1 1012 684)" fill="#b9a882" stroke="#494133" stroke-width="1.5"/><rect x="-4.5" y="-15" width="9" height="30" rx="3" transform="matrix(1 0 0 1 1136 76)" fill="#b9a882" stroke="#494133" stroke-width="1.5"/><rect x="-4.5" y="-15" width="9" height="30" rx="3" transform="matrix(1 0 0 1 1136 684)" fill="#b9a882" stroke="#494133" stroke-width="1.5"/><rect x="-4.5" y="-15" width="9" height="30" rx="3" transform="matrix(1 0 0 1 144 228)" fill="#b9a882" stroke="#494133" stroke-width="1.5"/><rect x="-4.5" y="-15" width="9" height="30" rx="3" transform="matrix(1 0 0 1 1136 228)" fill="#b9a882" stroke="#494133" stroke-width="1.5"/><rect x="-4.5" y="-15" width="9" height="30" rx="3" transform="matrix(1 0 0 1 144 380)" fill="#b9a882" stroke="#494133" stroke-width="1.5"/><rect x="-4.5" y="-15" width="9" height="30" rx="3" transform="matrix(1 0 0 1 1136 380)" fill="#b9a882" stroke="#494133" stroke-width="1.5"/><rect x="-4.5" y="-15" width="9" height="30" rx="3" transform="matrix(1 0 0 1 144 532)" fill="#b9a882" stroke="#494133" stroke-width="1.5"/><rect x="-4.5" y="-15" width="9" height="30" rx="3" transform="matrix(1 0 0 1 1136 532)" fill="#b9a882" stroke="#494133" stroke-width="1.5"/><rect x="-5" y="-10.499" width="10" height="20.998" rx="3" transform="matrix(1 0 0 1 72 137.498)" fill="#655c4d" stroke="#494133" stroke-width="1.5"/><path d="M 41.9 0 C 42.63 8.18, 37.58 21.62, 31.43 26.37 C 25.29 31.13, 12.98 28.24, 5.03 28.54 C -2.92 28.84, -9.05 30.63, -16.28 28.2 C -23.51 25.77, -35.11 20.83, -38.36 13.96 C -41.6 7.09, -39.72 -6.52, -35.73 -13 C -31.73 -19.48, -21.49 -20.55, -14.39 -24.92 C -7.28 -29.29, 0.01 -39.58, 6.91 -39.22 C 13.82 -38.85, 21.24 -29.25, 27.07 -22.72 C 32.9 -16.18, 41.17 -8.18, 41.9 0 Z" transform="matrix(1 0 0 1 72 120)" fill="#446932" stroke="#23201a" stroke-width="2"/><path d="M 16.69 0 C 17.55 4.48, 16.85 13.36, 13.31 16.69 C 9.77 20.02, 0.91 21.2, -4.56 19.99 C -10.04 18.78, -17.93 13.89, -19.55 9.41 C -21.18 4.93, -16.91 -2.41, -14.31 -6.89 C -11.72 -11.38, -7.74 -16.94, -3.99 -17.5 C -0.25 -18.05, 4.7 -13.13, 8.14 -10.21 C 11.59 -7.3, 15.83 -4.48, 16.69 0 Z" transform="matrix(1 0 0 1 61.501 109.501)" fill="#6f9245" opacity="0.7"/><rect x="-5" y="-10.322" width="10" height="20.643" rx="3" transform="matrix(1 0 0 1 1208 167.203)" fill="#6d6353" stroke="#494133" stroke-width="1.5"/><path d="M 37.21 0 C 36.64 8.37, 33.59 19.04, 28.2 23.66 C 22.82 28.28, 12.68 26.3, 4.89 27.72 C -2.91 29.13, -11.94 34.65, -18.56 32.15 C -25.18 29.64, -32.89 19.87, -34.84 12.68 C -36.79 5.49, -33.3 -4.11, -30.26 -11.01 C -27.22 -17.92, -22.61 -25.09, -16.6 -28.75 C -10.58 -32.41, -2.22 -33.35, 5.82 -32.98 C 13.85 -32.61, 26.39 -32.03, 31.62 -26.54 C 36.86 -21.04, 37.78 -8.37, 37.21 0 Z" transform="matrix(1 0 0 1 1208 150)" fill="#417136" stroke="#23201a" stroke-width="2"/><path d="M 19.39 0 C 19.52 4.46, 15.08 10.42, 11.06 13.87 C 7.04 17.33, -0.37 21.84, -4.73 20.74 C -9.1 19.64, -13.59 11.88, -15.14 7.29 C -16.7 2.71, -15.97 -2.93, -14.04 -6.76 C -12.11 -10.59, -7.63 -14.66, -3.58 -15.67 C 0.47 -16.69, 6.43 -15.47, 10.25 -12.86 C 14.08 -10.24, 19.25 -4.46, 19.39 0 Z" transform="matrix(1 0 0 1 1197.678 139.678)" fill="#6d9547" opacity="0.7"/><rect x="-5" y="-12.149" width="10" height="24.298" rx="3" transform="matrix(1 0 0 1 80 660.248)" fill="#776c5a" stroke="#494133" stroke-width="1.5"/><path d="M 45.82 0 C 46.5 8.53, 39.12 21.43, 32.52 27.29 C 25.92 33.15, 15.05 33.78, 6.2 35.17 C -2.65 36.56, -14.36 39.59, -20.56 35.61 C -26.76 31.63, -27.78 19.63, -30.99 11.28 C -34.2 2.93, -41.74 -6.97, -39.83 -14.5 C -37.93 -22.03, -27.15 -30.92, -19.57 -33.89 C -11.98 -36.85, -2.31 -33.97, 5.69 -32.3 C 13.7 -30.63, 21.75 -29.25, 28.44 -23.86 C 35.13 -18.48, 45.14 -8.53, 45.82 0 Z" transform="matrix(1 0 0 1 80 640)" fill="#447538" stroke="#23201a" stroke-width="2"/><path d="M 14.9 0 C 15.01 6.23, 18.26 16.54, 15.21 19.07 C 12.15 21.59, 2.48 16.67, -3.45 15.13 C -9.39 13.59, -18.7 13.44, -20.39 9.82 C -22.09 6.21, -16.19 -1.32, -13.61 -6.55 C -11.03 -11.79, -9.63 -19.64, -4.93 -21.6 C -0.23 -23.56, 11.29 -21.91, 14.6 -18.31 C 17.91 -14.71, 14.8 -6.23, 14.9 0 Z" transform="matrix(1 0 0 1 67.851 627.851)" fill="#6f9748" opacity="0.7"/><rect x="-5" y="-10.977" width="10" height="21.955" rx="3" transform="matrix(1 0 0 1 1200 628.296)" fill="#685f4f" stroke="#494133" stroke-width="1.5"/><path d="M 32.7 0 C 32.9 6.32, 27.69 14.01, 23.21 19.47 C 18.72 24.93, 13.26 29.73, 5.77 32.75 C -1.71 35.76, -15.97 41.29, -21.68 37.56 C -27.4 33.83, -25.39 19.08, -28.5 10.37 C -31.6 1.66, -42.32 -8.16, -40.34 -14.68 C -38.36 -21.21, -24.43 -25.02, -16.61 -28.77 C -8.8 -32.53, 0.12 -38.91, 6.56 -37.19 C 12.99 -35.47, 17.64 -24.66, 22 -18.46 C 26.36 -12.26, 32.5 -6.32, 32.7 0 Z" transform="matrix(1 0 0 1 1200 610)" fill="#4d833e" stroke="#23201a" stroke-width="2"/><path d="M 19.98 0 C 20.56 5.34, 18.46 15.61, 14.54 18.23 C 10.61 20.85, 2.02 17.21, -3.59 15.71 C -9.19 14.2, -16.58 13.31, -19.09 9.19 C -21.6 5.08, -21.27 -4.99, -18.65 -8.98 C -16.03 -12.98, -8.32 -13.96, -3.37 -14.77 C 1.58 -15.57, 7.13 -16.28, 11.02 -13.82 C 14.91 -11.36, 19.39 -5.34, 19.98 0 Z" transform="matrix(1 0 0 1 1189.023 599.023)" fill="#729c4a" opacity="0.7"/><rect x="-44" y="-44" width="88" height="88" rx="12" transform="matrix(1 0 0 1 208 140)" fill="#94af52" stroke="rgba(35, 32, 26, 0.12)" stroke-width="1"/><rect x="-44" y="-44" width="88" height="88" rx="12" transform="matrix(1 0 0 1 304 140)" fill="#94af52" stroke="rgba(35, 32, 26, 0.12)" stroke-width="1"/><rect x="-44" y="-44" width="88" height="88" rx="12" transform="matrix(1 0 0 1 400 140)" fill="#94af52" stroke="rgba(35, 32, 26, 0.12)" stroke-width="1"/><rect x="-44" y="-44" width="88" height="88" rx="12" transform="matrix(1 0 0 1 496 140)" fill="#94af52" stroke="rgba(35, 32, 26, 0.12)" stroke-width="1"/><rect x="-44" y="-44" width="88" height="88" rx="12" transform="matrix(1 0 0 1 592 140)" fill="#94af52" stroke="rgba(35, 32, 26, 0.12)" stroke-width="1"/><rect x="-44" y="-44" width="88" height="88" rx="12" transform="matrix(1 0 0 1 688 140)" fill="#94af52" stroke="rgba(35, 32, 26, 0.12)" stroke-width="1"/><rect x="-44" y="-44" width="88" height="88" rx="12" transform="matrix(1 0 0 1 784 140)" fill="#94af52" stroke="rgba(35, 32, 26, 0.12)" stroke-width="1"/><rect x="-44" y="-44" width="88" height="88" rx="12" transform="matrix(1 0 0 1 880 140)" fill="#94af52" stroke="rgba(35, 32, 26, 0.12)" stroke-width="1"/><rect x="-44" y="-44" width="88" height="88" rx="12" transform="matrix(1 0 0 1 976 140)" fill="#94af52" stroke="rgba(35, 32, 26, 0.12)" stroke-width="1"/><rect x="-44" y="-44" width="88" height="88" rx="12" transform="matrix(1 0 0 1 1072 140)" fill="#94af52" stroke="rgba(35, 32, 26, 0.12)" stroke-width="1"/><rect x="-44" y="-44" width="88" height="88" rx="12" transform="matrix(1 0 0 1 208 236)" fill="#94af52" stroke="rgba(35, 32, 26, 0.12)" stroke-width="1"/><rect x="-44" y="-44" width="88" height="88" rx="12" transform="matrix(1 0 0 1 304 236)" fill="#94af52" stroke="rgba(35, 32, 26, 0.12)" stroke-width="1"/><rect x="-44" y="-44" width="88" height="88" rx="12" transform="matrix(1 0 0 1 400 236)" fill="#94af52" stroke="rgba(35, 32, 26, 0.12)" stroke-width="1"/><rect x="-44" y="-44" width="88" height="88" rx="12" transform="matrix(1 0 0 1 496 236)" fill="#94af52" stroke="rgba(35, 32, 26, 0.12)" stroke-width="1"/><rect x="-44" y="-44" width="88" height="88" rx="12" transform="matrix(1 0 0 1 592 236)" fill="#94af52" stroke="rgba(35, 32, 26, 0.12)" stroke-width="1"/><rect x="-44" y="-44" width="88" height="88" rx="12" transform="matrix(1 0 0 1 688 236)" fill="#94af52" stroke="rgba(35, 32, 26, 0.12)" stroke-width="1"/><rect x="-44" y="-44" width="88" height="88" rx="12" transform="matrix(1 0 0 1 784 236)" fill="#94af52" stroke="rgba(35, 32, 26, 0.12)" stroke-width="1"/><rect x="-44" y="-44" width="88" height="88" rx="12" transform="matrix(1 0 0 1 880 236)" fill="#94af52" stroke="rgba(35, 32, 26, 0.12)" stroke-width="1"/><rect x="-44" y="-44" width="88" height="88" rx="12" transform="matrix(1 0 0 1 976 236)" fill="#94af52" stroke="rgba(35, 32, 26, 0.12)" stroke-width="1"/><rect x="-44" y="-44" width="88" height="88" rx="12" transform="matrix(1 0 0 1 1072 236)" fill="#94af52" stroke="rgba(35, 32, 26, 0.12)" stroke-width="1"/><rect x="-44" y="-44" width="88" height="88" rx="12" transform="matrix(1 0 0 1 208 332)" fill="#94af52" stroke="rgba(35, 32, 26, 0.12)" stroke-width="1"/><rect x="-44" y="-44" width="88" height="88" rx="12" transform="matrix(1 0 0 1 304 332)" fill="#94af52" stroke="rgba(35, 32, 26, 0.12)" stroke-width="1"/><rect x="-44" y="-44" width="88" height="88" rx="12" transform="matrix(1 0 0 1 400 332)" fill="#94af52" stroke="rgba(35, 32, 26, 0.12)" stroke-width="1"/><rect x="-44" y="-44" width="88" height="88" rx="12" transform="matrix(1 0 0 1 496 332)" fill="#94af52" stroke="rgba(35, 32, 26, 0.12)" stroke-width="1"/><rect x="-44" y="-44" width="88" height="88" rx="12" transform="matrix(1 0 0 1 592 332)" fill="#94af52" stroke="rgba(35, 32, 26, 0.12)" stroke-width="1"/><rect x="-44" y="-44" width="88" height="88" rx="12" transform="matrix(1 0 0 1 688 332)" fill="#94af52" stroke="rgba(35, 32, 26, 0.12)" stroke-width="1"/><rect x="-44" y="-44" width="88" height="88" rx="12" transform="matrix(1 0 0 1 784 332)" fill="#94af52" stroke="rgba(35, 32, 26, 0.12)" stroke-width="1"/><rect x="-44" y="-44" width="88" height="88" rx="12" transform="matrix(1 0 0 1 880 332)" fill="#94af52" stroke="rgba(35, 32, 26, 0.12)" stroke-width="1"/><rect x="-44" y="-44" width="88" height="88" rx="12" transform="matrix(1 0 0 1 976 332)" fill="#94af52" stroke="rgba(35, 32, 26, 0.12)" stroke-width="1"/><rect x="-44" y="-44" width="88" height="88" rx="12" transform="matrix(1 0 0 1 1072 332)" fill="#94af52" stroke="rgba(35, 32, 26, 0.12)" stroke-width="1"/><rect x="-44" y="-44" width="88" height="88" rx="12" transform="matrix(1 0 0 1 208 428)" fill="#94af52" stroke="rgba(35, 32, 26, 0.12)" stroke-width="1"/><rect x="-44" y="-44" width="88" height="88" rx="12" transform="matrix(1 0 0 1 304 428)" fill="#94af52" stroke="rgba(35, 32, 26, 0.12)" stroke-width="1"/><rect x="-44" y="-44" width="88" height="88" rx="12" transform="matrix(1 0 0 1 400 428)" fill="#94af52" stroke="rgba(35, 32, 26, 0.12)" stroke-width="1"/><rect x="-44" y="-44" width="88" height="88" rx="12" transform="matrix(1 0 0 1 496 428)" fill="#94af52" stroke="rgba(35, 32, 26, 0.12)" stroke-width="1"/><rect x="-44" y="-44" width="88" height="88" rx="12" transform="matrix(1 0 0 1 592 428)" fill="#8a7d61" stroke="#2c7a90" stroke-width="3"/><rect x="-44" y="-44" width="88" height="88" rx="12" transform="matrix(1 0 0 1 688 428)" fill="#8a7d61" stroke="#2c7a90" stroke-width="3"/><rect x="-44" y="-44" width="88" height="88" rx="12" transform="matrix(1 0 0 1 784 428)" fill="#8a7d61" stroke="#2c7a90" stroke-width="3"/><rect x="-44" y="-44" width="88" height="88" rx="12" transform="matrix(1 0 0 1 880 428)" fill="#8a7d61" stroke="#2c7a90" stroke-width="3"/><rect x="-44" y="-44" width="88" height="88" rx="12" transform="matrix(1 0 0 1 976 428)" fill="#8a7d61" stroke="#2c7a90" stroke-width="3"/><rect x="-44" y="-44" width="88" height="88" rx="12" transform="matrix(1 0 0 1 1072 428)" fill="#94af52" stroke="rgba(35, 32, 26, 0.12)" stroke-width="1"/><rect x="-44" y="-44" width="88" height="88" rx="12" transform="matrix(1 0 0 1 208 524)" fill="#94af52" stroke="rgba(35, 32, 26, 0.12)" stroke-width="1"/><rect x="-44" y="-44" width="88" height="88" rx="12" transform="matrix(1 0 0 1 304 524)" fill="#94af52" stroke="rgba(35, 32, 26, 0.12)" stroke-width="1"/><rect x="-44" y="-44" width="88" height="88" rx="12" transform="matrix(1 0 0 1 400 524)" fill="#94af52" stroke="rgba(35, 32, 26, 0.12)" stroke-width="1"/><rect x="-44" y="-44" width="88" height="88" rx="12" transform="matrix(1 0 0 1 496 524)" fill="#94af52" stroke="rgba(35, 32, 26, 0.12)" stroke-width="1"/><rect x="-44" y="-44" width="88" height="88" rx="12" transform="matrix(1 0 0 1 592 524)" fill="#8a7d61" stroke="#2c7a90" stroke-width="3"/><rect x="-44" y="-44" width="88" height="88" rx="12" transform="matrix(1 0 0 1 688 524)" fill="#8a7d61" stroke="rgba(35, 32, 26, 0.12)" stroke-width="1"/><rect x="-44" y="-44" width="88" height="88" rx="12" transform="matrix(1 0 0 1 784 524)" fill="#8a7d61" stroke="rgba(35, 32, 26, 0.12)" stroke-width="1"/><rect x="-44" y="-44" width="88" height="88" rx="12" transform="matrix(1 0 0 1 880 524)" fill="#8a7d61" stroke="rgba(35, 32, 26, 0.12)" stroke-width="1"/><rect x="-44" y="-44" width="88" height="88" rx="12" transform="matrix(1 0 0 1 976 524)" fill="#8a7d61" stroke="rgba(35, 32, 26, 0.12)" stroke-width="1"/><rect x="-44" y="-44" width="88" height="88" rx="12" transform="matrix(1 0 0 1 1072 524)" fill="#94af52" stroke="rgba(35, 32, 26, 0.12)" stroke-width="1"/><rect x="-44" y="-44" width="88" height="88" rx="12" transform="matrix(1 0 0 1 208 620)" fill="#94af52" stroke="rgba(35, 32, 26, 0.12)" stroke-width="1"/><rect x="-44" y="-44" width="88" height="88" rx="12" transform="matrix(1 0 0 1 304 620)" fill="#94af52" stroke="rgba(35, 32, 26, 0.12)" stroke-width="1"/><rect x="-44" y="-44" width="88" height="88" rx="12" transform="matrix(1 0 0 1 400 620)" fill="#94af52" stroke="rgba(35, 32, 26, 0.12)" stroke-width="1"/><rect x="-44" y="-44" width="88" height="88" rx="12" transform="matrix(1 0 0 1 496 620)" fill="#94af52" stroke="rgba(35, 32, 26, 0.12)" stroke-width="1"/><rect x="-44" y="-44" width="88" height="88" rx="12" transform="matrix(1 0 0 1 592 620)" fill="#8a7d61" stroke="rgba(35, 32, 26, 0.12)" stroke-width="1"/><rect x="-44" y="-44" width="88" height="88" rx="12" transform="matrix(1 0 0 1 688 620)" fill="#8a7d61" stroke="rgba(35, 32, 26, 0.12)" stroke-width="1"/><rect x="-44" y="-44" width="88" height="88" rx="12" transform="matrix(1 0 0 1 784 620)" fill="#94af52" stroke="rgba(35, 32, 26, 0.12)" stroke-width="1"/><rect x="-44" y="-44" width="88" height="88" rx="12" transform="matrix(1 0 0 1 880 620)" fill="#94af52" stroke="rgba(35, 32, 26, 0.12)" stroke-width="1"/><rect x="-44" y="-44" width="88" height="88" rx="12" transform="matrix(1 0 0 1 976 620)" fill="#94af52" stroke="rgba(35, 32, 26, 0.12)" stroke-width="1"/><rect x="-44" y="-44" width="88" height="88" rx="12" transform="matrix(1 0 0 1 1072 620)" fill="#94af52" stroke="rgba(35, 32, 26, 0.12)" stroke-width="1"/><rect x="-36" y="-1.5" width="72" height="3" rx="1" transform="matrix(1 0 0 1 592 408)" fill="rgba(44, 122, 144, 0.28)" opacity="0.9"/><rect x="-36" y="-1.5" width="72" height="3" rx="1" transform="matrix(1 0 0 1 592 428)" fill="rgba(44, 122, 144, 0.28)" opacity="0.9"/><rect x="-36" y="-1.5" width="72" height="3" rx="1" transform="matrix(1 0 0 1 592 448)" fill="rgba(44, 122, 144, 0.28)" opacity="0.9"/><rect x="-36" y="-1.5" width="72" height="3" rx="1" transform="matrix(1 0 0 1 688 408)" fill="rgba(44, 122, 144, 0.28)" opacity="0.9"/><rect x="-36" y="-1.5" width="72" height="3" rx="1" transform="matrix(1 0 0 1 688 428)" fill="rgba(44, 122, 144, 0.28)" opacity="0.9"/><rect x="-36" y="-1.5" width="72" height="3" rx="1" transform="matrix(1 0 0 1 688 448)" fill="rgba(44, 122, 144, 0.28)" opacity="0.9"/><rect x="-36" y="-1.5" width="72" height="3" rx="1" transform="matrix(1 0 0 1 784 408)" fill="rgba(44, 122, 144, 0.28)" opacity="0.9"/><rect x="-36" y="-1.5" width="72" height="3" rx="1" transform="matrix(1 0 0 1 784 428)" fill="rgba(44, 122, 144, 0.28)" opacity="0.9"/><rect x="-36" y="-1.5" width="72" height="3" rx="1" transform="matrix(1 0 0 1 784 448)" fill="rgba(44, 122, 144, 0.28)" opacity="0.9"/><rect x="-36" y="-1.5" width="72" height="3" rx="1" transform="matrix(1 0 0 1 880 408)" fill="rgba(44, 122, 144, 0.28)" opacity="0.9"/><rect x="-36" y="-1.5" width="72" height="3" rx="1" transform="matrix(1 0 0 1 880 428)" fill="rgba(44, 122, 144, 0.28)" opacity="0.9"/><rect x="-36" y="-1.5" width="72" height="3" rx="1" transform="matrix(1 0 0 1 880 448)" fill="rgba(44, 122, 144, 0.28)" opacity="0.9"/><rect x="-36" y="-1.5" width="72" height="3" rx="1" transform="matrix(1 0 0 1 976 408)" fill="rgba(44, 122, 144, 0.28)" opacity="0.9"/><rect x="-36" y="-1.5" width="72" height="3" rx="1" transform="matrix(1 0 0 1 976 428)" fill="rgba(44, 122, 144, 0.28)" opacity="0.9"/><rect x="-36" y="-1.5" width="72" height="3" rx="1" transform="matrix(1 0 0 1 976 448)" fill="rgba(44, 122, 144, 0.28)" opacity="0.9"/><rect x="-36" y="-1.5" width="72" height="3" rx="1" transform="matrix(1 0 0 1 592 504)" fill="rgba(44, 122, 144, 0.28)" opacity="0.9"/><rect x="-36" y="-1.5" width="72" height="3" rx="1" transform="matrix(1 0 0 1 592 524)" fill="rgba(44, 122, 144, 0.28)" opacity="0.9"/><rect x="-36" y="-1.5" width="72" height="3" rx="1" transform="matrix(1 0 0 1 592 544)" fill="rgba(44, 122, 144, 0.28)" opacity="0.9"/><rect x="-36" y="-1.5" width="72" height="3" rx="1" transform="matrix(1 0 0 1 688 504)" fill="#70654f" opacity="0.7"/><rect x="-36" y="-1.5" width="72" height="3" rx="1" transform="matrix(1 0 0 1 688 524)" fill="#70654f" opacity="0.7"/><rect x="-36" y="-1.5" width="72" height="3" rx="1" transform="matrix(1 0 0 1 688 544)" fill="#70654f" opacity="0.7"/><rect x="-36" y="-1.5" width="72" height="3" rx="1" transform="matrix(1 0 0 1 784 504)" fill="#70654f" opacity="0.7"/><rect x="-36" y="-1.5" width="72" height="3" rx="1" transform="matrix(1 0 0 1 784 524)" fill="#70654f" opacity="0.7"/><rect x="-36" y="-1.5" width="72" height="3" rx="1" transform="matrix(1 0 0 1 784 544)" fill="#70654f" opacity="0.7"/><rect x="-36" y="-1.5" width="72" height="3" rx="1" transform="matrix(1 0 0 1 880 504)" fill="#70654f" opacity="0.7"/><rect x="-36" y="-1.5" width="72" height="3" rx="1" transform="matrix(1 0 0 1 880 524)" fill="#70654f" opacity="0.7"/><rect x="-36" y="-1.5" width="72" height="3" rx="1" transform="matrix(1 0 0 1 880 544)" fill="#70654f" opacity="0.7"/><rect x="-36" y="-1.5" width="72" height="3" rx="1" transform="matrix(1 0 0 1 976 504)" fill="#70654f" opacity="0.7"/><rect x="-36" y="-1.5" width="72" height="3" rx="1" transform="matrix(1 0 0 1 976 524)" fill="#70654f" opacity="0.7"/><rect x="-36" y="-1.5" width="72" height="3" rx="1" transform="matrix(1 0 0 1 976 544)" fill="#70654f" opacity="0.7"/><rect x="-36" y="-1.5" width="72" height="3" rx="1" transform="matrix(1 0 0 1 592 600)" fill="#70654f" opacity="0.7"/><rect x="-36" y="-1.5" width="72" height="3" rx="1" transform="matrix(1 0 0 1 592 620)" fill="#70654f" opacity="0.7"/><rect x="-36" y="-1.5" width="72" height="3" rx="1" transform="matrix(1 0 0 1 592 640)" fill="#70654f" opacity="0.7"/><rect x="-36" y="-1.5" width="72" height="3" rx="1" transform="matrix(1 0 0 1 688 600)" fill="#70654f" opacity="0.7"/><rect x="-36" y="-1.5" width="72" height="3" rx="1" transform="matrix(1 0 0 1 688 620)" fill="#70654f" opacity="0.7"/><rect x="-36" y="-1.5" width="72" height="3" rx="1" transform="matrix(1 0 0 1 688 640)" fill="#70654f" opacity="0.7"/><circle cx="0" cy="0" r="8" transform="matrix(1 0 0 1 592 434)" fill="#467337"/><circle cx="0" cy="0" r="8" transform="matrix(1 0 0 1 688 434)" fill="#4f823e"/><circle cx="0" cy="0" r="8" transform="matrix(1 0 0 1 784 434)" fill="#4e803d"/><circle cx="0" cy="0" r="8" transform="matrix(1 0 0 1 880 434)" fill="#457136"/><circle cx="0" cy="0" r="8" transform="matrix(1 0 0 1 976 434)" fill="#4e813d"/><circle cx="0" cy="0" r="8" transform="matrix(1 0 0 1 592 530)" fill="#548a42"/><circle cx="0" cy="0" r="4" transform="matrix(1 0 0 1 592 424)" fill="#788f42" stroke="none" stroke-width="0"/><circle cx="0" cy="0" r="4" transform="matrix(1 0 0 1 688 424)" fill="#788f42" stroke="none" stroke-width="0"/><circle cx="0" cy="0" r="4" transform="matrix(1 0 0 1 784 424)" fill="#788f42" stroke="none" stroke-width="0"/><circle cx="0" cy="0" r="4" transform="matrix(1 0 0 1 880 424)" fill="#788f42" stroke="none" stroke-width="0"/><circle cx="0" cy="0" r="4" transform="matrix(1 0 0 1 976 424)" fill="#788f42" stroke="none" stroke-width="0"/><circle cx="0" cy="0" r="4" transform="matrix(1 0 0 1 592 520)" fill="#788f42" stroke="none" stroke-width="0"/><circle cx="0" cy="0" r="13" transform="matrix(1 0 0 1 592 636)" fill="rgba(35, 32, 26, 0.16)"/><rect x="-11" y="-13" width="22" height="26" rx="8" transform="matrix(1 0 0 1 592 626)" fill="#2b4257" stroke="#23201a" stroke-width="2"/><circle cx="0" cy="0" r="10" transform="matrix(1 0 0 1 592 612)" fill="#e4d8bd" stroke="#23201a" stroke-width="2"/><rect x="-15" y="-3" width="30" height="6" rx="3" transform="matrix(1 0 0 1 592 606)" fill="#94741d" stroke="#494133" stroke-width="1.5"/><rect x="-8" y="-5" width="16" height="10" rx="4" transform="matrix(1 0 0 1 592 600)" fill="#e3c054" stroke="#494133" stroke-width="1.5"/><text x="0" y="0" font-size="20" text-anchor="middle" dominant-baseline="middle" fill="#494133" transform="matrix(1 0 0 1 640 26)">spring · day 1/16 · energy 0 · coins 0/700 · sowing: Turnip</text><text x="0" y="0" font-size="16" text-anchor="middle" dominant-baseline="middle" fill="#6c6252" transform="matrix(1 0 0 1 640 700)">Spring, day 1. The fern rows wait.   ·   T till · P plant · O water · H harvest · Z sleep</text></svg>