<svg xmlns="http://www.w3.org/2000/svg" viewBox="0 0 1280 720" width="1280" height="720"><rect x="0" y="0" width="1280" height="720" fill="#e4d8bd"/><rect x="-1600" y="-900" width="3200" height="1800" transform="matrix(1 0 0 1 1335.107 275.107)" fill="#efe7d3" stroke="#b9a882" stroke-width="6"/><circle cx="0" cy="0" r="3.349" transform="matrix(1 0 0 1 -120.189 -456.011)" fill="#e0d3b4" opacity="0.47"/><circle cx="0" cy="0" r="2.498" transform="matrix(1 0 0 1 85.125 -466.665)" fill="#ddd2b8" opacity="0.366"/><circle cx="0" cy="0" r="1.918" transform="matrix(1 0 0 1 282.977 -459.539)" fill="#c0b18f" opacity="0.56"/><circle cx="0" cy="0" r="2.668" transform="matrix(1 0 0 1 444.528 -492.381)" fill="#b6a57d" opacity="0.307"/><circle cx="0" cy="0" r="1.81" transform="matrix(1 0 0 1 661.059 -496.962)" fill="#e6dbc2" opacity="0.547"/><circle cx="0" cy="0" r="3.459" transform="matrix(1 0 0 1 858.261 -452.833)" fill="#bdad89" opacity="0.384"/><circle cx="0" cy="0" r="2.913" transform="matrix(1 0 0 1 1031.593 -468.337)" fill="#bbab86" opacity="0.338"/><circle cx="0" cy="0" r="2.219" transform="matrix(1 0 0 1 1223.919 -464.512)" fill="#d4c6a4" opacity="0.458"/><circle cx="0" cy="0" r="1.682" transform="matrix(1 0 0 1 1400.507 -482.027)" fill="#ded0af" opacity="0.485"/><circle cx="0" cy="0" r="2.289" transform="matrix(1 0 0 1 1593.839 -471.649)" fill="#b5a37b" opacity="0.502"/><circle cx="0" cy="0" r="3.297" transform="matrix(1 0 0 1 1804.347 -472.239)" fill="#baa983" opacity="0.395"/><circle cx="0" cy="0" r="1.532" transform="matrix(1 0 0 1 1965.923 -450.904)" fill="#baaa85" opacity="0.489"/><circle cx="0" cy="0" r="2.772" transform="matrix(1 0 0 1 2167.729 -470.547)" fill="#b5a37b" opacity="0.577"/><circle cx="0" cy="0" r="3.449" transform="matrix(1 0 0 1 2333.208 -466.479)" fill="#b5a37b" opacity="0.467"/><circle cx="0" cy="0" r="2.486" transform="matrix(1 0 0 1 2533.951 -485.815)" fill="#d4c6a4" opacity="0.565"/><circle cx="0" cy="0" r="2.726" transform="matrix(1 0 0 1 2722.302 -487.82)" fill="#b3a077" opacity="0.536"/><circle cx="0" cy="0" r="2.676" transform="matrix(1 0 0 1 2943.766 -461.575)" fill="#d2c3a0" opacity="0.351"/><circle cx="0" cy="0" r="3.089" transform="matrix(1 0 0 1 -123.005 -297.711)" fill="#bfb08d" opacity="0.371"/><circle cx="0" cy="0" r="1.503" transform="matrix(1 0 0 1 63.959 -262.142)" fill="#b3a077" opacity="0.45"/><circle cx="0" cy="0" r="2.272" transform="matrix(1 0 0 1 253.672 -264.271)" fill="#d4c5a3" opacity="0.302"/><circle cx="0" cy="0" r="3.497" transform="matrix(1 0 0 1 453.363 -282.526)" fill="#b6a57d" opacity="0.586"/><circle cx="0" cy="0" r="1.568" transform="matrix(1 0 0 1 624.147 -272.867)" fill="#e8ddc6" opacity="0.589"/><circle cx="0" cy="0" r="1.556" transform="matrix(1 0 0 1 822.917 -266.441)" fill="#e7dcc4" opacity="0.454"/><circle cx="0" cy="0" r="2.391" transform="matrix(1 0 0 1 1003.173 -285.201)" fill="#e2d5b8" opacity="0.337"/><circle cx="0" cy="0" r="3.291" transform="matrix(1 0 0 1 1227.509 -276.798)" fill="#c0b18f" opacity="0.315"/><circle cx="0" cy="0" r="1.69" transform="matrix(1 0 0 1 1422.367 -278.392)" fill="#c0b18f" opacity="0.584"/><circle cx="0" cy="0" r="2.502" transform="matrix(1 0 0 1 1599.228 -295.338)" fill="#b29f76" opacity="0.404"/><circle cx="0" cy="0" r="1.84" transform="matrix(1 0 0 1 1801.813 -303.065)" fill="#dcd0b5" opacity="0.396"/><circle cx="0" cy="0" r="2.405" transform="matrix(1 0 0 1 1967.417 -299.005)" fill="#b9a781" opacity="0.334"/><circle cx="0" cy="0" r="2.874" transform="matrix(1 0 0 1 2154.997 -282.287)" fill="#dbcfb3" opacity="0.506"/><circle cx="0" cy="0" r="2.647" transform="matrix(1 0 0 1 2366.306 -308.718)" fill="#b29f75" opacity="0.415"/><circle cx="0" cy="0" r="2.043" transform="matrix(1 0 0 1 2553.269 -280.248)" fill="#b6a57d" opacity="0.506"/><circle cx="0" cy="0" r="2.018" transform="matrix(1 0 0 1 2757.83 -293.813)" fill="#ded3b9" opacity="0.544"/><circle cx="0" cy="0" r="3.229" transform="matrix(1 0 0 1 2915.661 -277.851)" fill="#d9cdaf" opacity="0.589"/><circle cx="0" cy="0" r="1.544" transform="matrix(1 0 0 1 -113.943 -110.867)" fill="#d5c7a6" opacity="0.339"/><circle cx="0" cy="0" r="1.986" transform="matrix(1 0 0 1 76.037 -111.833)" fill="#bbab86" opacity="0.525"/><circle cx="0" cy="0" r="1.66" transform="matrix(1 0 0 1 262.917 -97.005)" fill="#d4c5a3" opacity="0.568"/><circle cx="0" cy="0" r="2.883" transform="matrix(1 0 0 1 473.99 -108.732)" fill="#e3d6ba" opacity="0.388"/><circle cx="0" cy="0" r="1.742" transform="matrix(1 0 0 1 634.216 -115.862)" fill="#d9ccae" opacity="0.478"/><circle cx="0" cy="0" r="2.431" transform="matrix(1 0 0 1 821.548 -103.026)" fill="#e7dcc4" opacity="0.433"/><circle cx="0" cy="0" r="2.336" transform="matrix(1 0 0 1 1023.358 -112.46)" fill="#bdae8a" opacity="0.541"/><circle cx="0" cy="0" r="2.072" transform="matrix(1 0 0 1 1229.437 -83.226)" fill="#e4d9be" opacity="0.419"/><circle cx="0" cy="0" r="2.019" transform="matrix(1 0 0 1 1385.488 -90.634)" fill="#b6a57d" opacity="0.499"/><circle cx="0" cy="0" r="3.443" transform="matrix(1 0 0 1 1607.978 -95.368)" fill="#d9ccad" opacity="0.341"/><circle cx="0" cy="0" r="2.814" transform="matrix(1 0 0 1 1762.371 -94.963)" fill="#d5c7a6" opacity="0.342"/><circle cx="0" cy="0" r="1.696" transform="matrix(1 0 0 1 1997.091 -75.78)" fill="#b6a57d" opacity="0.32"/><circle cx="0" cy="0" r="3.476" transform="matrix(1 0 0 1 2183.514 -78.997)" fill="#dcd1b5" opacity="0.488"/><circle cx="0" cy="0" r="2.725" transform="matrix(1 0 0 1 2370.954 -74.012)" fill="#dbcfb3" opacity="0.429"/><circle cx="0" cy="0" r="1.633" transform="matrix(1 0 0 1 2545.106 -72.625)" fill="#e0d2b2" opacity="0.358"/><circle cx="0" cy="0" r="1.798" transform="matrix(1 0 0 1 2726.518 -94.714)" fill="#baa983" opacity="0.55"/><circle cx="0" cy="0" r="3.415" transform="matrix(1 0 0 1 2930.508 -100.982)" fill="#d8caab" opacity="0.308"/><circle cx="0" cy="0" r="3.185" transform="matrix(1 0 0 1 -114.406 108.765)" fill="#ddd1b6" opacity="0.394"/><circle cx="0" cy="0" r="3.151" transform="matrix(1 0 0 1 57.293 96.618)" fill="#e7ddc5" opacity="0.537"/><circle cx="0" cy="0" r="2.069" transform="matrix(1 0 0 1 259.648 118.228)" fill="#b9a882" opacity="0.39"/><circle cx="0" cy="0" r="2.244" transform="matrix(1 0 0 1 451.978 85.811)" fill="#e2d5b8" opacity="0.522"/><circle cx="0" cy="0" r="1.761" transform="matrix(1 0 0 1 629.717 88.78)" fill="#e9dfc9" opacity="0.471"/><circle cx="0" cy="0" r="2.098" transform="matrix(1 0 0 1 835.766 88.824)" fill="#d4c6a4" opacity="0.569"/><circle cx="0" cy="0" r="2.408" transform="matrix(1 0 0 1 1028.64 86.175)" fill="#e1d4b7" opacity="0.407"/><circle cx="0" cy="0" r="1.96" transform="matrix(1 0 0 1 1214.171 90.946)" fill="#e9dfc8" opacity="0.487"/><circle cx="0" cy="0" r="2.78" transform="matrix(1 0 0 1 1416.43 104.075)" fill="#e5d9bf" opacity="0.307"/><circle cx="0" cy="0" r="3.479" transform="matrix(1 0 0 1 1611.128 84.786)" fill="#ddd1b6" opacity="0.455"/><circle cx="0" cy="0" r="2.377" transform="matrix(1 0 0 1 1766.915 107.311)" fill="#e2d5b7" opacity="0.306"/><circle cx="0" cy="0" r="2.397" transform="matrix(1 0 0 1 1982.147 72.016)" fill="#bcac88" opacity="0.393"/><circle cx="0" cy="0" r="2.385" transform="matrix(1 0 0 1 2158.557 99.722)" fill="#b4a279" opacity="0.455"/><circle cx="0" cy="0" r="3.102" transform="matrix(1 0 0 1 2341.931 104.187)" fill="#b2a076" opacity="0.373"/><circle cx="0" cy="0" r="3.342" transform="matrix(1 0 0 1 2536.333 108.77)" fill="#dfd0b0" opacity="0.384"/><circle cx="0" cy="0" r="3.167" transform="matrix(1 0 0 1 2758.657 84.763)" fill="#d4c6a4" opacity="0.372"/><circle cx="0" cy="0" r="3.431" transform="matrix(1 0 0 1 2909.556 94.239)" fill="#b5a37b" opacity="0.436"/><circle cx="0" cy="0" r="3.093" transform="matrix(1 0 0 1 -114.552 288.294)" fill="#d6c9a9" opacity="0.408"/><circle cx="0" cy="0" r="3.498" transform="matrix(1 0 0 1 72.798 287.79)" fill="#e8dec6" opacity="0.507"/><circle cx="0" cy="0" r="1.931" transform="matrix(1 0 0 1 283.812 281.388)" fill="#bfb08e" opacity="0.551"/><circle cx="0" cy="0" r="1.901" transform="matrix(1 0 0 1 473.936 296.231)" fill="#b29f75" opacity="0.423"/><circle cx="0" cy="0" r="3.332" transform="matrix(1 0 0 1 648.164 275.175)" fill="#e1d3b5" opacity="0.343"/><circle cx="0" cy="0" r="3.07" transform="matrix(1 0 0 1 813.3 272.689)" fill="#d4c6a4" opacity="0.305"/><circle cx="0" cy="0" r="3.211" transform="matrix(1 0 0 1 1037.035 283.512)" fill="#e1d4b6" opacity="0.368"/><circle cx="0" cy="0" r="3.373" transform="matrix(1 0 0 1 1192.84 284.084)" fill="#bbaa86" opacity="0.562"/><circle cx="0" cy="0" r="3.194" transform="matrix(1 0 0 1 1420.519 276.858)" fill="#e0d3b4" opacity="0.364"/><circle cx="0" cy="0" r="3.019" transform="matrix(1 0 0 1 1589.188 298.726)" fill="#ded0af" opacity="0.339"/><circle cx="0" cy="0" r="1.574" transform="matrix(1 0 0 1 1766.759 302.626)" fill="#bbaa85" opacity="0.465"/><circle cx="0" cy="0" r="3.465" transform="matrix(1 0 0 1 1977.422 266.17)" fill="#dfd1b1" opacity="0.553"/><circle cx="0" cy="0" r="3.041" transform="matrix(1 0 0 1 2171.77 297.092)" fill="#b6a47d" opacity="0.473"/><circle cx="0" cy="0" r="3.206" transform="matrix(1 0 0 1 2373.645 295.202)" fill="#bdad89" opacity="0.505"/><circle cx="0" cy="0" r="2.573" transform="matrix(1 0 0 1 2529.13 301.096)" fill="#dcd1b5" opacity="0.45"/><circle cx="0" cy="0" r="1.53" transform="matrix(1 0 0 1 2725.543 280.153)" fill="#e3d6ba" opacity="0.439"/><circle cx="0" cy="0" r="2.741" transform="matrix(1 0 0 1 2939.454 286.226)" fill="#dfd1b1" opacity="0.304"/><circle cx="0" cy="0" r="1.634" transform="matrix(1 0 0 1 -105.14 487.967)" fill="#e4d8bd" opacity="0.411"/><circle cx="0" cy="0" r="2.436" transform="matrix(1 0 0 1 94.424 491.335)" fill="#e2d5b8" opacity="0.594"/><circle cx="0" cy="0" r="2.6" transform="matrix(1 0 0 1 241.482 481.831)" fill="#e0d2b3" opacity="0.477"/><circle cx="0" cy="0" r="1.873" transform="matrix(1 0 0 1 458.859 457.04)" fill="#b8a780" opacity="0.452"/><circle cx="0" cy="0" r="2.32" transform="matrix(1 0 0 1 639.105 490.738)" fill="#ddd2b7" opacity="0.307"/><circle cx="0" cy="0" r="2.569" transform="matrix(1 0 0 1 814.084 470.104)" fill="#c0b18e" opacity="0.337"/><circle cx="0" cy="0" r="1.505" transform="matrix(1 0 0 1 1018.045 477.809)" fill="#d7caab" opacity="0.537"/><circle cx="0" cy="0" r="3.384" transform="matrix(1 0 0 1 1216.39 464.941)" fill="#bdad88" opacity="0.559"/><circle cx="0" cy="0" r="1.695" transform="matrix(1 0 0 1 1385.529 494.023)" fill="#beae8a" opacity="0.36"/><circle cx="0" cy="0" r="2.199" transform="matrix(1 0 0 1 1587.471 464.625)" fill="#bdad89" opacity="0.492"/><circle cx="0" cy="0" r="3.498" transform="matrix(1 0 0 1 1804.21 457.911)" fill="#dfd0b0" opacity="0.301"/><circle cx="0" cy="0" r="1.619" transform="matrix(1 0 0 1 1964.72 475.171)" fill="#b9a882" opacity="0.564"/><circle cx="0" cy="0" r="2.978" transform="matrix(1 0 0 1 2184.801 476.983)" fill="#d8cbac" opacity="0.358"/><circle cx="0" cy="0" r="1.875" transform="matrix(1 0 0 1 2351.368 464.093)" fill="#e3d7bb" opacity="0.594"/><circle cx="0" cy="0" r="1.662" transform="matrix(1 0 0 1 2552.062 461.356)" fill="#ddd2b7" opacity="0.551"/><circle cx="0" cy="0" r="2.26" transform="matrix(1 0 0 1 2752.786 487.7)" fill="#bbab86" opacity="0.524"/><circle cx="0" cy="0" r="2.541" transform="matrix(1 0 0 1 2947.352 456.432)" fill="#e4d7bc" opacity="0.403"/><circle cx="0" cy="0" r="1.556" transform="matrix(1 0 0 1 -137.746 671.207)" fill="#b4a27a" opacity="0.6"/><circle cx="0" cy="0" r="3.099" transform="matrix(1 0 0 1 89.253 684.236)" fill="#b6a47d" opacity="0.374"/><circle cx="0" cy="0" r="3.278" transform="matrix(1 0 0 1 283.428 654.49)" fill="#bbaa85" opacity="0.345"/><circle cx="0" cy="0" r="2.472" transform="matrix(1 0 0 1 464.368 672.289)" fill="#d9ccae" opacity="0.429"/><circle cx="0" cy="0" r="2.123" transform="matrix(1 0 0 1 650.628 648.658)" fill="#ddd1b6" opacity="0.542"/><circle cx="0" cy="0" r="1.948" transform="matrix(1 0 0 1 812.73 669.527)" fill="#d4c5a3" opacity="0.313"/><circle cx="0" cy="0" r="1.64" transform="matrix(1 0 0 1 1033.426 671.878)" fill="#b3a076" opacity="0.323"/><circle cx="0" cy="0" r="3.276" transform="matrix(1 0 0 1 1227.33 680.938)" fill="#beaf8b" opacity="0.341"/><circle cx="0" cy="0" r="1.54" transform="matrix(1 0 0 1 1427.441 675.005)" fill="#baaa84" opacity="0.566"/><circle cx="0" cy="0" r="1.929" transform="matrix(1 0 0 1 1604.806 680.077)" fill="#eae0cb" opacity="0.333"/><circle cx="0" cy="0" r="2.797" transform="matrix(1 0 0 1 1782.464 676.152)" fill="#e0d3b4" opacity="0.313"/><circle cx="0" cy="0" r="1.62" transform="matrix(1 0 0 1 1960.623 670.456)" fill="#baa984" opacity="0.55"/><circle cx="0" cy="0" r="3.167" transform="matrix(1 0 0 1 2188.413 667.51)" fill="#b3a077" opacity="0.317"/><circle cx="0" cy="0" r="2.225" transform="matrix(1 0 0 1 2376.825 656.081)" fill="#dcd1b5" opacity="0.424"/><circle cx="0" cy="0" r="2.253" transform="matrix(1 0 0 1 2528.982 688.224)" fill="#b7a57e" opacity="0.378"/><circle cx="0" cy="0" r="2.864" transform="matrix(1 0 0 1 2717.72 677.506)" fill="#e3d7bb" opacity="0.432"/><circle cx="0" cy="0" r="3.342" transform="matrix(1 0 0 1 2930.515 674.575)" fill="#b7a67f" opacity="0.433"/><circle cx="0" cy="0" r="2.003" transform="matrix(1 0 0 1 -126.262 870.846)" fill="#e4d8bd" opacity="0.366"/><circle cx="0" cy="0" r="1.997" transform="matrix(1 0 0 1 96.623 861.825)" fill="#d8cbac" opacity="0.403"/><circle cx="0" cy="0" r="2.78" transform="matrix(1 0 0 1 243.264 854.912)" fill="#beae8a" opacity="0.434"/><circle cx="0" cy="0" r="3.456" transform="matrix(1 0 0 1 439.128 848.15)" fill="#d3c4a1" opacity="0.542"/><circle cx="0" cy="0" r="1.505" transform="matrix(1 0 0 1 621.372 872.783)" fill="#ddd2b6" opacity="0.504"/><circle cx="0" cy="0" r="2.996" transform="matrix(1 0 0 1 852.946 858.713)" fill="#b9a983" opacity="0.554"/><circle cx="0" cy="0" r="2.987" transform="matrix(1 0 0 1 1008.703 863.881)" fill="#e2d4b7" opacity="0.316"/><circle cx="0" cy="0" r="2.692" transform="matrix(1 0 0 1 1224.276 860.733)" fill="#e5dac0" opacity="0.301"/><circle cx="0" cy="0" r="1.647" transform="matrix(1 0 0 1 1413.321 861.392)" fill="#d7caaa" opacity="0.506"/><circle cx="0" cy="0" r="3.327" transform="matrix(1 0 0 1 1576.493 849.46)" fill="#d3c5a2" opacity="0.31"/><circle cx="0" cy="0" r="2.772" transform="matrix(1 0 0 1 1797.246 847.923)" fill="#e0d3b4" opacity="0.376"/><circle cx="0" cy="0" r="1.737" transform="matrix(1 0 0 1 1976.54 832.526)" fill="#d9ccae" opacity="0.339"/><circle cx="0" cy="0" r="2.269" transform="matrix(1 0 0 1 2168.23 858.634)" fill="#d2c3a0" opacity="0.346"/><circle cx="0" cy="0" r="3.471" transform="matrix(1 0 0 1 2346.368 863.708)" fill="#dfd1b1" opacity="0.348"/><circle cx="0" cy="0" r="2.875" transform="matrix(1 0 0 1 2554.472 852.632)" fill="#bfb08d" opacity="0.482"/><circle cx="0" cy="0" r="3.24" transform="matrix(1 0 0 1 2752.985 865.548)" fill="#b6a47c" opacity="0.499"/><circle cx="0" cy="0" r="2.24" transform="matrix(1 0 0 1 2941.299 832.13)" fill="#dcd1b5" opacity="0.415"/><circle cx="0" cy="0" r="3.147" transform="matrix(1 0 0 1 -123.267 1060.917)" fill="#e6dbc1" opacity="0.541"/><circle cx="0" cy="0" r="3.014" transform="matrix(1 0 0 1 66.78 1042.561)" fill="#d6c9a8" opacity="0.596"/><circle cx="0" cy="0" r="2.917" transform="matrix(1 0 0 1 251.734 1041.146)" fill="#eae1cb" opacity="0.306"/><circle cx="0" cy="0" r="2.105" transform="matrix(1 0 0 1 439.052 1047.756)" fill="#ddd1b6" opacity="0.487"/><circle cx="0" cy="0" r="3.021" transform="matrix(1 0 0 1 651.554 1058.236)" fill="#e8ddc6" opacity="0.594"/><circle cx="0" cy="0" r="3.117" transform="matrix(1 0 0 1 858.606 1057.596)" fill="#dcd0b4" opacity="0.488"/><circle cx="0" cy="0" r="3.332" transform="matrix(1 0 0 1 1031.481 1044.509)" fill="#bfb08d" opacity="0.306"/><circle cx="0" cy="0" r="3.242" transform="matrix(1 0 0 1 1206.99 1051.871)" fill="#d4c5a3" opacity="0.469"/><circle cx="0" cy="0" r="1.892" transform="matrix(1 0 0 1 1413.732 1036.699)" fill="#d2c39f" opacity="0.301"/><circle cx="0" cy="0" r="1.75" transform="matrix(1 0 0 1 1604.136 1045.794)" fill="#bfb08e" opacity="0.521"/><circle cx="0" cy="0" r="2.136" transform="matrix(1 0 0 1 1792.812 1030.188)" fill="#e4d8be" opacity="0.569"/><circle cx="0" cy="0" r="1.853" transform="matrix(1 0 0 1 1981.145 1056.081)" fill="#c0b08e" opacity="0.423"/><circle cx="0" cy="0" r="2.155" transform="matrix(1 0 0 1 2170.086 1038.836)" fill="#d9ccae" opacity="0.361"/><circle cx="0" cy="0" r="2.911" transform="matrix(1 0 0 1 2359.455 1057.252)" fill="#dfd0b0" opacity="0.593"/><circle cx="0" cy="0" r="2.526" transform="matrix(1 0 0 1 2536.504 1046.708)" fill="#dbceb1" opacity="0.512"/><circle cx="0" cy="0" r="2.802" transform="matrix(1 0 0 1 2724.593 1066.411)" fill="#daceb0" opacity="0.5"/><circle cx="0" cy="0" r="2.325" transform="matrix(1 0 0 1 2918.344 1025.5)" fill="#b6a57d" opacity="0.374"/><path d="M 220 240 C 276.61 254.03, 464.16 260.14, 559.66 324.16 C 655.15 388.18, 687.95 579.45, 792.98 624.11 C 898.02 668.77, 1080.88 555.49, 1189.87 592.12 C 1298.87 628.74, 1351.57 779.62, 1446.95 843.86 C 1542.34 908.11, 1656.74 933.76, 1762.2 977.56 C 1867.65 1021.37, 1974.32 1062.73, 2079.68 1106.72 C 2185.05 1150.71, 2291.34 1192.82, 2394.4 1241.5 C 2497.45 1290.19, 2600.39 1339.1, 2697.99 1398.85 C 2795.59 1458.6, 2933 1566.47, 2980 1600" transform="matrix(1 0 0 1 -264.893 -624.893)" fill="none" stroke="#b9a882" stroke-width="58" opacity="0.55"/><path d="M 220 240 C 276.61 254.03, 464.16 260.14, 559.66 324.16 C 655.15 388.18, 687.95 579.45, 792.98 624.11 C 898.02 668.77, 1080.88 555.49, 1189.87 592.12 C 1298.87 628.74, 1351.57 779.62, 1446.95 843.86 C 1542.34 908.11, 1656.74 933.76, 1762.2 977.56 C 1867.65 1021.37, 1974.32 1062.73, 2079.68 1106.72 C 2185.05 1150.71, 2291.34 1192.82, 2394.4 1241.5 C 2497.45 1290.19, 2600.39 1339.1, 2697.99 1398.85 C 2795.59 1458.6, 2933 1566.47, 2980 1600" transform="matrix(1 0 0 1 -264.893 -624.893)" fill="none" stroke="#f3ecdb" stroke-width="30" opacity="0.9"/><circle cx="0" cy="0" r="15" transform="matrix(1 0 0 1 507.758 52.479)" fill="rgba(35, 32, 26, 0.16)"/><circle cx="0" cy="0" r="15" transform="matrix(1 0 0 1 1476.973 405.935)" fill="rgba(35, 32, 26, 0.16)"/><circle cx="0" cy="0" r="38.151" transform="matrix(1 0 0 1 449.907 -369.325)" fill="rgba(35, 32, 26, 0.16)"/><circle cx="0" cy="0" r="22.237" transform="matrix(1 0 0 1 683.255 -360.231)" fill="rgba(35, 32, 26, 0.14)"/><circle cx="0" cy="0" r="28.135" transform="matrix(1 0 0 1 881.593 -394.163)" fill="rgba(35, 32, 26, 0.14)"/><circle cx="0" cy="0" r="43.523" transform="matrix(1 0 0 1 1164.833 -432.775)" fill="rgba(35, 32, 26, 0.16)"/><circle cx="0" cy="0" r="21.068" transform="matrix(1 0 0 1 1453.827 -348.36)" fill="rgba(35, 32, 26, 0.14)"/><circle cx="0" cy="0" r="32.183" transform="matrix(1 0 0 1 2012.305 -375.39)" fill="rgba(35, 32, 26, 0.16)"/><circle cx="0" cy="0" r="22.308" transform="matrix(1 0 0 1 2450.515 -460.151)" fill="rgba(35, 32, 26, 0.14)"/><circle cx="0" cy="0" r="37.71" transform="matrix(1 0 0 1 2685.333 -409.618)" fill="rgba(35, 32, 26, 0.16)"/><circle cx="0" cy="0" r="40.072" transform="matrix(1 0 0 1 -45.69 -140.65)" fill="rgba(35, 32, 26, 0.16)"/><circle cx="0" cy="0" r="26.538" transform="matrix(1 0 0 1 1139.694 -88.846)" fill="rgba(35, 32, 26, 0.14)"/><circle cx="0" cy="0" r="43.455" transform="matrix(1 0 0 1 1481.535 -190.332)" fill="rgba(35, 32, 26, 0.16)"/><circle cx="0" cy="0" r="19.408" transform="matrix(1 0 0 1 1689.524 -223.39)" fill="rgba(35, 32, 26, 0.14)"/><circle cx="0" cy="0" r="26.667" transform="matrix(1 0 0 1 1962.907 -194.556)" fill="rgba(35, 32, 26, 0.14)"/><circle cx="0" cy="0" r="42.697" transform="matrix(1 0 0 1 2532.326 -156.914)" fill="rgba(35, 32, 26, 0.16)"/><circle cx="0" cy="0" r="19.51" transform="matrix(1 0 0 1 2747.59 -194.3)" fill="rgba(35, 32, 26, 0.14)"/><circle cx="0" cy="0" r="26.994" transform="matrix(1 0 0 1 1456.909 34.623)" fill="rgba(35, 32, 26, 0.14)"/><circle cx="0" cy="0" r="21.468" transform="matrix(1 0 0 1 1701.517 68.287)" fill="rgba(35, 32, 26, 0.14)"/><circle cx="0" cy="0" r="25.857" transform="matrix(1 0 0 1 1894.866 169.924)" fill="rgba(35, 32, 26, 0.14)"/><circle cx="0" cy="0" r="22.676" transform="matrix(1 0 0 1 2199.8 173.439)" fill="rgba(35, 32, 26, 0.14)"/><circle cx="0" cy="0" r="27.71" transform="matrix(1 0 0 1 2428.427 117.427)" fill="rgba(35, 32, 26, 0.14)"/><circle cx="0" cy="0" r="18.07" transform="matrix(1 0 0 1 -65.501 361.802)" fill="rgba(35, 32, 26, 0.14)"/><circle cx="0" cy="0" r="36.547" transform="matrix(1 0 0 1 482.378 400.261)" fill="rgba(35, 32, 26, 0.16)"/><circle cx="0" cy="0" r="20.461" transform="matrix(1 0 0 1 778.794 339.653)" fill="rgba(35, 32, 26, 0.14)"/><circle cx="0" cy="0" r="21.409" transform="matrix(1 0 0 1 1764.247 400.613)" fill="rgba(35, 32, 26, 0.14)"/><circle cx="0" cy="0" r="25.337" transform="matrix(1 0 0 1 1974.416 381.38)" fill="rgba(35, 32, 26, 0.14)"/><circle cx="0" cy="0" r="21.114" transform="matrix(1 0 0 1 2396.437 315.969)" fill="rgba(35, 32, 26, 0.14)"/><circle cx="0" cy="0" r="26.482" transform="matrix(1 0 0 1 -85.432 559.905)" fill="rgba(35, 32, 26, 0.14)"/><circle cx="0" cy="0" r="28.825" transform="matrix(1 0 0 1 642.263 684.878)" fill="rgba(35, 32, 26, 0.14)"/><circle cx="0" cy="0" r="38.727" transform="matrix(1 0 0 1 1228.057 603.86)" fill="rgba(35, 32, 26, 0.16)"/><circle cx="0" cy="0" r="27.873" transform="matrix(1 0 0 1 1435.124 598.517)" fill="rgba(35, 32, 26, 0.14)"/><circle cx="0" cy="0" r="24.137" transform="matrix(1 0 0 1 2515.163 571.705)" fill="rgba(35, 32, 26, 0.14)"/><circle cx="0" cy="0" r="21.305" transform="matrix(1 0 0 1 15.71 934.336)" fill="rgba(35, 32, 26, 0.14)"/><circle cx="0" cy="0" r="20.979" transform="matrix(1 0 0 1 749.354 821.236)" fill="rgba(35, 32, 26, 0.14)"/><circle cx="0" cy="0" r="39.192" transform="matrix(1 0 0 1 1137.527 959.546)" fill="rgba(35, 32, 26, 0.16)"/><circle cx="0" cy="0" r="20.422" transform="matrix(1 0 0 1 1393.968 888.453)" fill="rgba(35, 32, 26, 0.14)"/><circle cx="0" cy="0" r="33.225" transform="matrix(1 0 0 1 1944 942.711)" fill="rgba(35, 32, 26, 0.16)"/><circle cx="0" cy="0" r="40.061" transform="matrix(1 0 0 1 2286.036 926.711)" fill="rgba(35, 32, 26, 0.16)"/><circle cx="0" cy="0" r="137.6" transform="matrix(1 0 0 1 2715.107 975.107)" fill="rgba(227, 192, 84, 0.15000000000000002)"/><circle cx="0" cy="0" r="110.4" transform="matrix(1 0 0 1 2715.107 975.107)" fill="rgba(227, 192, 84, 0.1)"/><circle cx="0" cy="0" r="83.2" transform="matrix(1 0 0 1 2715.107 975.107)" fill="rgba(227, 192, 84, 0.05)"/><rect x="-7" y="-11" width="14" height="22" rx="3" transform="matrix(1 0 0 1 507.758 40.479)" fill="#6c6252" stroke="#494133" stroke-width="2"/><rect x="-4.5" y="-4.5" width="9" height="9" rx="2" transform="matrix(1 0 0 1 507.758 35.479)" fill="#e3c054"/><rect x="-7" y="-11" width="14" height="22" rx="3" transform="matrix(1 0 0 1 1476.973 393.935)" fill="#6c6252" stroke="#494133" stroke-width="2"/><rect x="-4.5" y="-4.5" width="9" height="9" rx="2" transform="matrix(1 0 0 1 1476.973 388.935)" fill="#e3c054"/><path d="M 557.09 148.46 C 557.84 146.37, 560.08 139.74, 561.57 135.96 C 563.07 132.17, 565.31 127.43, 566.05 125.73" transform="matrix(1 0 0 1 -264.893 -624.893)" fill="none" stroke="#88b059" stroke-width="3.269" opacity="0.9"/><path d="M 545.56 148.46 C 545.7 146.78, 546.09 141.43, 546.36 138.38 C 546.62 135.32, 547.02 131.5, 547.15 130.13" transform="matrix(1 0 0 1 -264.893 -624.893)" fill="none" stroke="#88b059" stroke-width="2.814" opacity="0.9"/><path d="M 543.45 148.46 C 543.79 146.58, 544.81 140.63, 545.5 137.22 C 546.18 133.82, 547.21 129.57, 547.55 128.03" transform="matrix(1 0 0 1 -264.893 -624.893)" fill="none" stroke="#88b059" stroke-width="2.518" opacity="0.9"/><path d="M 542.69 148.46 C 542.99 146.63, 543.87 140.84, 544.45 137.52 C 545.04 134.21, 545.92 130.07, 546.21 128.58" transform="matrix(1 0 0 1 -264.893 -624.893)" fill="none" stroke="#88b059" stroke-width="3.2" opacity="0.9"/><path d="M 549.48 148.46 C 550.18 146.55, 552.25 140.48, 553.64 137.01 C 555.02 133.55, 557.1 129.21, 557.79 127.65" transform="matrix(1 0 0 1 -264.893 -624.893)" fill="none" stroke="#88b059" stroke-width="2.149" opacity="0.9"/><rect x="-6" y="-16.691" width="12" height="33.382" rx="3" transform="matrix(1 0 0 1 443.907 -378.862)" fill="#6e6454" stroke="#494133" stroke-width="1.5"/><path d="M 51.7 0 C 51.15 9.22, 38.3 17.1, 31.3 26.26 C 24.3 35.42, 19.36 51.63, 9.69 54.97 C 0.02 58.31, -16.41 52.3, -26.73 46.3 C -37.05 40.31, -50.07 29.12, -52.22 19.01 C -54.36 8.89, -43.6 -3.11, -39.59 -14.41 C -35.59 -25.71, -36.05 -43.97, -28.18 -48.8 C -20.3 -53.64, -2.81 -46.73, 7.66 -43.44 C 18.12 -40.14, 27.28 -36.29, 34.62 -29.05 C 41.96 -21.81, 52.26 -9.22, 51.7 0 Z" transform="matrix(1 0 0 1 443.907 -405.091)" fill="#456f35" stroke="#23201a" stroke-width="2"/><path d="M 19.02 0 C 17.99 6.36, 16.32 10.75, 12.13 15.21 C 7.94 19.67, -1.16 27.88, -6.1 26.75 C -11.05 25.62, -14.68 14.75, -17.52 8.44 C -20.36 2.12, -24.78 -4.19, -23.12 -11.13 C -21.46 -18.07, -14.48 -31.23, -7.58 -33.2 C -0.67 -35.17, 13.88 -28.5, 18.32 -22.97 C 22.75 -17.43, 20.05 -6.36, 19.02 0 Z" transform="matrix(1 0 0 1 429.601 -420.352)" fill="#6f9446" opacity="0.7"/><path d="M 22.2 0 C 22.68 7.25, 26.92 19.13, 23.22 23.22 C 19.52 27.3, 7.13 25.11, 0 24.5 C -7.13 23.89, -15.4 23.64, -19.56 19.56 C -23.72 15.48, -25.06 6.45, -24.99 0 C -24.92 -6.45, -23.3 -14.29, -19.14 -19.14 C -14.97 -23.99, -6.57 -28.9, 0 -29.09 C 6.57 -29.29, 16.6 -25.15, 20.3 -20.3 C 24 -15.45, 21.71 -7.25, 22.2 0 Z" transform="matrix(1 0 0 1 683.255 -373.311)" fill="#819c4a" stroke="#494133" stroke-width="1.5"/><path d="M 13.36 0 C 13.38 4.44, 10.79 12.05, 7.76 13.44 C 4.73 14.84, -2.01 10.6, -4.83 8.36 C -7.65 6.12, -9.18 2.75, -9.16 0 C -9.13 -2.75, -7.49 -5.93, -4.69 -8.13 C -1.9 -10.33, 4.61 -14.55, 7.62 -13.2 C 10.63 -11.84, 13.33 -4.44, 13.36 0 Z" transform="matrix(1 0 0 1 675.93 -380.636)" fill="#a2b475" opacity="0.75"/><path d="M 37.24 0 C 37.67 8.25, 32.24 20.16, 26.03 26.03 C 19.82 31.9, 9.3 34.59, 0 35.21 C -9.3 35.83, -24.33 35.62, -29.75 29.75 C -35.18 23.89, -32.61 9.85, -32.55 0 C -32.48 -9.85, -34.79 -22.5, -29.37 -29.37 C -23.95 -36.24, -8.8 -42.21, 0 -41.22 C 8.8 -40.23, 17.24 -30.31, 23.44 -23.44 C 29.65 -16.57, 36.81 -8.25, 37.24 0 Z" transform="matrix(1 0 0 1 881.593 -410.713)" fill="#89a04c" stroke="#494133" stroke-width="1.5"/><path d="M 12.85 0 C 12.87 5.25, 12.29 14.17, 9.16 15.87 C 6.04 17.58, -2.16 12.89, -5.91 10.24 C -9.67 7.6, -12.56 4.8, -13.36 0 C -14.16 -4.8, -14.44 -15.95, -10.71 -18.55 C -6.98 -21.15, 5.09 -18.71, 9.02 -15.62 C 12.95 -12.53, 12.82 -5.25, 12.85 0 Z" transform="matrix(1 0 0 1 872.325 -419.981)" fill="#a8b776" opacity="0.75"/><rect x="-6" y="-19.041" width="12" height="38.083" rx="3" transform="matrix(1 0 0 1 1158.833 -443.655)" fill="#746958" stroke="#494133" stroke-width="1.5"/><path d="M 54.43 0 C 54.07 11.07, 45.93 22.96, 38.51 32.32 C 31.09 41.67, 21.36 52.77, 9.9 56.12 C -1.57 59.48, -19.65 58.53, -30.28 52.45 C -40.91 46.36, -51.66 31, -53.89 19.61 C -56.11 8.22, -47.45 -3.68, -43.63 -15.88 C -39.81 -28.08, -40.04 -45.99, -30.95 -53.61 C -21.87 -61.24, -1.07 -64.87, 10.87 -61.62 C 22.8 -58.37, 33.39 -44.38, 40.65 -34.11 C 47.91 -23.84, 54.79 -11.07, 54.43 0 Z" transform="matrix(1 0 0 1 1158.833 -473.578)" fill="#4a7d3c" stroke="#23201a" stroke-width="2"/><path d="M 27.23 0 C 27.66 8.58, 27.35 22.95, 21.8 27.34 C 16.26 31.74, 3.44 28.13, -6.02 26.37 C -15.48 24.62, -31.25 23.49, -34.95 16.83 C -38.65 10.17, -33.19 -7.03, -28.22 -13.59 C -23.25 -20.14, -13.05 -20.74, -5.13 -22.5 C 2.78 -24.26, 13.86 -27.9, 19.26 -24.15 C 24.65 -20.4, 26.81 -8.58, 27.23 0 Z" transform="matrix(1 0 0 1 1142.512 -490.987)" fill="#719a49" opacity="0.7"/><path d="M 28.9 0 C 29.14 5.87, 23.15 14.15, 18.34 18.34 C 13.52 22.52, 6.03 25.21, 0 25.13 C -6.03 25.04, -13.73 22.03, -17.84 17.84 C -21.96 13.66, -24.78 5.87, -24.71 0 C -24.63 -5.87, -21.51 -12.77, -17.4 -17.4 C -13.28 -22.02, -5.72 -27.82, 0 -27.74 C 5.72 -27.66, 12.08 -21.52, 16.9 -16.9 C 21.72 -12.28, 28.66 -5.87, 28.9 0 Z" transform="matrix(1 0 0 1 1453.827 -360.753)" fill="#839f4b" stroke="#494133" stroke-width="1.5"/><path d="M 10.85 0 C 10.89 4.31, 10.19 11.83, 7.6 13.17 C 5.02 14.51, -1.19 10.26, -4.66 8.06 C -8.12 5.87, -12.93 3.09, -13.16 0 C -13.4 -3.09, -9.46 -8.36, -6.05 -10.47 C -2.63 -12.59, 4.51 -14.44, 7.33 -12.69 C 10.14 -10.95, 10.8 -4.31, 10.85 0 Z" transform="matrix(1 0 0 1 1446.887 -367.693)" fill="#a3b675" opacity="0.75"/><path d="M 1980.48 203.97 C 1980.75 202.07, 1981.56 196.02, 1982.1 192.57 C 1982.63 189.11, 1983.44 184.8, 1983.71 183.24" transform="matrix(1 0 0 1 -264.893 -624.893)" fill="none" stroke="#8ab460" stroke-width="2.827" opacity="0.9"/><path d="M 1980.66 203.97 C 1980.55 201.66, 1980.2 194.33, 1979.97 190.14 C 1979.74 185.95, 1979.39 180.71, 1979.28 178.82" transform="matrix(1 0 0 1 -264.893 -624.893)" fill="none" stroke="#8ab460" stroke-width="2.496" opacity="0.9"/><path d="M 1975.37 203.97 C 1975.08 202.19, 1974.19 196.51, 1973.6 193.27 C 1973.01 190.02, 1972.13 185.97, 1971.84 184.51" transform="matrix(1 0 0 1 -264.893 -624.893)" fill="none" stroke="#8ab460" stroke-width="2.245" opacity="0.9"/><rect x="-6" y="-14.08" width="12" height="28.16" rx="3" transform="matrix(1 0 0 1 2006.305 -383.435)" fill="#6d6353" stroke="#494133" stroke-width="1.5"/><path d="M 41.16 0 C 41.52 9.95, 42.57 25.45, 36.64 30.75 C 30.72 36.04, 15.66 30.04, 5.6 31.76 C -4.46 33.48, -17 44.25, -23.71 41.06 C -30.41 37.87, -33.06 21.46, -34.63 12.61 C -36.2 3.75, -35.51 -4.09, -33.13 -12.06 C -30.74 -20.02, -26.82 -31.6, -20.31 -35.18 C -13.81 -38.76, -3.22 -34.58, 5.91 -33.54 C 15.05 -32.5, 28.63 -34.54, 34.5 -28.95 C 40.38 -23.36, 40.8 -9.95, 41.16 0 Z" transform="matrix(1 0 0 1 2006.305 -405.561)" fill="#3e6d34" stroke="#23201a" stroke-width="2"/><path d="M 20.42 0 C 20.78 5.48, 18.28 14.99, 14.23 17.84 C 10.17 20.68, 1.95 18.36, -3.89 17.06 C -9.74 15.76, -18.8 14.16, -20.82 10.03 C -22.85 5.9, -18.6 -2.12, -16.03 -7.72 C -13.45 -13.32, -10.06 -22.36, -5.38 -23.59 C -0.71 -24.81, 7.71 -19, 12.01 -15.07 C 16.31 -11.13, 20.05 -5.48, 20.42 0 Z" transform="matrix(1 0 0 1 1994.237 -418.434)" fill="#6c9346" opacity="0.7"/><path d="M 2400.43 181.61 C 2400.58 180, 2401.03 174.88, 2401.33 171.96 C 2401.64 169.03, 2402.09 165.38, 2402.24 164.06" transform="matrix(1 0 0 1 -264.893 -624.893)" fill="none" stroke="#809949" stroke-width="2.728" opacity="0.9"/><path d="M 2411.4 181.61 C 2411.27 179.03, 2410.88 170.81, 2410.63 166.11 C 2410.37 161.42, 2409.98 155.55, 2409.85 153.43" transform="matrix(1 0 0 1 -264.893 -624.893)" fill="none" stroke="#809949" stroke-width="2.039" opacity="0.9"/><path d="M 2397.4 181.61 C 2397.18 179.39, 2396.53 172.33, 2396.09 168.29 C 2395.66 164.26, 2395 159.21, 2394.78 157.4" transform="matrix(1 0 0 1 -264.893 -624.893)" fill="none" stroke="#809949" stroke-width="2.849" opacity="0.9"/><path d="M 21.5 0 C 21.01 5.76, 19.39 10.93, 15.8 15.8 C 12.22 20.68, 5.68 28.86, 0 29.28 C -5.68 29.69, -12.96 23.18, -18.3 18.3 C -23.65 13.42, -32.49 5.7, -32.09 0 C -31.69 -5.7, -21.24 -12.42, -15.89 -15.89 C -10.54 -19.37, -5.77 -20.36, 0 -20.84 C 5.77 -21.31, 15.15 -22.21, 18.74 -18.74 C 22.32 -15.26, 21.99 -5.76, 21.5 0 Z" transform="matrix(1 0 0 1 2450.515 -473.274)" fill="#946f1d" stroke="#494133" stroke-width="1.5"/><path d="M 17.53 0 C 17.57 2.64, 8.35 6.87, 4.7 8.14 C 1.04 9.41, -1.91 8.97, -4.4 7.61 C -6.88 6.26, -9.87 3.1, -10.19 0 C -10.52 -3.1, -8.8 -9.73, -6.36 -11.02 C -3.92 -12.3, 0.47 -9.55, 4.45 -7.71 C 8.43 -5.88, 17.49 -2.64, 17.53 0 Z" transform="matrix(1 0 0 1 2443.166 -480.622)" fill="#b09354" opacity="0.75"/><rect x="-6" y="-16.498" width="12" height="32.996" rx="3" transform="matrix(1 0 0 1 2679.333 -419.045)" fill="#6c6252" stroke="#494133" stroke-width="1.5"/><path d="M 52.71 0 C 51.91 10.88, 44.02 23.33, 36.52 30.65 C 29.03 37.96, 17.31 42.97, 7.74 43.89 C -1.83 44.82, -11.85 40.7, -20.91 36.21 C -29.96 31.72, -42.59 25.7, -46.57 16.95 C -50.55 8.2, -49.38 -7.99, -44.78 -16.3 C -40.18 -24.6, -27.57 -29.22, -18.98 -32.88 C -10.4 -36.53, -3.31 -37.93, 6.74 -38.23 C 16.79 -38.52, 33.64 -41.03, 41.3 -34.66 C 48.96 -28.29, 53.5 -10.88, 52.71 0 Z" transform="matrix(1 0 0 1 2679.333 -444.971)" fill="#5b8b42" stroke="#23201a" stroke-width="2"/><path d="M 29.55 0 C 29.32 5.38, 18.34 9.94, 12.19 15.29 C 6.05 20.64, -0.55 32.35, -7.32 32.08 C -14.09 31.81, -26.61 20.5, -28.43 13.69 C -30.25 6.88, -21.95 -1.93, -18.26 -8.79 C -14.56 -15.65, -11.57 -26.08, -6.27 -27.45 C -0.96 -28.82, 7.59 -21.58, 13.56 -17.01 C 19.53 -12.43, 29.78 -5.38, 29.55 0 Z" transform="matrix(1 0 0 1 2665.192 -460.055)" fill="#789f4c" opacity="0.7"/><rect x="-6" y="-17.532" width="12" height="35.063" rx="3" transform="matrix(1 0 0 1 -51.69 -150.668)" fill="#61584a" stroke="#494133" stroke-width="1.5"/><path d="M 52.75 0 C 54.01 10.62, 48.9 25.75, 41.75 35.03 C 34.59 44.31, 20.37 55.27, 9.82 55.66 C -0.74 56.06, -13.37 44.28, -21.59 37.4 C -29.82 30.52, -33.59 24.08, -39.51 14.38 C -45.44 4.68, -59.79 -11.58, -57.14 -20.8 C -54.49 -30.01, -34.77 -35.14, -23.62 -40.91 C -12.47 -46.68, 0.14 -57.44, 9.77 -55.4 C 19.4 -53.37, 27.02 -37.92, 34.18 -28.68 C 41.35 -19.45, 51.49 -10.62, 52.75 0 Z" transform="matrix(1 0 0 1 -51.69 -178.218)" fill="#447136" stroke="#23201a" stroke-width="2"/><path d="M 34.95 0 C 34 7.88, 23.1 14.6, 16.02 20.09 C 8.94 25.58, 0.32 33.78, -7.51 32.92 C -15.35 32.06, -29.04 21.97, -31.01 14.93 C -32.98 7.89, -23.56 -2.7, -19.33 -9.31 C -15.1 -15.92, -12.48 -21.76, -5.65 -24.74 C 1.19 -27.72, 14.93 -31.33, 21.7 -27.21 C 28.46 -23.08, 35.89 -7.88, 34.95 0 Z" transform="matrix(1 0 0 1 -66.717 -194.246)" fill="#6f9547" opacity="0.7"/><path d="M 1005.46 472.98 C 1005.48 470.26, 1005.55 461.61, 1005.59 456.67 C 1005.64 451.73, 1005.7 445.56, 1005.72 443.33" transform="matrix(1 0 0 1 -264.893 -624.893)" fill="none" stroke="#8ab15b" stroke-width="2.899" opacity="0.9"/><path d="M 995.51 472.98 C 995.58 470.88, 995.79 464.18, 995.93 460.36 C 996.07 456.53, 996.28 451.75, 996.35 450.03" transform="matrix(1 0 0 1 -264.893 -624.893)" fill="none" stroke="#8ab15b" stroke-width="3.185" opacity="0.9"/><path d="M 996.57 472.98 C 995.93 471.01, 994.01 464.74, 992.74 461.15 C 991.46 457.57, 989.55 453.09, 988.91 451.47" transform="matrix(1 0 0 1 -264.893 -624.893)" fill="none" stroke="#8ab15b" stroke-width="2.881" opacity="0.9"/><path d="M 1001.18 472.98 C 1001.27 470.28, 1001.53 461.71, 1001.7 456.8 C 1001.87 451.9, 1002.13 445.77, 1002.22 443.57" transform="matrix(1 0 0 1 -264.893 -624.893)" fill="none" stroke="#8ab15b" stroke-width="2.123" opacity="0.9"/><path d="M 1275.25 509.1 C 1275.19 506.51, 1275.01 498.25, 1274.89 493.54 C 1274.77 488.82, 1274.59 482.92, 1274.53 480.8" transform="matrix(1 0 0 1 -264.893 -624.893)" fill="none" stroke="#4a7035" stroke-width="3.314" opacity="0.9"/><path d="M 1280.36 509.1 C 1279.94 506.57, 1278.67 498.52, 1277.82 493.91 C 1276.97 489.31, 1275.7 483.56, 1275.28 481.48" transform="matrix(1 0 0 1 -264.893 -624.893)" fill="none" stroke="#4a7035" stroke-width="3.122" opacity="0.9"/><path d="M 1267.03 509.1 C 1266.68 507.07, 1265.63 500.6, 1264.92 496.9 C 1264.22 493.2, 1263.17 488.58, 1262.81 486.92" transform="matrix(1 0 0 1 -264.893 -624.893)" fill="none" stroke="#4a7035" stroke-width="3.389" opacity="0.9"/><path d="M 1280.27 509.1 C 1280.31 506.62, 1280.43 498.72, 1280.51 494.21 C 1280.59 489.69, 1280.72 484.05, 1280.76 482.02" transform="matrix(1 0 0 1 -264.893 -624.893)" fill="none" stroke="#4a7035" stroke-width="2.696" opacity="0.9"/><path d="M 1277.66 509.1 C 1278.15 507.36, 1279.62 501.79, 1280.6 498.62 C 1281.58 495.44, 1283.05 491.47, 1283.55 490.04" transform="matrix(1 0 0 1 -264.893 -624.893)" fill="none" stroke="#4a7035" stroke-width="2.228" opacity="0.9"/><path d="M 26.87 0 C 26.01 7.32, 23.85 13.03, 19.37 19.37 C 14.9 25.72, 7.77 36.77, 0 38.08 C -7.77 39.39, -21.15 33.59, -27.24 27.24 C -33.33 20.89, -37.1 8.55, -36.57 0 C -36.04 -8.55, -30.17 -19.71, -24.08 -24.08 C -17.98 -28.45, -8.1 -26.16, 0 -26.23 C 8.1 -26.31, 20.06 -28.91, 24.54 -24.54 C 29.02 -20.17, 27.73 -7.32, 26.87 0 Z" transform="matrix(1 0 0 1 1139.694 -104.456)" fill="#477437" stroke="#494133" stroke-width="1.5"/><path d="M 10.61 0 C 10.53 5.67, 12.81 14.14, 9.6 16.63 C 6.39 19.13, -3.94 17.74, -8.64 14.97 C -13.35 12.2, -18.43 5.31, -18.62 0 C -18.8 -5.31, -14.53 -13.99, -9.75 -16.89 C -4.98 -19.79, 6.66 -20.23, 10.05 -17.41 C 13.44 -14.59, 10.68 -5.67, 10.61 0 Z" transform="matrix(1 0 0 1 1130.952 -113.198)" fill="#789767" opacity="0.75"/><rect x="-6" y="-19.011" width="12" height="38.023" rx="3" transform="matrix(1 0 0 1 1475.535 -201.195)" fill="#766b5a" stroke="#494133" stroke-width="1.5"/><path d="M 57.76 0 C 54.92 11.77, 41.66 19.39, 33.58 28.18 C 25.5 36.96, 20.33 47.97, 9.29 52.7 C -1.75 57.43, -20.81 61.6, -32.66 56.56 C -44.5 51.53, -58.46 35.09, -61.76 22.48 C -65.07 9.87, -58.2 -7.44, -52.47 -19.1 C -46.75 -30.75, -37.71 -41.72, -27.39 -47.45 C -17.08 -53.18, -3.56 -54.33, 9.43 -53.5 C 22.43 -52.66, 42.52 -51.35, 50.57 -42.44 C 58.63 -33.52, 60.59 -11.77, 57.76 0 Z" transform="matrix(1 0 0 1 1475.535 -231.07)" fill="#437839" stroke="#23201a" stroke-width="2"/><path d="M 22.38 0 C 22.78 9.19, 27.79 25.2, 23.18 29.06 C 18.57 32.93, 3.58 25.62, -5.29 23.18 C -14.16 20.75, -26.24 20.59, -30.05 14.47 C -33.86 8.35, -32.25 -7.22, -28.13 -13.55 C -24.02 -19.87, -13.51 -21.39, -5.36 -23.48 C 2.8 -25.56, 16.17 -29.98, 20.79 -26.07 C 25.41 -22.16, 21.98 -9.19, 22.38 0 Z" transform="matrix(1 0 0 1 1459.24 -248.452)" fill="#6e9848" opacity="0.7"/><path d="M 29 0 C 29.67 5.5, 23.36 14.66, 18.52 18.52 C 13.69 22.38, 5.73 23.62, 0 23.17 C -5.73 22.72, -11.76 19.7, -15.84 15.84 C -19.92 11.98, -23.68 6.06, -24.46 0 C -25.23 -6.06, -24.59 -15.69, -20.51 -20.51 C -16.44 -25.33, -5.83 -29.91, 0 -28.9 C 5.83 -27.9, 9.64 -19.29, 14.48 -14.48 C 19.31 -9.66, 28.32 -5.5, 29 0 Z" transform="matrix(1 0 0 1 1689.524 -234.807)" fill="#8e681c" stroke="#494133" stroke-width="1.5"/><path d="M 10.72 0 C 10.95 2.78, 8.47 7.6, 5.54 9.59 C 2.6 11.58, -3.44 13.53, -6.89 11.93 C -10.34 10.33, -15.31 3.69, -15.15 0 C -14.98 -3.69, -9.12 -9.05, -5.91 -10.24 C -2.7 -11.42, 1.34 -8.82, 4.11 -7.12 C 6.88 -5.41, 10.48 -2.78, 10.72 0 Z" transform="matrix(1 0 0 1 1683.131 -241.2)" fill="#ab8e53" opacity="0.75"/><path d="M 28.45 0 C 30.46 7.34, 32.81 21.71, 28.06 28.06 C 23.32 34.42, 9.32 38.16, 0 38.13 C -9.32 38.09, -22.6 34.22, -27.86 27.86 C -33.13 21.51, -32.24 8.66, -31.61 0 C -30.99 -8.66, -29.38 -18.75, -24.11 -24.11 C -18.84 -29.46, -6.68 -33.47, 0 -32.12 C 6.68 -30.77, 11.26 -21.35, 16 -16 C 20.74 -10.65, 26.44 -7.34, 28.45 0 Z" transform="matrix(1 0 0 1 1962.907 -210.242)" fill="#789e4b" stroke="#494133" stroke-width="1.5"/><path d="M 13.45 0 C 13.3 3.62, 9.52 7.59, 5.83 10.1 C 2.14 12.61, -5.77 16.74, -8.69 15.05 C -11.62 13.37, -11.6 5.22, -11.71 0 C -11.83 -5.22, -12.46 -14.32, -9.39 -16.26 C -6.32 -18.2, 2.9 -14.33, 6.71 -11.62 C 10.51 -8.91, 13.59 -3.62, 13.45 0 Z" transform="matrix(1 0 0 1 1954.122 -219.026)" fill="#9cb575" opacity="0.75"/><path d="M 2419.53 447.85 C 2420.15 445.45, 2422.01 437.82, 2423.25 433.46 C 2424.48 429.1, 2426.34 423.65, 2426.96 421.69" transform="matrix(1 0 0 1 -264.893 -624.893)" fill="none" stroke="#477f3c" stroke-width="3.081" opacity="0.9"/><path d="M 2431.1 447.85 C 2431.36 445.57, 2432.13 438.31, 2432.64 434.16 C 2433.16 430.01, 2433.93 424.82, 2434.19 422.95" transform="matrix(1 0 0 1 -264.893 -624.893)" fill="none" stroke="#477f3c" stroke-width="2.215" opacity="0.9"/><path d="M 2418.36 447.85 C 2418.21 445.16, 2417.77 436.61, 2417.48 431.72 C 2417.19 426.83, 2416.75 420.73, 2416.6 418.53" transform="matrix(1 0 0 1 -264.893 -624.893)" fill="none" stroke="#477f3c" stroke-width="3.474" opacity="0.9"/><rect x="-6" y="-18.68" width="12" height="37.36" rx="3" transform="matrix(1 0 0 1 2526.326 -167.588)" fill="#6e6453" stroke="#494133" stroke-width="1.5"/><path d="M 61.26 0 C 59.19 11.31, 43.16 21.5, 34.22 28.71 C 25.28 35.93, 18.75 38.72, 7.63 43.3 C -3.48 47.88, -21.97 60.07, -32.45 56.21 C -42.93 52.34, -52.03 32.6, -55.23 20.1 C -58.43 7.6, -56.49 -7.9, -51.65 -18.8 C -46.8 -29.7, -36.3 -39.72, -26.15 -45.3 C -16.01 -50.89, -2.91 -53.33, 9.22 -52.31 C 21.36 -51.29, 38 -47.88, 46.67 -39.16 C 55.34 -30.44, 63.34 -11.31, 61.26 0 Z" transform="matrix(1 0 0 1 2526.326 -196.942)" fill="#467538" stroke="#23201a" stroke-width="2"/><path d="M 38.13 0 C 37.63 7.61, 23.99 16.94, 16.72 20.96 C 9.44 24.99, 0.57 26.04, -5.51 24.14 C -11.59 22.23, -17.11 15.28, -19.78 9.52 C -22.45 3.77, -23.49 -2.9, -21.54 -10.37 C -19.59 -17.85, -14.94 -32.94, -8.07 -35.34 C -1.19 -37.73, 12.01 -30.61, 19.71 -24.72 C 27.41 -18.83, 38.63 -7.61, 38.13 0 Z" transform="matrix(1 0 0 1 2510.315 -214.02)" fill="#6f9748" opacity="0.7"/><path d="M 27.19 0 C 26.57 5.15, 18.15 9.9, 13.62 13.62 C 9.09 17.35, 4.51 22.39, 0 22.36 C -4.51 22.32, -9.28 17.15, -13.42 13.42 C -17.57 9.7, -23.65 5.69, -24.86 0 C -26.08 -5.69, -24.86 -17.86, -20.72 -20.72 C -16.57 -23.58, -6.33 -17.73, 0 -17.16 C 6.33 -16.59, 12.76 -20.15, 17.29 -17.29 C 21.82 -14.43, 27.8 -5.15, 27.19 0 Z" transform="matrix(1 0 0 1 2747.59 -205.777)" fill="#89b25c" stroke="#494133" stroke-width="1.5"/><path d="M 13.49 0 C 13.36 3.09, 7.94 7.4, 4.98 8.63 C 2.02 9.86, -1.73 8.81, -4.26 7.37 C -6.78 5.93, -9.79 3.07, -10.15 0 C -10.5 -3.07, -9.03 -9.4, -6.39 -11.06 C -3.74 -12.72, 2.43 -11.78, 5.74 -9.94 C 9.05 -8.1, 13.61 -3.09, 13.49 0 Z" transform="matrix(1 0 0 1 2741.163 -212.204)" fill="#a8c482" opacity="0.75"/><path d="M 179.06 753.28 C 179.73 751.45, 181.73 745.63, 183.07 742.3 C 184.41 738.98, 186.41 734.82, 187.08 733.33" transform="matrix(1 0 0 1 -264.893 -624.893)" fill="none" stroke="#7b9e4b" stroke-width="2.539" opacity="0.9"/><path d="M 169.47 753.28 C 169.71 750.63, 170.44 742.19, 170.93 737.37 C 171.41 732.55, 172.14 726.52, 172.38 724.35" transform="matrix(1 0 0 1 -264.893 -624.893)" fill="none" stroke="#7b9e4b" stroke-width="2.173" opacity="0.9"/><path d="M 166.57 753.28 C 166.31 751.52, 165.51 745.93, 164.98 742.73 C 164.46 739.54, 163.66 735.54, 163.4 734.11" transform="matrix(1 0 0 1 -264.893 -624.893)" fill="none" stroke="#7b9e4b" stroke-width="3.055" opacity="0.9"/><path d="M 171.35 753.28 C 172.1 750.98, 174.35 743.68, 175.85 739.5 C 177.35 735.33, 179.59 730.11, 180.34 728.23" transform="matrix(1 0 0 1 -264.893 -624.893)" fill="none" stroke="#7b9e4b" stroke-width="3.338" opacity="0.9"/><path d="M 163.93 753.28 C 164.61 750.69, 166.62 742.47, 167.96 737.77 C 169.3 733.07, 171.31 727.19, 171.98 725.08" transform="matrix(1 0 0 1 -264.893 -624.893)" fill="none" stroke="#7b9e4b" stroke-width="2.485" opacity="0.9"/><path d="M 524.85 680.71 C 524.31 679.13, 522.69 674.08, 521.61 671.2 C 520.53 668.32, 518.91 664.71, 518.37 663.42" transform="matrix(1 0 0 1 -264.893 -624.893)" fill="none" stroke="#5b8e43" stroke-width="2.358" opacity="0.9"/><path d="M 519.15 680.71 C 518.52 679.11, 516.64 674.02, 515.39 671.1 C 514.14 668.19, 512.26 664.55, 511.63 663.24" transform="matrix(1 0 0 1 -264.893 -624.893)" fill="none" stroke="#5b8e43" stroke-width="3.382" opacity="0.9"/><path d="M 531.68 680.71 C 531.47 678.31, 530.86 670.66, 530.45 666.29 C 530.04 661.91, 529.43 656.45, 529.22 654.48" transform="matrix(1 0 0 1 -264.893 -624.893)" fill="none" stroke="#5b8e43" stroke-width="2.778" opacity="0.9"/><path d="M 534.32 680.71 C 534.96 678.11, 536.9 669.83, 538.2 665.1 C 539.49 660.36, 541.43 654.45, 542.08 652.32" transform="matrix(1 0 0 1 -264.893 -624.893)" fill="none" stroke="#5b8e43" stroke-width="3.146" opacity="0.9"/><path d="M 520.24 680.71 C 520.73 678.99, 522.2 673.5, 523.18 670.36 C 524.16 667.23, 525.63 663.31, 526.12 661.89" transform="matrix(1 0 0 1 -264.893 -624.893)" fill="none" stroke="#5b8e43" stroke-width="3.325" opacity="0.9"/><path d="M 733.54 769.42 C 733.99 766.72, 735.31 758.13, 736.19 753.22 C 737.08 748.31, 738.4 742.17, 738.84 739.97" transform="matrix(1 0 0 1 -264.893 -624.893)" fill="none" stroke="#3d7236" stroke-width="2.754" opacity="0.9"/><path d="M 746.74 769.42 C 746.98 767.54, 747.72 761.55, 748.2 758.13 C 748.69 754.7, 749.43 750.42, 749.67 748.88" transform="matrix(1 0 0 1 -264.893 -624.893)" fill="none" stroke="#3d7236" stroke-width="2.751" opacity="0.9"/><path d="M 736.74 769.42 C 737.21 767.59, 738.6 761.76, 739.53 758.44 C 740.46 755.11, 741.86 750.95, 742.32 749.45" transform="matrix(1 0 0 1 -264.893 -624.893)" fill="none" stroke="#3d7236" stroke-width="3.381" opacity="0.9"/><path d="M 731.5 769.42 C 731.67 767.01, 732.17 759.34, 732.51 754.96 C 732.85 750.58, 733.36 745.1, 733.52 743.13" transform="matrix(1 0 0 1 -264.893 -624.893)" fill="none" stroke="#3d7236" stroke-width="3.208" opacity="0.9"/><path d="M 736.07 769.42 C 736.31 766.84, 737 758.63, 737.46 753.94 C 737.93 749.25, 738.62 743.39, 738.85 741.28" transform="matrix(1 0 0 1 -264.893 -624.893)" fill="none" stroke="#3d7236" stroke-width="2.756" opacity="0.9"/><path d="M 35.3 0 C 36.95 7.92, 34.6 23.24, 28.72 28.72 C 22.84 34.2, 9.49 32.95, 0 32.86 C -9.49 32.77, -21.78 33.67, -28.2 28.2 C -34.61 22.72, -39.01 8.86, -38.48 0 C -37.94 -8.86, -31.39 -20, -24.98 -24.98 C -18.56 -29.95, -7.29 -30.88, 0 -29.84 C 7.29 -28.81, 12.89 -23.74, 18.77 -18.77 C 24.65 -13.8, 33.64 -7.92, 35.3 0 Z" transform="matrix(1 0 0 1 1456.909 18.744)" fill="#4d7638" stroke="#494133" stroke-width="1.5"/><path d="M 10.72 0 C 10.5 3.84, 9.18 7.92, 5.98 10.36 C 2.79 12.8, -5.67 16.37, -8.45 14.64 C -11.24 12.92, -11.07 4.32, -10.75 0 C -10.43 -4.32, -9.53 -9.18, -6.52 -11.29 C -3.51 -13.41, 4.44 -14.55, 7.31 -12.67 C 10.19 -10.78, 10.94 -3.84, 10.72 0 Z" transform="matrix(1 0 0 1 1448.017 9.852)" fill="#7d9868" opacity="0.75"/><path d="M 29.86 0 C 29.86 4.9, 19.66 10.33, 14.69 14.69 C 9.71 19.04, 6.12 24.9, 0 26.12 C -6.12 27.34, -18.16 26.38, -22.03 22.03 C -25.9 17.68, -24.19 6.37, -23.22 0 C -22.24 -6.37, -20.05 -12.57, -16.18 -16.18 C -12.31 -19.79, -5.15 -21.91, 0 -21.66 C 5.15 -21.41, 9.73 -18.31, 14.7 -14.7 C 19.68 -11.09, 29.87 -4.9, 29.86 0 Z" transform="matrix(1 0 0 1 1701.517 55.659)" fill="#9b7a1e" stroke="#494133" stroke-width="1.5"/><path d="M 9.42 0 C 9.51 3.5, 9.2 8.68, 6.32 10.95 C 3.44 13.22, -4.23 15.43, -7.86 13.61 C -11.48 11.78, -15.73 4, -15.42 0 C -15.12 -4, -9.55 -8.73, -6.01 -10.41 C -2.47 -12.09, 3.24 -11.8, 5.81 -10.07 C 8.38 -8.33, 9.34 -3.5, 9.42 0 Z" transform="matrix(1 0 0 1 1694.445 48.587)" fill="#b59b55" opacity="0.75"/><path d="M 28.31 0 C 28.44 6.8, 25.48 15.6, 20.76 20.76 C 16.04 25.92, 8 29.89, 0 30.97 C -8 32.05, -21.6 32.42, -27.26 27.26 C -32.92 22.1, -34.52 8.54, -33.98 0 C -33.43 -8.54, -29.64 -18.79, -23.98 -23.98 C -18.32 -29.17, -7.33 -31.8, 0 -31.14 C 7.33 -30.48, 15.3 -25.21, 20.02 -20.02 C 24.74 -14.83, 28.19 -6.8, 28.31 0 Z" transform="matrix(1 0 0 1 1894.866 154.714)" fill="#869f4b" stroke="#494133" stroke-width="1.5"/><path d="M 10.95 0 C 10.93 4.92, 11.41 12.74, 8.47 14.67 C 5.53 16.61, -2.87 14.06, -6.71 11.62 C -10.54 9.17, -14.09 4.66, -14.54 0 C -15 -4.66, -13.27 -13.84, -9.42 -16.31 C -5.57 -18.78, 5.16 -17.54, 8.56 -14.82 C 11.95 -12.1, 10.96 -4.92, 10.95 0 Z" transform="matrix(1 0 0 1 1886.348 146.197)" fill="#a6b675" opacity="0.75"/><path d="M 31.38 0 C 30.93 5.21, 19.52 8.72, 14.29 14.29 C 9.06 19.85, 5.16 33, 0 33.4 C -5.16 33.8, -13.22 22.25, -16.68 16.68 C -20.14 11.11, -20 6.31, -20.75 0 C -21.5 -6.31, -24.62 -16.9, -21.16 -21.16 C -17.7 -25.42, -6.35 -26.25, 0 -25.55 C 6.35 -24.85, 11.72 -21.21, 16.95 -16.95 C 22.18 -12.69, 31.82 -5.21, 31.38 0 Z" transform="matrix(1 0 0 1 2199.8 160.1)" fill="#50803d" stroke="#494133" stroke-width="1.5"/><path d="M 11.14 0 C 11.09 4.48, 10.7 10.95, 7.58 13.14 C 4.47 15.32, -4.52 15.3, -7.57 13.11 C -10.62 10.92, -11.22 3.48, -10.71 0 C -10.19 -3.48, -7.58 -5.46, -4.48 -7.75 C -1.37 -10.04, 5.33 -15.03, 7.93 -13.74 C 10.54 -12.45, 11.2 -4.48, 11.14 0 Z" transform="matrix(1 0 0 1 2192.33 152.63)" fill="#7fa06b" opacity="0.75"/><path d="M 39.13 0 C 39.76 7.43, 30.69 20.17, 24.17 24.17 C 17.65 28.17, 6.83 25.2, 0 23.98 C -6.83 22.76, -11.14 20.83, -16.83 16.83 C -22.53 12.83, -34.13 5.65, -34.18 0 C -34.22 -5.65, -22.79 -10.92, -17.09 -17.09 C -11.4 -23.27, -6.25 -36.5, 0 -37.05 C 6.25 -37.6, 13.87 -26.57, 20.39 -20.39 C 26.91 -14.21, 38.5 -7.43, 39.13 0 Z" transform="matrix(1 0 0 1 2428.427 101.127)" fill="#4d8a41" stroke="#494133" stroke-width="1.5"/><path d="M 14.71 0 C 14.22 4.64, 10.71 8.34, 6.54 11.32 C 2.36 14.3, -6.62 19.78, -10.33 17.89 C -14.04 16, -15.99 5.47, -15.71 0 C -15.43 -5.47, -12.84 -12.2, -8.63 -14.95 C -4.43 -17.7, 5.63 -18.98, 9.52 -16.49 C 13.41 -14, 15.21 -4.64, 14.71 0 Z" transform="matrix(1 0 0 1 2419.298 91.999)" fill="#7da76e" opacity="0.75"/><path d="M 3018.89 672.37 C 3018.65 670.05, 3017.91 662.69, 3017.41 658.48 C 3016.92 654.27, 3016.18 649.01, 3015.94 647.11" transform="matrix(1 0 0 1 -264.893 -624.893)" fill="none" stroke="#46813d" stroke-width="2.123" opacity="0.9"/><path d="M 3019.1 672.37 C 3019.51 670.17, 3020.73 663.18, 3021.54 659.19 C 3022.36 655.19, 3023.58 650.2, 3023.98 648.4" transform="matrix(1 0 0 1 -264.893 -624.893)" fill="none" stroke="#46813d" stroke-width="2.14" opacity="0.9"/><path d="M 3028.78 672.37 C 3029.2 670.02, 3030.48 662.55, 3031.33 658.28 C 3032.18 654.01, 3033.46 648.67, 3033.88 646.75" transform="matrix(1 0 0 1 -264.893 -624.893)" fill="none" stroke="#46813d" stroke-width="2.128" opacity="0.9"/><path d="M 3027.47 672.37 C 3027.69 669.64, 3028.34 660.94, 3028.78 655.98 C 3029.21 651.01, 3029.86 644.8, 3030.08 642.56" transform="matrix(1 0 0 1 -264.893 -624.893)" fill="none" stroke="#46813d" stroke-width="2.501" opacity="0.9"/><path d="M 3020.77 672.37 C 3020.33 670.07, 3018.99 662.78, 3018.1 658.61 C 3017.21 654.44, 3015.88 649.23, 3015.43 647.35" transform="matrix(1 0 0 1 -264.893 -624.893)" fill="none" stroke="#46813d" stroke-width="2.902" opacity="0.9"/><path d="M 18.39 0 C 18.28 4.66, 16.71 9.89, 13.65 13.65 C 10.58 17.41, 5.23 21.87, 0 22.55 C -5.23 23.24, -13.83 21.5, -17.74 17.74 C -21.65 13.98, -24.28 5.09, -23.45 0 C -22.63 -5.09, -16.7 -9.67, -12.79 -12.79 C -8.88 -15.9, -4.52 -18.45, 0 -18.71 C 4.52 -18.97, 11.26 -17.45, 14.33 -14.33 C 17.39 -11.21, 18.5 -4.66, 18.39 0 Z" transform="matrix(1 0 0 1 -65.501 351.173)" fill="#497337" stroke="#494133" stroke-width="1.5"/><path d="M 9.05 0 C 9.31 3.66, 9.32 11.13, 7.12 12.34 C 4.92 13.54, -1.53 9.26, -4.16 7.21 C -6.79 5.15, -8.61 2.5, -8.66 0 C -8.72 -2.5, -6.87 -6.18, -4.5 -7.79 C -2.12 -9.4, 3.31 -10.95, 5.57 -9.65 C 7.83 -8.35, 8.8 -3.66, 9.05 0 Z" transform="matrix(1 0 0 1 -71.453 345.22)" fill="#7a9667" opacity="0.75"/><path d="M 538.32 1022.22 C 538.96 1020.51, 540.91 1015.07, 542.2 1011.96 C 543.49 1008.85, 545.43 1004.97, 546.08 1003.57" transform="matrix(1 0 0 1 -264.893 -624.893)" fill="none" stroke="#92b15a" stroke-width="3.143" opacity="0.9"/><path d="M 532.03 1022.22 C 531.95 1020.06, 531.72 1013.19, 531.57 1009.26 C 531.42 1005.33, 531.19 1000.42, 531.11 998.65" transform="matrix(1 0 0 1 -264.893 -624.893)" fill="none" stroke="#92b15a" stroke-width="2.107" opacity="0.9"/><path d="M 527.26 1022.22 C 528 1020.48, 530.19 1014.94, 531.66 1011.77 C 533.12 1008.6, 535.32 1004.64, 536.05 1003.22" transform="matrix(1 0 0 1 -264.893 -624.893)" fill="none" stroke="#92b15a" stroke-width="2.366" opacity="0.9"/><path d="M 531.11 1022.22 C 530.38 1020.14, 528.2 1013.49, 526.74 1009.7 C 525.28 1005.9, 523.09 1001.16, 522.36 999.45" transform="matrix(1 0 0 1 -264.893 -624.893)" fill="none" stroke="#92b15a" stroke-width="2.284" opacity="0.9"/><path d="M 539.27 1022.22 C 539.81 1020.09, 541.43 1013.3, 542.51 1009.42 C 543.6 1005.53, 545.22 1000.68, 545.76 998.94" transform="matrix(1 0 0 1 -264.893 -624.893)" fill="none" stroke="#92b15a" stroke-width="3.237" opacity="0.9"/><rect x="-6" y="-15.989" width="12" height="31.979" rx="3" transform="matrix(1 0 0 1 476.378 391.124)" fill="#695f50" stroke="#494133" stroke-width="1.5"/><path d="M 50.08 0 C 48.39 10.2, 38.57 19.73, 31.39 26.34 C 24.21 32.96, 16.63 36.47, 7 39.7 C -2.63 42.93, -19.55 50.26, -26.39 45.71 C -33.24 41.16, -30.12 23.07, -34.08 12.4 C -38.04 1.74, -52.36 -10.15, -50.17 -18.26 C -47.98 -26.38, -30.49 -32.65, -20.95 -36.29 C -11.41 -39.92, -3.35 -40.29, 7.06 -40.05 C 17.47 -39.81, 34.35 -41.52, 41.52 -34.84 C 48.69 -28.17, 51.77 -10.2, 50.08 0 Z" transform="matrix(1 0 0 1 476.378 365.998)" fill="#4a843f" stroke="#23201a" stroke-width="2"/><path d="M 23.29 0 C 23.31 6, 18.96 15.13, 14.41 18.07 C 9.86 21.01, 2.52 18.65, -4.02 17.63 C -10.56 16.61, -21.63 16.76, -24.83 11.96 C -28.02 7.16, -26.42 -5.16, -23.2 -11.17 C -19.98 -17.18, -11.75 -22.98, -5.5 -24.1 C 0.75 -25.23, 9.49 -21.93, 14.29 -17.92 C 19.09 -13.9, 23.27 -6, 23.29 0 Z" transform="matrix(1 0 0 1 462.673 351.379)" fill="#719d4a" opacity="0.7"/><path d="M 29.91 0 C 28.79 5.27, 17.44 8.6, 12.46 12.46 C 7.47 16.31, 5.14 22.14, 0 23.12 C -5.14 24.1, -14.23 22.21, -18.36 18.36 C -22.48 14.5, -24.2 6.69, -24.77 0 C -25.34 -6.69, -25.91 -17.11, -21.78 -21.78 C -17.65 -26.44, -6.83 -28.42, 0 -27.99 C 6.83 -27.56, 14.2 -23.85, 19.18 -19.18 C 24.17 -14.52, 31.03 -5.27, 29.91 0 Z" transform="matrix(1 0 0 1 778.794 327.617)" fill="#a77821" stroke="#494133" stroke-width="1.5"/><path d="M 16.06 0 C 15.84 4.02, 9.69 9.67, 6.3 10.91 C 2.91 12.14, -1.39 9.24, -4.29 7.43 C -7.19 5.61, -10.65 3.25, -11.1 0 C -11.55 -3.25, -10.1 -9.87, -6.97 -12.08 C -3.85 -14.28, 3.8 -15.24, 7.64 -13.23 C 11.48 -11.21, 16.28 -4.02, 16.06 0 Z" transform="matrix(1 0 0 1 772.054 320.877)" fill="#bd9a57" opacity="0.75"/><path d="M 1154.2 944.56 C 1154.75 943.05, 1156.42 938.24, 1157.54 935.49 C 1158.65 932.73, 1160.32 929.3, 1160.88 928.06" transform="matrix(1 0 0 1 -264.893 -624.893)" fill="none" stroke="#9fb767" stroke-width="3.138" opacity="0.9"/><path d="M 1162.82 944.56 C 1162.17 942.65, 1160.22 936.56, 1158.92 933.09 C 1157.62 929.61, 1155.67 925.26, 1155.02 923.7" transform="matrix(1 0 0 1 -264.893 -624.893)" fill="none" stroke="#9fb767" stroke-width="2.905" opacity="0.9"/><path d="M 1150.78 944.56 C 1150.2 942.49, 1148.47 935.91, 1147.31 932.15 C 1146.15 928.39, 1144.42 923.69, 1143.84 922" transform="matrix(1 0 0 1 -264.893 -624.893)" fill="none" stroke="#9fb767" stroke-width="3.336" opacity="0.9"/><path d="M 1157.99 944.56 C 1157.65 942.93, 1156.64 937.75, 1155.96 934.79 C 1155.28 931.83, 1154.26 928.12, 1153.92 926.79" transform="matrix(1 0 0 1 -264.893 -624.893)" fill="none" stroke="#9fb767" stroke-width="2.622" opacity="0.9"/><path d="M 24.43 0 C 24.25 6.6, 23.32 15.26, 19.24 19.24 C 15.17 23.23, 5.86 24.46, 0 23.91 C -5.86 23.36, -12.55 19.92, -15.93 15.93 C -19.32 11.95, -20.76 4.84, -20.29 0 C -19.82 -4.84, -16.5 -8.64, -13.12 -13.12 C -9.73 -17.59, -5.58 -25.64, 0 -26.85 C 5.58 -28.06, 16.3 -24.85, 20.37 -20.37 C 24.45 -15.9, 24.62 -6.6, 24.43 0 Z" transform="matrix(1 0 0 1 1764.247 388.019)" fill="#8c641b" stroke="#494133" stroke-width="1.5"/><path d="M 14.23 0 C 14.3 4.51, 11.55 11.95, 8.04 13.92 C 4.53 15.89, -4.02 14.14, -6.83 11.82 C -9.63 9.5, -9 3.56, -8.78 0 C -8.56 -3.56, -8.23 -7.34, -5.5 -9.53 C -2.77 -11.72, 4.3 -14.74, 7.59 -13.15 C 10.88 -11.56, 14.15 -4.51, 14.23 0 Z" transform="matrix(1 0 0 1 1757.195 380.966)" fill="#aa8b53" opacity="0.75"/><path d="M 26.94 0 C 28.35 6.73, 28.9 18.96, 24.41 24.41 C 19.93 29.87, 7.25 33.63, 0 32.74 C -7.25 31.85, -13.17 24.54, -19.08 19.08 C -24.99 13.63, -35.32 6.5, -35.46 0 C -35.6 -6.5, -25.83 -14.65, -19.92 -19.92 C -14.01 -25.18, -5.98 -32.25, 0 -31.59 C 5.98 -30.93, 11.46 -21.22, 15.95 -15.95 C 20.44 -10.69, 25.53 -6.73, 26.94 0 Z" transform="matrix(1 0 0 1 1974.416 366.476)" fill="#987c1e" stroke="#494133" stroke-width="1.5"/><path d="M 16.23 0 C 16.25 3.12, 9.19 7.61, 5.44 9.42 C 1.69 11.24, -2.18 12.44, -6.27 10.86 C -10.36 9.29, -19.23 3.39, -19.1 0 C -18.96 -3.39, -9.55 -7.93, -5.47 -9.48 C -1.4 -11.02, 1.74 -10.85, 5.35 -9.27 C 8.97 -7.69, 16.22 -3.12, 16.23 0 Z" transform="matrix(1 0 0 1 1966.07 358.129)" fill="#b39d55" opacity="0.75"/><path d="M 2394.56 953.65 C 2394.15 951.74, 2392.91 945.64, 2392.08 942.15 C 2391.25 938.66, 2390.01 934.31, 2389.59 932.74" transform="matrix(1 0 0 1 -264.893 -624.893)" fill="none" stroke="#7aa34d" stroke-width="2.456" opacity="0.9"/><path d="M 2391.47 953.65 C 2391.07 951.15, 2389.86 943.17, 2389.05 938.62 C 2388.25 934.06, 2387.04 928.36, 2386.64 926.31" transform="matrix(1 0 0 1 -264.893 -624.893)" fill="none" stroke="#7aa34d" stroke-width="2.256" opacity="0.9"/><path d="M 2400.35 953.65 C 2399.69 951.3, 2397.71 943.81, 2396.39 939.53 C 2395.07 935.26, 2393.09 929.91, 2392.43 927.98" transform="matrix(1 0 0 1 -264.893 -624.893)" fill="none" stroke="#7aa34d" stroke-width="2.563" opacity="0.9"/><path d="M 24.44 0 C 24.29 6.9, 24.32 15.44, 20.25 20.25 C 16.18 25.07, 5.97 29.67, 0 28.89 C -5.97 28.12, -11.2 20.41, -15.6 15.6 C -19.99 10.78, -25.87 5.69, -26.36 0 C -26.84 -5.69, -22.92 -15.43, -18.53 -18.53 C -14.13 -21.62, -6.61 -18.12, 0 -18.56 C 6.61 -19, 17.08 -24.25, 21.16 -21.16 C 25.23 -18.06, 24.59 -6.9, 24.44 0 Z" transform="matrix(1 0 0 1 2396.437 303.549)" fill="#54843f" stroke="#494133" stroke-width="1.5"/><path d="M 11.24 0 C 10.88 3.63, 8.31 6.91, 5.21 9.03 C 2.12 11.15, -4.47 14.22, -7.34 12.71 C -10.2 11.21, -11.86 4.43, -11.97 0 C -12.08 -4.43, -11.22 -11.72, -7.99 -13.85 C -4.77 -15.97, 4.16 -15.07, 7.37 -12.77 C 10.58 -10.46, 11.6 -3.63, 11.24 0 Z" transform="matrix(1 0 0 1 2389.481 296.594)" fill="#82a36d" opacity="0.75"/><path d="M 2886.42 1006.2 C 2887.14 1004.4, 2889.32 998.67, 2890.77 995.4 C 2892.23 992.13, 2894.41 988.04, 2895.13 986.56" transform="matrix(1 0 0 1 -264.893 -624.893)" fill="none" stroke="#53803d" stroke-width="3.27" opacity="0.9"/><path d="M 2904.68 1006.2 C 2904.2 1003.62, 2902.77 995.44, 2901.82 990.76 C 2900.87 986.08, 2899.44 980.23, 2898.96 978.13" transform="matrix(1 0 0 1 -264.893 -624.893)" fill="none" stroke="#53803d" stroke-width="2.873" opacity="0.9"/><path d="M 2892.44 1006.2 C 2892.01 1004.25, 2890.71 998.04, 2889.84 994.49 C 2888.97 990.94, 2887.67 986.51, 2887.24 984.91" transform="matrix(1 0 0 1 -264.893 -624.893)" fill="none" stroke="#53803d" stroke-width="3.107" opacity="0.9"/><path d="M 25.38 0 C 25.82 7.66, 28.51 19.4, 24.28 24.28 C 20.05 29.16, 8.43 28.94, 0 29.28 C -8.43 29.62, -19.77 31.19, -26.31 26.31 C -32.86 21.43, -40.97 7.06, -39.26 0 C -37.54 -7.06, -22.57 -11.52, -16.03 -16.03 C -9.48 -20.53, -6.28 -26.08, 0 -27.02 C 6.28 -27.96, 17.43 -26.16, 21.66 -21.66 C 25.89 -17.15, 24.94 -7.66, 25.38 0 Z" transform="matrix(1 0 0 1 -85.432 544.327)" fill="#966a1d" stroke="#494133" stroke-width="1.5"/><path d="M 12.63 0 C 12.8 3.76, 10.59 9.6, 7.01 12.15 C 3.44 14.7, -5.27 17.34, -8.84 15.31 C -12.41 13.29, -14.26 5.33, -14.39 0 C -14.52 -5.33, -13.01 -14.92, -9.61 -16.65 C -6.21 -18.39, 2.3 -13.19, 6.01 -10.41 C 9.72 -7.64, 12.46 -3.76, 12.63 0 Z" transform="matrix(1 0 0 1 -94.155 535.604)" fill="#b19054" opacity="0.75"/><path d="M 540.14 1200.21 C 539.58 1198.48, 537.91 1192.96, 536.79 1189.81 C 535.67 1186.66, 533.99 1182.72, 533.43 1181.3" transform="matrix(1 0 0 1 -264.893 -624.893)" fill="none" stroke="#85a24d" stroke-width="2.862" opacity="0.9"/><path d="M 532.09 1200.21 C 532.49 1198.41, 533.68 1192.69, 534.47 1189.43 C 535.26 1186.16, 536.45 1182.07, 536.85 1180.6" transform="matrix(1 0 0 1 -264.893 -624.893)" fill="none" stroke="#85a24d" stroke-width="2.468" opacity="0.9"/><path d="M 523.54 1200.21 C 523.42 1198.22, 523.05 1191.9, 522.8 1188.29 C 522.55 1184.68, 522.18 1180.17, 522.06 1178.54" transform="matrix(1 0 0 1 -264.893 -624.893)" fill="none" stroke="#85a24d" stroke-width="2.341" opacity="0.9"/><path d="M 739.93 1197.96 C 740.22 1195.61, 741.09 1188.12, 741.66 1183.84 C 742.24 1179.57, 743.1 1174.22, 743.39 1172.3" transform="matrix(1 0 0 1 -264.893 -624.893)" fill="none" stroke="#8db563" stroke-width="2.96" opacity="0.9"/><path d="M 752.44 1197.96 C 753.09 1196.37, 755.02 1191.34, 756.31 1188.46 C 757.6 1185.58, 759.53 1181.98, 760.17 1180.68" transform="matrix(1 0 0 1 -264.893 -624.893)" fill="none" stroke="#8db563" stroke-width="3.099" opacity="0.9"/><path d="M 740.71 1197.96 C 741.13 1195.71, 742.37 1188.57, 743.21 1184.49 C 744.04 1180.41, 745.29 1175.31, 745.71 1173.47" transform="matrix(1 0 0 1 -264.893 -624.893)" fill="none" stroke="#8db563" stroke-width="2.885" opacity="0.9"/><path d="M 743.8 1197.96 C 743.08 1196.03, 740.94 1189.91, 739.51 1186.41 C 738.09 1182.91, 735.95 1178.54, 735.23 1176.97" transform="matrix(1 0 0 1 -264.893 -624.893)" fill="none" stroke="#8db563" stroke-width="2.957" opacity="0.9"/><path d="M 738.41 1197.96 C 738.16 1195.83, 737.39 1189.07, 736.89 1185.21 C 736.38 1181.35, 735.62 1176.52, 735.36 1174.78" transform="matrix(1 0 0 1 -264.893 -624.893)" fill="none" stroke="#8db563" stroke-width="3.447" opacity="0.9"/><path d="M 30.55 0 C 30.16 9.12, 31.27 21.35, 26.18 26.18 C 21.09 31, 8.06 29.61, 0 28.95 C -8.06 28.28, -17.71 27.03, -22.21 22.21 C -26.71 17.38, -27.18 7.2, -26.98 0 C -26.78 -7.2, -25.51 -14.96, -21.01 -21.01 C -16.51 -27.06, -8.26 -35.04, 0 -36.29 C 8.26 -37.55, 23.44 -34.58, 28.53 -28.53 C 33.62 -22.48, 30.94 -9.12, 30.55 0 Z" transform="matrix(1 0 0 1 642.263 667.923)" fill="#9c7d1f" stroke="#494133" stroke-width="1.5"/><path d="M 18.66 0 C 17.84 4.89, 11.03 7.15, 6.02 10.43 C 1.02 13.71, -7.38 21.43, -11.37 19.69 C -15.36 17.95, -18.57 5.44, -17.92 0 C -17.27 -5.44, -12.27 -9.78, -7.47 -12.93 C -2.66 -16.08, 6.56 -21.06, 10.91 -18.9 C 15.27 -16.75, 19.47 -4.89, 18.66 0 Z" transform="matrix(1 0 0 1 632.768 658.427)" fill="#b59d56" opacity="0.75"/><path d="M 1147.58 1148.19 C 1146.91 1145.6, 1144.92 1137.37, 1143.59 1132.67 C 1142.26 1127.97, 1140.26 1122.09, 1139.6 1119.98" transform="matrix(1 0 0 1 -264.893 -624.893)" fill="none" stroke="#93b15b" stroke-width="2.062" opacity="0.9"/><path d="M 1141.06 1148.19 C 1140.83 1146.51, 1140.16 1141.18, 1139.71 1138.14 C 1139.26 1135.09, 1138.58 1131.29, 1138.35 1129.92" transform="matrix(1 0 0 1 -264.893 -624.893)" fill="none" stroke="#93b15b" stroke-width="2.154" opacity="0.9"/><path d="M 1139.52 1148.19 C 1140.18 1145.75, 1142.14 1138, 1143.45 1133.58 C 1144.76 1129.15, 1146.72 1123.61, 1147.37 1121.62" transform="matrix(1 0 0 1 -264.893 -624.893)" fill="none" stroke="#93b15b" stroke-width="2.874" opacity="0.9"/><rect x="-6" y="-16.943" width="12" height="33.886" rx="3" transform="matrix(1 0 0 1 1222.057 594.178)" fill="#675e4e" stroke="#494133" stroke-width="1.5"/><path d="M 55.23 0 C 56.85 10.06, 48.83 27.33, 40.86 34.28 C 32.88 41.23, 17.76 41.17, 7.35 41.7 C -3.06 42.22, -12.8 41.61, -21.6 37.41 C -30.41 33.22, -42.46 25.19, -45.47 16.55 C -48.48 7.91, -42.52 -3.52, -39.65 -14.43 C -36.78 -25.34, -36.01 -44.77, -28.25 -48.92 C -20.48 -53.08, -2.95 -43.15, 6.94 -39.35 C 16.83 -35.54, 23.05 -32.65, 31.1 -26.09 C 39.15 -19.54, 53.6 -10.06, 55.23 0 Z" transform="matrix(1 0 0 1 1222.057 567.553)" fill="#4f843f" stroke="#23201a" stroke-width="2"/><path d="M 25.31 0 C 25.06 8.46, 24.82 19.53, 19.49 24.43 C 14.15 29.34, 0.98 31.35, -6.71 29.42 C -14.41 27.48, -22.79 20.15, -26.67 12.84 C -30.55 5.54, -33.32 -7.44, -29.98 -14.44 C -26.65 -21.44, -15.15 -27.19, -6.66 -29.17 C 1.83 -31.15, 15.64 -31.16, 20.97 -26.3 C 26.3 -21.43, 25.56 -8.46, 25.31 0 Z" transform="matrix(1 0 0 1 1207.534 552.062)" fill="#739d4a" opacity="0.7"/><path d="M 35.1 0 C 35.16 7.66, 29.01 17.51, 23.16 23.16 C 17.31 28.8, 7.12 34.48, 0 33.88 C -7.12 33.28, -13.16 25.18, -19.54 19.54 C -25.92 13.89, -37.91 6.88, -38.28 0 C -38.65 -6.88, -28.14 -17.58, -21.76 -21.76 C -15.38 -25.94, -7.43 -24.92, 0 -25.1 C 7.43 -25.27, 16.95 -26.98, 22.8 -22.8 C 28.65 -18.61, 35.04 -7.66, 35.1 0 Z" transform="matrix(1 0 0 1 1435.124 582.121)" fill="#82a34d" stroke="#494133" stroke-width="1.5"/><path d="M 20.38 0 C 19.94 3.99, 10.04 7.87, 5.59 9.68 C 1.15 11.5, -2.09 12.51, -6.29 10.89 C -10.49 9.28, -19.57 3.73, -19.63 0 C -19.68 -3.73, -11.26 -9.1, -6.62 -11.47 C -1.98 -13.84, 3.72 -16.14, 8.22 -14.23 C 12.72 -12.32, 20.82 -3.99, 20.38 0 Z" transform="matrix(1 0 0 1 1425.943 572.94)" fill="#a3b977" opacity="0.75"/><path d="M 25.48 0 C 27 6.53, 28.4 19.81, 24.15 24.15 C 19.91 28.49, 7.37 26.72, 0 26.04 C -7.37 25.36, -16.44 24.41, -20.07 20.07 C -23.71 15.73, -22.59 5.92, -21.82 0 C -21.04 -5.92, -19.06 -11.45, -15.42 -15.42 C -11.79 -19.39, -5.07 -23.87, 0 -23.81 C 5.07 -23.74, 10.78 -18.99, 15.03 -15.03 C 19.27 -11.06, 23.95 -6.53, 25.48 0 Z" transform="matrix(1 0 0 1 2515.163 557.507)" fill="#96af56" stroke="#494133" stroke-width="1.5"/><path d="M 16.98 0 C 16.96 3.29, 9.42 8.07, 5.62 9.74 C 1.83 11.41, -2.33 11.63, -5.78 10.01 C -9.22 8.38, -14.51 4.29, -15.06 0 C -15.61 -4.29, -12.55 -14.06, -9.08 -15.73 C -5.61 -17.4, 1.43 -12.63, 5.78 -10.01 C 10.12 -7.39, 17.01 -3.29, 16.98 0 Z" transform="matrix(1 0 0 1 2507.212 549.556)" fill="#b1c17d" opacity="0.75"/><path d="M 2965.13 1163.97 C 2964.91 1161.26, 2964.25 1152.62, 2963.81 1147.68 C 2963.37 1142.74, 2962.71 1136.56, 2962.49 1134.34" transform="matrix(1 0 0 1 -264.893 -624.893)" fill="none" stroke="#55853f" stroke-width="2.731" opacity="0.9"/><path d="M 2973.89 1163.97 C 2974.26 1161.46, 2975.35 1153.45, 2976.08 1148.87 C 2976.81 1144.3, 2977.91 1138.58, 2978.27 1136.52" transform="matrix(1 0 0 1 -264.893 -624.893)" fill="none" stroke="#55853f" stroke-width="2.105" opacity="0.9"/><path d="M 2971.68 1163.97 C 2971.82 1161.57, 2972.23 1153.93, 2972.51 1149.56 C 2972.78 1145.19, 2973.2 1139.73, 2973.33 1137.77" transform="matrix(1 0 0 1 -264.893 -624.893)" fill="none" stroke="#55853f" stroke-width="2.538" opacity="0.9"/><path d="M 26.45 0 C 27.53 5.93, 25.47 16.4, 21.06 21.06 C 16.65 25.72, 6.78 28.2, 0 27.96 C -6.78 27.71, -14.38 24.25, -19.59 19.59 C -24.8 14.93, -30.84 6.95, -31.26 0 C -31.68 -6.95, -27.32 -16.8, -22.11 -22.11 C -16.91 -27.43, -6.11 -33.18, 0 -31.92 C 6.11 -30.66, 10.14 -19.86, 14.54 -14.54 C 18.95 -9.22, 25.36 -5.93, 26.45 0 Z" transform="matrix(1 0 0 1 15.71 921.804)" fill="#87a54e" stroke="#494133" stroke-width="1.5"/><path d="M 13.88 0 C 13.67 2.94, 7.99 5.71, 4.49 7.77 C 0.98 9.84, -4.8 13.69, -7.15 12.39 C -9.51 11.09, -9.44 4.5, -9.65 0 C -9.87 -4.5, -11 -12.97, -8.44 -14.62 C -5.88 -16.27, 1.99 -12.32, 5.71 -9.89 C 9.43 -7.45, 14.08 -2.94, 13.88 0 Z" transform="matrix(1 0 0 1 8.692 914.786)" fill="#a6ba77" opacity="0.75"/><path d="M 410.75 1534.87 C 410.1 1532.78, 408.16 1526.13, 406.86 1522.33 C 405.57 1518.52, 403.63 1513.77, 402.98 1512.06" transform="matrix(1 0 0 1 -264.893 -624.893)" fill="none" stroke="#4b7c3b" stroke-width="3.394" opacity="0.9"/><path d="M 424.13 1534.87 C 423.47 1532.37, 421.51 1524.42, 420.21 1519.87 C 418.9 1515.32, 416.94 1509.64, 416.29 1507.59" transform="matrix(1 0 0 1 -264.893 -624.893)" fill="none" stroke="#4b7c3b" stroke-width="2.563" opacity="0.9"/><path d="M 423.5 1534.87 C 423.27 1532.66, 422.57 1525.6, 422.1 1521.57 C 421.64 1517.54, 420.94 1512.51, 420.71 1510.69" transform="matrix(1 0 0 1 -264.893 -624.893)" fill="none" stroke="#4b7c3b" stroke-width="2.589" opacity="0.9"/><path d="M 406.11 1534.87 C 406.09 1532.88, 406.01 1526.55, 405.96 1522.93 C 405.91 1519.31, 405.84 1514.79, 405.82 1513.16" transform="matrix(1 0 0 1 -264.893 -624.893)" fill="none" stroke="#4b7c3b" stroke-width="2.035" opacity="0.9"/><path d="M 418.77 1534.87 C 418.54 1532.87, 417.84 1526.49, 417.37 1522.85 C 416.91 1519.2, 416.21 1514.65, 415.98 1513.01" transform="matrix(1 0 0 1 -264.893 -624.893)" fill="none" stroke="#4b7c3b" stroke-width="2.584" opacity="0.9"/><path d="M 783.07 1459.53 C 783.18 1457.65, 783.54 1451.66, 783.77 1448.24 C 784 1444.83, 784.36 1440.55, 784.47 1439.01" transform="matrix(1 0 0 1 -264.893 -624.893)" fill="none" stroke="#9eb563" stroke-width="3.14" opacity="0.9"/><path d="M 775.99 1459.53 C 776.24 1457.79, 777 1452.27, 777.51 1449.11 C 778.02 1445.95, 778.78 1442.01, 779.03 1440.59" transform="matrix(1 0 0 1 -264.893 -624.893)" fill="none" stroke="#9eb563" stroke-width="3.277" opacity="0.9"/><path d="M 787.83 1459.53 C 787.31 1458.05, 785.76 1453.33, 784.73 1450.64 C 783.69 1447.95, 782.14 1444.58, 781.62 1443.37" transform="matrix(1 0 0 1 -264.893 -624.893)" fill="none" stroke="#9eb563" stroke-width="3.115" opacity="0.9"/><path d="M 30.23 0 C 31.34 5.58, 25.11 16.53, 20.07 20.07 C 15.03 23.61, 7.01 20.91, 0 21.23 C -7.01 21.55, -17.69 25.53, -21.99 21.99 C -26.28 18.45, -26.01 7.09, -25.77 0 C -25.53 -7.09, -24.84 -16.84, -20.55 -20.55 C -16.26 -24.26, -5.66 -23.48, 0 -22.28 C 5.66 -21.09, 8.36 -17.12, 13.4 -13.4 C 18.44 -9.69, 29.12 -5.58, 30.23 0 Z" transform="matrix(1 0 0 1 749.354 808.896)" fill="#7a9f4b" stroke="#494133" stroke-width="1.5"/><path d="M 10.58 0 C 10.31 2.98, 6.93 6.13, 4.35 7.54 C 1.78 8.94, -2.52 9.69, -4.87 8.43 C -7.22 7.18, -9.82 2.73, -9.77 0 C -9.72 -2.73, -7.2 -6.21, -4.58 -7.93 C -1.96 -9.65, 3.43 -11.64, 5.96 -10.32 C 8.48 -9, 10.85 -2.98, 10.58 0 Z" transform="matrix(1 0 0 1 742.443 801.985)" fill="#9db675" opacity="0.75"/><path d="M 1198.7 1394.28 C 1199.16 1392.57, 1200.55 1387.13, 1201.48 1384.02 C 1202.41 1380.92, 1203.8 1377.03, 1204.26 1375.63" transform="matrix(1 0 0 1 -264.893 -624.893)" fill="none" stroke="#7b9f4b" stroke-width="2.226" opacity="0.9"/><path d="M 1211.39 1394.28 C 1211.53 1391.62, 1211.92 1383.16, 1212.19 1378.32 C 1212.45 1373.48, 1212.85 1367.44, 1212.98 1365.26" transform="matrix(1 0 0 1 -264.893 -624.893)" fill="none" stroke="#7b9f4b" stroke-width="2.257" opacity="0.9"/><path d="M 1204.82 1394.28 C 1204.36 1392.51, 1202.96 1386.89, 1202.03 1383.68 C 1201.1 1380.47, 1199.7 1376.45, 1199.24 1375.01" transform="matrix(1 0 0 1 -264.893 -624.893)" fill="none" stroke="#7b9f4b" stroke-width="3.26" opacity="0.9"/><rect x="-6" y="-17.147" width="12" height="34.293" rx="3" transform="matrix(1 0 0 1 1131.527 949.748)" fill="#665c4d" stroke="#494133" stroke-width="1.5"/><path d="M 46.5 0 C 45.84 9.84, 39.27 18.5, 33.17 27.83 C 27.06 37.16, 18.84 54.66, 9.87 55.99 C 0.9 57.31, -9.77 41.74, -20.65 35.77 C -31.53 29.8, -50.78 29.06, -55.4 20.16 C -60.02 11.27, -53.73 -7.52, -48.38 -17.61 C -43.03 -27.7, -32.92 -34.57, -23.32 -40.39 C -13.71 -46.21, -0.82 -54.06, 9.26 -52.52 C 19.34 -50.99, 30.96 -39.94, 37.17 -31.19 C 43.38 -22.44, 47.17 -9.84, 46.5 0 Z" transform="matrix(1 0 0 1 1131.527 922.803)" fill="#4f8640" stroke="#23201a" stroke-width="2"/><path d="M 25.07 0 C 25.78 6.42, 22.8 17.02, 17.5 21.94 C 12.2 26.86, -0.67 31.64, -6.73 29.5 C -12.79 27.36, -15.67 16.08, -18.86 9.08 C -22.05 2.09, -27.8 -5.67, -25.86 -12.46 C -23.92 -19.25, -13.74 -30.97, -7.23 -31.66 C -0.71 -32.35, 7.85 -21.87, 13.24 -16.6 C 18.62 -11.32, 24.36 -6.42, 25.07 0 Z" transform="matrix(1 0 0 1 1116.83 907.126)" fill="#739d4b" opacity="0.7"/><path d="M 29.08 0 C 29.17 4.66, 19.08 10.55, 14.23 14.23 C 9.39 17.92, 4.6 22.28, 0 22.13 C -4.6 21.99, -9.01 17.03, -13.34 13.34 C -17.67 9.65, -25.38 5.02, -25.96 0 C -26.53 -5.02, -21.12 -13.61, -16.8 -16.8 C -12.47 -19.99, -5.08 -19.65, 0 -19.13 C 5.08 -18.61, 8.86 -16.89, 13.7 -13.7 C 18.55 -10.52, 28.99 -4.66, 29.08 0 Z" transform="matrix(1 0 0 1 1393.968 876.44)" fill="#3f7035" stroke="#494133" stroke-width="1.5"/><path d="M 9.81 0 C 10.28 3.28, 10.09 9.99, 7.11 12.32 C 4.13 14.64, -5.52 16.01, -8.06 13.95 C -10.59 11.9, -8.46 3.99, -8.08 0 C -7.7 -3.99, -7.83 -8.77, -5.77 -10 C -3.72 -11.22, 1.65 -9.01, 4.24 -7.35 C 6.84 -5.68, 9.33 -3.28, 9.81 0 Z" transform="matrix(1 0 0 1 1387.241 869.713)" fill="#739465" opacity="0.75"/><path d="M 1887.4 1498.42 C 1887.78 1496.58, 1888.91 1490.75, 1889.67 1487.42 C 1890.42 1484.08, 1891.56 1479.92, 1891.94 1478.42" transform="matrix(1 0 0 1 -264.893 -624.893)" fill="none" stroke="#8ba54e" stroke-width="2.013" opacity="0.9"/><path d="M 1905.82 1498.42 C 1905.72 1496.75, 1905.43 1491.44, 1905.23 1488.41 C 1905.04 1485.38, 1904.74 1481.59, 1904.65 1480.23" transform="matrix(1 0 0 1 -264.893 -624.893)" fill="none" stroke="#8ba54e" stroke-width="2.945" opacity="0.9"/><path d="M 1906.04 1498.42 C 1905.59 1496.5, 1904.23 1490.41, 1903.33 1486.93 C 1902.42 1483.44, 1901.07 1479.09, 1900.62 1477.52" transform="matrix(1 0 0 1 -264.893 -624.893)" fill="none" stroke="#8ba54e" stroke-width="2.462" opacity="0.9"/><rect x="-6" y="-14.536" width="12" height="29.072" rx="3" transform="matrix(1 0 0 1 1938 934.405)" fill="#675d4e" stroke="#494133" stroke-width="1.5"/><path d="M 35.74 0 C 36.7 8.48, 37.83 20.35, 33.2 27.86 C 28.57 35.37, 17.23 43.2, 7.95 45.06 C -1.34 46.92, -15.46 44.44, -22.53 39.03 C -29.6 33.61, -32.54 21.13, -34.49 12.55 C -36.43 3.97, -36.55 -4.47, -34.2 -12.45 C -31.85 -20.43, -27.51 -29.36, -20.39 -35.32 C -13.28 -41.29, 0.53 -50.27, 8.5 -48.22 C 16.47 -46.17, 22.9 -31.06, 27.44 -23.03 C 31.98 -14.99, 34.78 -8.48, 35.74 0 Z" transform="matrix(1 0 0 1 1938 911.562)" fill="#558941" stroke="#23201a" stroke-width="2"/><path d="M 28.4 0 C 28.85 4.87, 18.48 13.21, 13.04 16.35 C 7.59 19.48, 2.31 19.38, -4.29 18.79 C -10.89 18.2, -23 18, -26.58 12.8 C -30.16 7.6, -29.21 -5.86, -25.79 -12.42 C -22.37 -18.98, -12.07 -26.46, -6.06 -26.54 C -0.04 -26.62, 4.54 -17.32, 10.29 -12.9 C 16.03 -8.48, 27.94 -4.87, 28.4 0 Z" transform="matrix(1 0 0 1 1925.541 898.272)" fill="#759f4b" opacity="0.7"/><rect x="-6" y="-17.527" width="12" height="35.054" rx="3" transform="matrix(1 0 0 1 2280.036 916.695)" fill="#615849" stroke="#494133" stroke-width="1.5"/><path d="M 45.15 0 C 42.74 10.74, 37.11 17.13, 31.18 26.16 C 25.24 35.19, 18.03 52.86, 9.55 54.17 C 1.08 55.49, -10.97 40.5, -19.66 34.06 C -28.35 27.61, -38.13 24, -42.6 15.51 C -47.08 7.01, -49.13 -6.56, -46.52 -16.93 C -43.92 -27.31, -35.93 -42.79, -26.98 -46.73 C -18.03 -50.68, -4.94 -42.02, 7.16 -40.62 C 19.27 -39.21, 39.31 -45.07, 45.64 -38.3 C 51.97 -31.53, 47.56 -10.74, 45.15 0 Z" transform="matrix(1 0 0 1 2280.036 889.153)" fill="#537e3c" stroke="#23201a" stroke-width="2"/><path d="M 20.33 0 C 21.92 7.05, 25.82 23.77, 21.66 27.16 C 17.5 30.55, 2.44 23.18, -4.64 20.32 C -11.72 17.47, -18.59 14.85, -20.81 10.02 C -23.03 5.19, -20.38 -2.44, -17.95 -8.64 C -15.51 -14.84, -11.21 -26.08, -6.2 -27.16 C -1.19 -28.25, 7.67 -19.69, 12.09 -15.16 C 16.51 -10.63, 18.73 -7.05, 20.33 0 Z" transform="matrix(1 0 0 1 2265.013 873.129)" fill="#759a49" opacity="0.7"/><rect x="-95" y="-17" width="190" height="34" rx="8" transform="matrix(1 0 0 1 2715.107 1035.107)" fill="#b9a882" stroke="#494133" stroke-width="2"/><rect x="-75" y="-10" width="150" height="20" rx="6" transform="matrix(1 0 0 1 2715.107 1015.107)" fill="#cfc2a4" stroke="#494133" stroke-width="1.5"/><rect x="-10" y="-21" width="20" height="42" rx="4" transform="matrix(1 0 0 1 2595.107 1005.107)" fill="#6c6252" stroke="#494133" stroke-width="2"/><rect x="-6.5" y="-6.5" width="13" height="13" rx="2" transform="matrix(1 0 0 1 2595.107 997.107)" fill="#e3c054"/><rect x="-10" y="-21" width="20" height="42" rx="4" transform="matrix(1 0 0 1 2835.107 1005.107)" fill="#6c6252" stroke="#494133" stroke-width="2"/><rect x="-6.5" y="-6.5" width="13" height="13" rx="2" transform="matrix(1 0 0 1 2835.107 997.107)" fill="#e3c054"/><circle cx="0" cy="0" r="80" transform="matrix(1 0 0 1 2715.107 975.107)" fill="none" stroke="#d9583c" stroke-width="4" opacity="0.7"/><text x="0" y="0" font-size="96" text-anchor="middle" dominant-baseline="middle" fill="#b23a24" transform="matrix(1 0 0 1 2715.107 981.107)">⛩</text><circle cx="0" cy="0" r="42" transform="matrix(1 0 0 1 846.061 506.062)" fill="rgba(227, 192, 84, 0.1)"/><circle cx="0" cy="0" r="32" transform="matrix(1 0 0 1 846.061 506.062)" fill="rgba(227, 192, 84, 0.16)"/><circle cx="0" cy="0" r="14" transform="matrix(1 0 0 1 846.061 532.062)" fill="rgba(35, 32, 26, 0.18)"/><rect x="-15" y="-19" width="30" height="38" rx="12" transform="matrix(1 0 0 1 846.061 506.062)" fill="#e3c054" stroke="#23201a" stroke-width="3"/><rect x="-10" y="-15" width="20" height="30" rx="8" transform="matrix(1 0 0 1 846.061 506.062)" fill="#eedba2" opacity="0.85"/><rect x="-13" y="-1" width="26" height="2" transform="matrix(1 0 0 1 846.061 498.062)" fill="rgba(73, 65, 51, 0.5)"/><rect x="-13" y="-1" width="26" height="2" transform="matrix(1 0 0 1 846.061 506.062)" fill="rgba(73, 65, 51, 0.5)"/><rect x="-13" y="-1" width="26" height="2" transform="matrix(1 0 0 1 846.061 514.062)" fill="rgba(73, 65, 51, 0.5)"/><rect x="-11" y="-3" width="22" height="6" rx="2" transform="matrix(1 0 0 1 846.061 484.062)" fill="#23201a"/><rect x="-8" y="-2.5" width="16" height="5" rx="2" transform="matrix(1 0 0 1 846.061 527.062)" fill="#23201a"/><circle cx="0" cy="0" r="4" transform="matrix(1 0 0 1 846.061 478.062)" fill="none" stroke="#23201a" stroke-width="2"/><circle cx="0" cy="0" r="5" transform="matrix(1 0 0 1 846.061 506.062)" fill="#f7f1e2"/><rect x="-450" y="-30" width="900" height="60" rx="12" transform="matrix(1 0 0 1 640 60)" fill="#23201a" stroke="#b9a882" stroke-width="2" opacity="0.88"/><text x="0" y="0" font-size="24" text-anchor="middle" dominant-baseline="middle" fill="#f7f1e2" transform="matrix(1 0 0 1 640 68)">Arrow keys — cross the field to the ⛩ shrine   ·   R restart</text><circle cx="0" cy="0" r="26" transform="matrix(1 0 0 1 640 656)" fill="#23201a" stroke="#b9a882" stroke-width="2" opacity="0.85"/><polygon points="20,0 -10,-11 -10,11" transform="matrix(0.97 0.243 -0.243 0.97 640 656)" fill="#d9583c" stroke="#f7f1e2" stroke-width="1.5"/></svg>