<svg xmlns="http://www.w3.org/2000/svg" viewBox="0 0 1280 720" width="1280" height="720"><rect x="0" y="0" width="1280" height="720" fill="#efe7d3"/><rect x="-640" y="-360" width="1280" height="720" transform="matrix(1 0 0 1 640 360)" fill="#efe7d3"/><circle cx="0" cy="0" r="3.028" transform="matrix(1 0 0 1 25.615 54.177)" fill="#d3c4a1" opacity="0.339"/><circle cx="0" cy="0" r="2.866" transform="matrix(1 0 0 1 143.287 22.474)" fill="#d2c39f" opacity="0.403"/><circle cx="0" cy="0" r="2.495" transform="matrix(1 0 0 1 215.056 31.82)" fill="#dbd0b3" opacity="0.366"/><circle cx="0" cy="0" r="3.066" transform="matrix(1 0 0 1 337.905 40.176)" fill="#e7ddc5" opacity="0.322"/><circle cx="0" cy="0" r="1.489" transform="matrix(1 0 0 1 422.358 36.46)" fill="#bfb08e" opacity="0.451"/><circle cx="0" cy="0" r="1.802" transform="matrix(1 0 0 1 513.318 50.754)" fill="#e9dfc8" opacity="0.496"/><circle cx="0" cy="0" r="3.132" transform="matrix(1 0 0 1 605.556 44.16)" fill="#d5c7a6" opacity="0.431"/><circle cx="0" cy="0" r="2.006" transform="matrix(1 0 0 1 717.773 47.354)" fill="#e5d9bf" opacity="0.422"/><circle cx="0" cy="0" r="1.583" transform="matrix(1 0 0 1 795.238 36.868)" fill="#dbcfb2" opacity="0.31"/><circle cx="0" cy="0" r="2.119" transform="matrix(1 0 0 1 907.268 29.029)" fill="#dfd0b0" opacity="0.477"/><circle cx="0" cy="0" r="2.083" transform="matrix(1 0 0 1 1007.439 37.485)" fill="#b29f75" opacity="0.477"/><circle cx="0" cy="0" r="2.82" transform="matrix(1 0 0 1 1081.467 37.402)" fill="#e0d2b3" opacity="0.465"/><circle cx="0" cy="0" r="2.103" transform="matrix(1 0 0 1 1208.215 56.646)" fill="#b2a076" opacity="0.418"/><circle cx="0" cy="0" r="1.525" transform="matrix(1 0 0 1 52.666 129.583)" fill="#eae0cb" opacity="0.419"/><circle cx="0" cy="0" r="2.793" transform="matrix(1 0 0 1 141.853 141.318)" fill="#e8dec7" opacity="0.452"/><circle cx="0" cy="0" r="2.937" transform="matrix(1 0 0 1 238.53 153.454)" fill="#ded2b8" opacity="0.426"/><circle cx="0" cy="0" r="2.62" transform="matrix(1 0 0 1 327.931 153.288)" fill="#b3a178" opacity="0.395"/><circle cx="0" cy="0" r="1.45" transform="matrix(1 0 0 1 419.86 130.868)" fill="#e6dbc2" opacity="0.402"/><circle cx="0" cy="0" r="2.195" transform="matrix(1 0 0 1 512.027 134.57)" fill="#b2a076" opacity="0.452"/><circle cx="0" cy="0" r="1.754" transform="matrix(1 0 0 1 625.262 125.708)" fill="#dcd0b4" opacity="0.371"/><circle cx="0" cy="0" r="2.368" transform="matrix(1 0 0 1 724.927 143.061)" fill="#dacdaf" opacity="0.269"/><circle cx="0" cy="0" r="2.655" transform="matrix(1 0 0 1 807.702 128.812)" fill="#e8dec7" opacity="0.444"/><circle cx="0" cy="0" r="1.804" transform="matrix(1 0 0 1 895.631 135.308)" fill="#bcab87" opacity="0.404"/><circle cx="0" cy="0" r="2.465" transform="matrix(1 0 0 1 1008.986 135.958)" fill="#e6dbc2" opacity="0.35"/><circle cx="0" cy="0" r="3.051" transform="matrix(1 0 0 1 1107.852 119.538)" fill="#e7ddc5" opacity="0.302"/><circle cx="0" cy="0" r="3.037" transform="matrix(1 0 0 1 1187.658 135.941)" fill="#bdad89" opacity="0.285"/><circle cx="0" cy="0" r="2.888" transform="matrix(1 0 0 1 27.054 235.661)" fill="#d4c6a4" opacity="0.5"/><circle cx="0" cy="0" r="2.491" transform="matrix(1 0 0 1 145.127 239.048)" fill="#ded0af" opacity="0.281"/><circle cx="0" cy="0" r="1.702" transform="matrix(1 0 0 1 234.083 236.263)" fill="#bbab86" opacity="0.385"/><circle cx="0" cy="0" r="1.447" transform="matrix(1 0 0 1 341.724 224.054)" fill="#bfaf8c" opacity="0.445"/><circle cx="0" cy="0" r="1.764" transform="matrix(1 0 0 1 423.327 220.246)" fill="#e6dac1" opacity="0.372"/><circle cx="0" cy="0" r="2.725" transform="matrix(1 0 0 1 513.441 223.879)" fill="#ded0af" opacity="0.443"/><circle cx="0" cy="0" r="2.317" transform="matrix(1 0 0 1 600.641 249.562)" fill="#bcac87" opacity="0.476"/><circle cx="0" cy="0" r="3.176" transform="matrix(1 0 0 1 710.138 227.949)" fill="#bdad89" opacity="0.438"/><circle cx="0" cy="0" r="2.138" transform="matrix(1 0 0 1 800.159 238.828)" fill="#dfd1b1" opacity="0.421"/><circle cx="0" cy="0" r="1.864" transform="matrix(1 0 0 1 903.335 220.454)" fill="#bfaf8d" opacity="0.28"/><circle cx="0" cy="0" r="2.183" transform="matrix(1 0 0 1 989.683 239.931)" fill="#c0b18f" opacity="0.353"/><circle cx="0" cy="0" r="2.355" transform="matrix(1 0 0 1 1101.718 214.739)" fill="#d2c4a0" opacity="0.264"/><circle cx="0" cy="0" r="1.481" transform="matrix(1 0 0 1 1207.874 233.826)" fill="#e5d9bf" opacity="0.458"/><circle cx="0" cy="0" r="2.74" transform="matrix(1 0 0 1 53.646 315.028)" fill="#e5d9bf" opacity="0.26"/><circle cx="0" cy="0" r="2.786" transform="matrix(1 0 0 1 129.095 337.292)" fill="#eae0cb" opacity="0.408"/><circle cx="0" cy="0" r="2.01" transform="matrix(1 0 0 1 249.47 323.239)" fill="#b5a37a" opacity="0.453"/><circle cx="0" cy="0" r="1.898" transform="matrix(1 0 0 1 338.08 334.706)" fill="#b5a37b" opacity="0.472"/><circle cx="0" cy="0" r="2.165" transform="matrix(1 0 0 1 437.293 314.534)" fill="#e8dec7" opacity="0.346"/><circle cx="0" cy="0" r="1.667" transform="matrix(1 0 0 1 514.662 332.849)" fill="#b6a57d" opacity="0.295"/><circle cx="0" cy="0" r="3.039" transform="matrix(1 0 0 1 603.783 334.417)" fill="#b9a882" opacity="0.333"/><circle cx="0" cy="0" r="2.369" transform="matrix(1 0 0 1 725.569 337.124)" fill="#e2d5b9" opacity="0.444"/><circle cx="0" cy="0" r="2.012" transform="matrix(1 0 0 1 813.39 331.118)" fill="#dcd0b4" opacity="0.292"/><circle cx="0" cy="0" r="1.738" transform="matrix(1 0 0 1 896.398 333.951)" fill="#dfd1b2" opacity="0.401"/><circle cx="0" cy="0" r="2.096" transform="matrix(1 0 0 1 1016.438 341.53)" fill="#d3c5a2" opacity="0.36"/><circle cx="0" cy="0" r="2.712" transform="matrix(1 0 0 1 1093.466 329.932)" fill="#b6a47d" opacity="0.261"/><circle cx="0" cy="0" r="2.51" transform="matrix(1 0 0 1 1175.349 335.63)" fill="#d5c7a5" opacity="0.443"/><circle cx="0" cy="0" r="2.878" transform="matrix(1 0 0 1 44.567 441.93)" fill="#b4a279" opacity="0.458"/><circle cx="0" cy="0" r="1.565" transform="matrix(1 0 0 1 142.299 440.859)" fill="#d7caaa" opacity="0.27"/><circle cx="0" cy="0" r="2.77" transform="matrix(1 0 0 1 232.771 418.643)" fill="#dbcfb3" opacity="0.325"/><circle cx="0" cy="0" r="1.791" transform="matrix(1 0 0 1 320.319 429.669)" fill="#e7ddc6" opacity="0.482"/><circle cx="0" cy="0" r="1.505" transform="matrix(1 0 0 1 407.419 410.658)" fill="#e1d3b5" opacity="0.414"/><circle cx="0" cy="0" r="3.08" transform="matrix(1 0 0 1 506.724 436.578)" fill="#bdac88" opacity="0.327"/><circle cx="0" cy="0" r="2.086" transform="matrix(1 0 0 1 630.435 427.369)" fill="#beae8b" opacity="0.371"/><circle cx="0" cy="0" r="3.181" transform="matrix(1 0 0 1 702.354 420.323)" fill="#e1d4b6" opacity="0.314"/><circle cx="0" cy="0" r="2.139" transform="matrix(1 0 0 1 801.578 406.25)" fill="#eae0cb" opacity="0.356"/><circle cx="0" cy="0" r="1.964" transform="matrix(1 0 0 1 896.018 424.256)" fill="#e0d2b3" opacity="0.339"/><circle cx="0" cy="0" r="2.072" transform="matrix(1 0 0 1 988.914 422.75)" fill="#e8ddc6" opacity="0.441"/><circle cx="0" cy="0" r="1.74" transform="matrix(1 0 0 1 1097.785 418.406)" fill="#d5c7a5" opacity="0.258"/><circle cx="0" cy="0" r="2.305" transform="matrix(1 0 0 1 1176.266 427.958)" fill="#e7dcc3" opacity="0.397"/><circle cx="0" cy="0" r="2.722" transform="matrix(1 0 0 1 46.339 503.713)" fill="#e4d8bd" opacity="0.354"/><circle cx="0" cy="0" r="2.137" transform="matrix(1 0 0 1 138.95 529.166)" fill="#d9cdaf" opacity="0.424"/><circle cx="0" cy="0" r="2.205" transform="matrix(1 0 0 1 226.01 525.82)" fill="#e2d6b9" opacity="0.476"/><circle cx="0" cy="0" r="2.134" transform="matrix(1 0 0 1 337.701 506.223)" fill="#e0d2b2" opacity="0.414"/><circle cx="0" cy="0" r="1.412" transform="matrix(1 0 0 1 418.531 532.521)" fill="#b3a178" opacity="0.337"/><circle cx="0" cy="0" r="2.843" transform="matrix(1 0 0 1 506.975 504.138)" fill="#d6c8a8" opacity="0.268"/><circle cx="0" cy="0" r="2.185" transform="matrix(1 0 0 1 630.531 503.301)" fill="#d9ccad" opacity="0.426"/><circle cx="0" cy="0" r="2.232" transform="matrix(1 0 0 1 711.011 504.511)" fill="#b29f75" opacity="0.272"/><circle cx="0" cy="0" r="2.575" transform="matrix(1 0 0 1 792.38 514.982)" fill="#beae8b" opacity="0.325"/><circle cx="0" cy="0" r="2.846" transform="matrix(1 0 0 1 921.512 530.928)" fill="#ded3b8" opacity="0.304"/><circle cx="0" cy="0" r="1.885" transform="matrix(1 0 0 1 1012.664 508.197)" fill="#e7dcc3" opacity="0.423"/><circle cx="0" cy="0" r="2.119" transform="matrix(1 0 0 1 1089.687 531.952)" fill="#bfaf8c" opacity="0.373"/><circle cx="0" cy="0" r="2.613" transform="matrix(1 0 0 1 1198.837 533.257)" fill="#e4d8bd" opacity="0.392"/><circle cx="0" cy="0" r="1.953" transform="matrix(1 0 0 1 31.795 612.318)" fill="#e4d9be" opacity="0.317"/><circle cx="0" cy="0" r="3.008" transform="matrix(1 0 0 1 142.395 618.633)" fill="#d8cbac" opacity="0.255"/><circle cx="0" cy="0" r="1.859" transform="matrix(1 0 0 1 239.359 630.891)" fill="#d3c5a2" opacity="0.303"/><circle cx="0" cy="0" r="1.73" transform="matrix(1 0 0 1 341.51 599.302)" fill="#e4d7bc" opacity="0.406"/><circle cx="0" cy="0" r="2.584" transform="matrix(1 0 0 1 425.043 617.629)" fill="#d8cbab" opacity="0.324"/><circle cx="0" cy="0" r="1.939" transform="matrix(1 0 0 1 533.07 625.304)" fill="#e6dbc3" opacity="0.481"/><circle cx="0" cy="0" r="1.678" transform="matrix(1 0 0 1 599.783 633.986)" fill="#e9dfc8" opacity="0.254"/><circle cx="0" cy="0" r="1.788" transform="matrix(1 0 0 1 700.926 618.992)" fill="#b5a37a" opacity="0.367"/><circle cx="0" cy="0" r="2.449" transform="matrix(1 0 0 1 816.781 611.787)" fill="#e0d2b3" opacity="0.252"/><circle cx="0" cy="0" r="1.502" transform="matrix(1 0 0 1 904.026 622.35)" fill="#d2c39f" opacity="0.3"/><circle cx="0" cy="0" r="3.107" transform="matrix(1 0 0 1 1005.93 630.273)" fill="#ddd2b7" opacity="0.297"/><circle cx="0" cy="0" r="2.692" transform="matrix(1 0 0 1 1092.618 633.285)" fill="#b7a57e" opacity="0.345"/><circle cx="0" cy="0" r="2.463" transform="matrix(1 0 0 1 1201.067 601.091)" fill="#b29f76" opacity="0.455"/><circle cx="0" cy="0" r="2.473" transform="matrix(1 0 0 1 54.316 721.722)" fill="#e6dac1" opacity="0.315"/><circle cx="0" cy="0" r="2.02" transform="matrix(1 0 0 1 125.041 723.263)" fill="#d2c39f" opacity="0.409"/><circle cx="0" cy="0" r="1.745" transform="matrix(1 0 0 1 221.37 694.674)" fill="#dfd1b1" opacity="0.378"/><circle cx="0" cy="0" r="2.088" transform="matrix(1 0 0 1 343.427 728.43)" fill="#e0d3b4" opacity="0.363"/><circle cx="0" cy="0" r="2.594" transform="matrix(1 0 0 1 441.398 724.497)" fill="#beae8b" opacity="0.34"/><circle cx="0" cy="0" r="2.471" transform="matrix(1 0 0 1 509.635 702.946)" fill="#decfaf" opacity="0.375"/><circle cx="0" cy="0" r="1.816" transform="matrix(1 0 0 1 619.253 728.57)" fill="#b3a177" opacity="0.351"/><circle cx="0" cy="0" r="2.008" transform="matrix(1 0 0 1 697.351 726.443)" fill="#bdad8a" opacity="0.486"/><circle cx="0" cy="0" r="2.281" transform="matrix(1 0 0 1 812.971 724.174)" fill="#ddd1b6" opacity="0.262"/><circle cx="0" cy="0" r="2.286" transform="matrix(1 0 0 1 901.136 700.514)" fill="#d7caaa" opacity="0.369"/><circle cx="0" cy="0" r="1.899" transform="matrix(1 0 0 1 989.349 717.378)" fill="#d2c39f" opacity="0.264"/><circle cx="0" cy="0" r="2.777" transform="matrix(1 0 0 1 1097.706 702.478)" fill="#dcd0b4" opacity="0.436"/><circle cx="0" cy="0" r="2.353" transform="matrix(1 0 0 1 1208.224 708.451)" fill="#e1d4b7" opacity="0.331"/><path d="M -20 150 C 150 150, 830 111.67, 1000 150 C 1170 188.33, 1120 341.67, 1000 380 C 880 418.33, 400 343.33, 280 380 C 160 416.67, 110 563.33, 280 600 C 450 636.67, 1130 600, 1300 600" transform="matrix(1 0 0 1 0 0)" fill="none" stroke="rgba(35, 32, 26, 0.12)" stroke-width="56"/><path d="M -20 150 C 150 150, 830 111.67, 1000 150 C 1170 188.33, 1120 341.67, 1000 380 C 880 418.33, 400 343.33, 280 380 C 160 416.67, 110 563.33, 280 600 C 450 636.67, 1130 600, 1300 600" transform="matrix(1 0 0 1 0 0)" fill="none" stroke="#b9a882" stroke-width="46" opacity="0.92"/><path d="M -20 150 C 150 150, 830 111.67, 1000 150 C 1170 188.33, 1120 341.67, 1000 380 C 880 418.33, 400 343.33, 280 380 C 160 416.67, 110 563.33, 280 600 C 450 636.67, 1130 600, 1300 600" transform="matrix(1 0 0 1 0 0)" fill="none" stroke="#d8cdb2" stroke-width="22" opacity="0.9"/><circle cx="0" cy="0" r="70" transform="matrix(1 0 0 1 1260 600)" fill="rgba(35, 32, 26, 0.1)"/><circle cx="0" cy="0" r="20.871" transform="matrix(1 0 0 1 233.811 226.444)" fill="rgba(35, 32, 26, 0.12)"/><circle cx="0" cy="0" r="14.532" transform="matrix(1 0 0 1 585.629 219.634)" fill="rgba(35, 32, 26, 0.12)"/><circle cx="0" cy="0" r="22.199" transform="matrix(1 0 0 1 129.911 359.323)" fill="rgba(35, 32, 26, 0.12)"/><rect x="-8" y="-15" width="16" height="30" rx="3" transform="matrix(1 0 0 1 8 120)" fill="#6c6252" stroke="#494133" stroke-width="2"/><rect x="-8" y="-15" width="16" height="30" rx="3" transform="matrix(1 0 0 1 8 180)" fill="#6c6252" stroke="#494133" stroke-width="2"/><rect x="-27" y="-6" width="54" height="12" rx="4" transform="matrix(1 0 0 1 8 150)" fill="#494133"/><circle cx="0" cy="0" r="58" transform="matrix(1 0 0 1 1254 600)" fill="#467437" stroke="#23201a" stroke-width="2"/><circle cx="0" cy="0" r="22" transform="matrix(1 0 0 1 1240 600)" fill="#23201a"/><path d="M 728.37 79.77 C 728.62 78.45, 729.35 74.27, 729.84 71.88 C 730.32 69.49, 731.06 66.5, 731.3 65.43" transform="matrix(1 0 0 1 0 0)" fill="none" stroke="#426831" stroke-width="2.591" opacity="0.9"/><path d="M 723.46 79.77 C 723.51 77.66, 723.65 70.97, 723.74 67.15 C 723.84 63.33, 723.98 58.55, 724.03 56.83" transform="matrix(1 0 0 1 0 0)" fill="none" stroke="#426831" stroke-width="2.224" opacity="0.9"/><path d="M 726.11 79.77 C 725.97 78.41, 725.56 74.08, 725.29 71.61 C 725.02 69.13, 724.61 66.04, 724.47 64.93" transform="matrix(1 0 0 1 0 0)" fill="none" stroke="#426831" stroke-width="2.974" opacity="0.9"/><path d="M 736.21 79.77 C 736.71 78.02, 738.2 72.47, 739.2 69.3 C 740.2 66.12, 741.69 62.16, 742.19 60.73" transform="matrix(1 0 0 1 0 0)" fill="none" stroke="#426831" stroke-width="2.718" opacity="0.9"/><path d="M 739.1 79.77 C 739.22 78.09, 739.61 72.77, 739.86 69.72 C 740.12 66.68, 740.5 62.87, 740.63 61.5" transform="matrix(1 0 0 1 0 0)" fill="none" stroke="#426831" stroke-width="2.629" opacity="0.9"/><path d="M 1139.44 78.06 C 1139.07 76.74, 1137.97 72.54, 1137.24 70.14 C 1136.51 67.73, 1135.41 64.73, 1135.04 63.65" transform="matrix(1 0 0 1 0 0)" fill="none" stroke="#91b462" stroke-width="2.057" opacity="0.9"/><path d="M 1132.61 78.06 C 1132.88 76.12, 1133.68 69.92, 1134.21 66.38 C 1134.74 62.83, 1135.54 58.41, 1135.81 56.81" transform="matrix(1 0 0 1 0 0)" fill="none" stroke="#91b462" stroke-width="3.006" opacity="0.9"/><path d="M 1136.36 78.06 C 1136.45 76.13, 1136.72 69.97, 1136.9 66.45 C 1137.08 62.93, 1137.34 58.53, 1137.43 56.95" transform="matrix(1 0 0 1 0 0)" fill="none" stroke="#91b462" stroke-width="2.887" opacity="0.9"/><path d="M 26.19 0 C 26.18 6.17, 22.83 15.32, 18.47 18.47 C 14.1 21.62, 6.14 18.94, 0 18.93 C -6.14 18.91, -14.43 21.55, -18.4 18.4 C -22.36 15.24, -24.51 5.4, -23.78 0 C -23.04 -5.4, -17.95 -10.32, -13.98 -13.98 C -10.02 -17.64, -5.42 -21.2, 0 -21.96 C 5.42 -22.72, 14.17 -22.19, 18.53 -18.53 C 22.9 -14.87, 26.2 -6.17, 26.19 0 Z" transform="matrix(1 0 0 1 233.811 214.167)" fill="#548b42" stroke="#494133" stroke-width="1.5"/><path d="M 11.78 0 C 11.28 3.63, 8 6.13, 4.79 8.29 C 1.58 10.45, -4.04 14.33, -7.47 12.95 C -10.91 11.57, -15.74 4.48, -15.83 0 C -15.93 -4.48, -11.98 -11.69, -8.05 -13.94 C -4.11 -16.18, 4.48 -15.8, 7.78 -13.48 C 11.09 -11.15, 12.28 -3.63, 11.78 0 Z" transform="matrix(1 0 0 1 226.936 207.292)" fill="#82a86f" opacity="0.75"/><path d="M 494.86 219.54 C 494.57 217.79, 493.68 212.24, 493.09 209.07 C 492.5 205.9, 491.62 201.94, 491.32 200.51" transform="matrix(1 0 0 1 0 0)" fill="none" stroke="#9bb360" stroke-width="2.939" opacity="0.9"/><path d="M 503.24 219.54 C 503.5 217.53, 504.25 211.16, 504.76 207.52 C 505.26 203.88, 506.02 199.33, 506.27 197.69" transform="matrix(1 0 0 1 0 0)" fill="none" stroke="#9bb360" stroke-width="2.545" opacity="0.9"/><path d="M 493.45 219.54 C 494 217.49, 495.63 210.98, 496.72 207.26 C 497.81 203.54, 499.45 198.88, 499.99 197.21" transform="matrix(1 0 0 1 0 0)" fill="none" stroke="#9bb360" stroke-width="2.388" opacity="0.9"/><path d="M 504.83 219.54 C 504.36 218.01, 502.94 213.15, 501.99 210.38 C 501.04 207.6, 499.62 204.13, 499.15 202.88" transform="matrix(1 0 0 1 0 0)" fill="none" stroke="#9bb360" stroke-width="2.056" opacity="0.9"/><path d="M 21.87 0 C 21.69 3.55, 13.77 8.02, 10.12 10.12 C 6.48 12.22, 3.9 12.07, 0 12.6 C -3.9 13.12, -9.62 15.36, -13.26 13.26 C -16.91 11.17, -21.74 4.53, -21.85 0 C -21.95 -4.53, -17.53 -10.92, -13.89 -13.89 C -10.25 -16.86, -4.18 -18.26, 0 -17.81 C 4.18 -17.36, 7.55 -14.16, 11.19 -11.19 C 14.84 -8.22, 22.05 -3.55, 21.87 0 Z" transform="matrix(1 0 0 1 585.629 211.086)" fill="#a37520" stroke="#494133" stroke-width="1.5"/><path d="M 9.23 0 C 9.15 1.96, 5.48 4.16, 3.17 5.49 C 0.86 6.82, -2.96 8.92, -4.62 8 C -6.28 7.09, -6.78 2.64, -6.76 0 C -6.75 -2.64, -6.25 -6.78, -4.52 -7.83 C -2.79 -8.88, 1.34 -7.6, 3.64 -6.3 C 5.93 -4.99, 9.31 -1.96, 9.23 0 Z" transform="matrix(1 0 0 1 580.842 206.299)" fill="#bb9856" opacity="0.75"/><path d="M 1157.88 198.63 C 1158.2 196.82, 1159.19 191.07, 1159.85 187.78 C 1160.5 184.49, 1161.49 180.38, 1161.82 178.9" transform="matrix(1 0 0 1 0 0)" fill="none" stroke="#417839" stroke-width="2.033" opacity="0.9"/><path d="M 1161.17 198.63 C 1161.59 196.72, 1162.86 190.67, 1163.7 187.2 C 1164.54 183.74, 1165.8 179.41, 1166.22 177.86" transform="matrix(1 0 0 1 0 0)" fill="none" stroke="#417839" stroke-width="2.369" opacity="0.9"/><path d="M 1162.45 198.63 C 1162.04 197.12, 1160.8 192.32, 1159.98 189.57 C 1159.15 186.83, 1157.91 183.4, 1157.5 182.17" transform="matrix(1 0 0 1 0 0)" fill="none" stroke="#417839" stroke-width="3.179" opacity="0.9"/><path d="M 24.11 0 C 23.45 6.68, 22.06 12.82, 18.04 18.04 C 14.03 23.27, 6.07 31.28, 0 31.33 C -6.07 31.39, -14.83 23.59, -18.37 18.37 C -21.9 13.14, -20.49 6.82, -21.19 0 C -21.89 -6.82, -26.11 -17.65, -22.57 -22.57 C -19.04 -27.5, -7.43 -29.61, 0 -29.52 C 7.43 -29.43, 18.01 -26.95, 22.03 -22.03 C 26.04 -17.11, 24.78 -6.68, 24.11 0 Z" transform="matrix(1 0 0 1 129.911 346.265)" fill="#90b360" stroke="#494133" stroke-width="1.5"/><path d="M 12.75 0 C 12.87 3.4, 9.69 8.59, 6.26 10.85 C 2.84 13.1, -4.89 15.33, -7.81 13.52 C -10.72 11.71, -11.2 4.55, -11.23 0 C -11.25 -4.55, -10.73 -12.16, -7.94 -13.75 C -5.15 -15.34, 2.05 -11.82, 5.5 -9.52 C 8.95 -7.23, 12.62 -3.4, 12.75 0 Z" transform="matrix(1 0 0 1 122.598 338.953)" fill="#adc484" opacity="0.75"/><path d="M 166.11 347.01 C 166.39 344.67, 167.23 337.22, 167.79 332.96 C 168.35 328.71, 169.18 323.39, 169.46 321.47" transform="matrix(1 0 0 1 0 0)" fill="none" stroke="#497337" stroke-width="2.571" opacity="0.9"/><path d="M 165.12 347.01 C 164.79 345.39, 163.79 340.26, 163.12 337.33 C 162.46 334.4, 161.46 330.74, 161.12 329.42" transform="matrix(1 0 0 1 0 0)" fill="none" stroke="#497337" stroke-width="2.981" opacity="0.9"/><path d="M 177.63 347.01 C 177.39 344.79, 176.68 337.74, 176.21 333.71 C 175.74 329.68, 175.03 324.64, 174.79 322.82" transform="matrix(1 0 0 1 0 0)" fill="none" stroke="#497337" stroke-width="2.556" opacity="0.9"/><path d="M 1148.97 358.22 C 1148.97 355.84, 1148.97 348.27, 1148.97 343.95 C 1148.97 339.62, 1148.97 334.22, 1148.97 332.27" transform="matrix(1 0 0 1 0 0)" fill="none" stroke="#91b25c" stroke-width="3.089" opacity="0.9"/><path d="M 1152.2 358.22 C 1152.71 356.25, 1154.23 350.02, 1155.24 346.45 C 1156.26 342.89, 1157.78 338.43, 1158.29 336.83" transform="matrix(1 0 0 1 0 0)" fill="none" stroke="#91b25c" stroke-width="2.555" opacity="0.9"/><path d="M 1141.75 358.22 C 1142.19 356.17, 1143.5 349.66, 1144.37 345.94 C 1145.24 342.22, 1146.55 337.57, 1146.98 335.89" transform="matrix(1 0 0 1 0 0)" fill="none" stroke="#91b25c" stroke-width="2.285" opacity="0.9"/><path d="M 1142.19 358.22 C 1142.25 356.69, 1142.44 351.82, 1142.57 349.04 C 1142.7 346.26, 1142.89 342.78, 1142.96 341.53" transform="matrix(1 0 0 1 0 0)" fill="none" stroke="#91b25c" stroke-width="2.143" opacity="0.9"/><path d="M 1145.46 358.22 C 1145.49 356.84, 1145.57 352.44, 1145.63 349.93 C 1145.68 347.42, 1145.76 344.28, 1145.79 343.15" transform="matrix(1 0 0 1 0 0)" fill="none" stroke="#91b25c" stroke-width="2.047" opacity="0.9"/><path d="M 56.06 456.31 C 55.86 454.69, 55.24 449.52, 54.82 446.56 C 54.41 443.61, 53.79 439.92, 53.58 438.59" transform="matrix(1 0 0 1 0 0)" fill="none" stroke="#4d843f" stroke-width="3.19" opacity="0.9"/><path d="M 55.56 456.31 C 56.15 454.71, 57.92 449.63, 59.11 446.73 C 60.29 443.82, 62.06 440.19, 62.65 438.89" transform="matrix(1 0 0 1 0 0)" fill="none" stroke="#4d843f" stroke-width="2.281" opacity="0.9"/><path d="M 62.6 456.31 C 63.23 454.03, 65.12 446.79, 66.38 442.65 C 67.64 438.51, 69.53 433.34, 70.15 431.48" transform="matrix(1 0 0 1 0 0)" fill="none" stroke="#4d843f" stroke-width="2.129" opacity="0.9"/><path d="M 67.95 456.31 C 67.76 454.02, 67.18 446.75, 66.79 442.6 C 66.4 438.44, 65.82 433.25, 65.62 431.38" transform="matrix(1 0 0 1 0 0)" fill="none" stroke="#4d843f" stroke-width="2.123" opacity="0.9"/><path d="M 58.43 456.31 C 58.77 454.83, 59.78 450.14, 60.45 447.46 C 61.12 444.78, 62.13 441.42, 62.47 440.22" transform="matrix(1 0 0 1 0 0)" fill="none" stroke="#4d843f" stroke-width="2.133" opacity="0.9"/><path d="M 778.45 445.62 C 778.03 444.31, 776.76 440.13, 775.92 437.75 C 775.08 435.36, 773.82 432.38, 773.4 431.3" transform="matrix(1 0 0 1 0 0)" fill="none" stroke="#417739" stroke-width="3.154" opacity="0.9"/><path d="M 768.77 445.62 C 768.65 443.44, 768.31 436.49, 768.08 432.51 C 767.85 428.54, 767.51 423.57, 767.39 421.79" transform="matrix(1 0 0 1 0 0)" fill="none" stroke="#417739" stroke-width="2.26" opacity="0.9"/><path d="M 775.61 445.62 C 776.2 443.56, 777.97 436.99, 779.15 433.23 C 780.33 429.48, 782.09 424.79, 782.68 423.1" transform="matrix(1 0 0 1 0 0)" fill="none" stroke="#417739" stroke-width="2.972" opacity="0.9"/><path d="M 765.35 445.62 C 765.81 443.39, 767.21 436.28, 768.15 432.22 C 769.08 428.16, 770.49 423.08, 770.95 421.26" transform="matrix(1 0 0 1 0 0)" fill="none" stroke="#417739" stroke-width="2.002" opacity="0.9"/><path d="M 769.04 445.62 C 769.65 443.57, 771.47 437.02, 772.69 433.28 C 773.9 429.54, 775.73 424.87, 776.33 423.18" transform="matrix(1 0 0 1 0 0)" fill="none" stroke="#417739" stroke-width="2.56" opacity="0.9"/><path d="M 111.27 526.33 C 110.74 524.92, 109.14 520.43, 108.08 517.86 C 107.01 515.3, 105.41 512.09, 104.88 510.94" transform="matrix(1 0 0 1 0 0)" fill="none" stroke="#769c4a" stroke-width="2.586" opacity="0.9"/><path d="M 99.29 526.33 C 99.91 524.16, 101.79 517.27, 103.04 513.33 C 104.29 509.39, 106.16 504.46, 106.79 502.69" transform="matrix(1 0 0 1 0 0)" fill="none" stroke="#769c4a" stroke-width="2.714" opacity="0.9"/><path d="M 97.24 526.33 C 97.38 524.33, 97.79 517.98, 98.06 514.36 C 98.33 510.73, 98.74 506.19, 98.88 504.56" transform="matrix(1 0 0 1 0 0)" fill="none" stroke="#769c4a" stroke-width="2.16" opacity="0.9"/><path d="M 110.77 526.33 C 110.56 524.61, 109.93 519.16, 109.52 516.04 C 109.1 512.92, 108.48 509.02, 108.27 507.62" transform="matrix(1 0 0 1 0 0)" fill="none" stroke="#769c4a" stroke-width="2.298" opacity="0.9"/><path d="M 98.17 526.33 C 98.22 524.09, 98.38 516.98, 98.49 512.92 C 98.6 508.85, 98.75 503.77, 98.81 501.94" transform="matrix(1 0 0 1 0 0)" fill="none" stroke="#769c4a" stroke-width="2.208" opacity="0.9"/><path d="M 171.92 656.87 C 172.38 654.72, 173.77 647.91, 174.7 644.02 C 175.62 640.12, 177.01 635.25, 177.48 633.5" transform="matrix(1 0 0 1 0 0)" fill="none" stroke="#477c3b" stroke-width="2.233" opacity="0.9"/><path d="M 164.4 656.87 C 164.57 655.11, 165.09 649.5, 165.44 646.3 C 165.78 643.1, 166.3 639.1, 166.47 637.66" transform="matrix(1 0 0 1 0 0)" fill="none" stroke="#477c3b" stroke-width="2.79" opacity="0.9"/><path d="M 163.79 656.87 C 164.25 655.45, 165.63 650.94, 166.55 648.37 C 167.47 645.79, 168.85 642.57, 169.32 641.42" transform="matrix(1 0 0 1 0 0)" fill="none" stroke="#477c3b" stroke-width="2.055" opacity="0.9"/><path d="M 178.24 656.87 C 178.85 655.4, 180.69 650.72, 181.91 648.04 C 183.14 645.37, 184.98 642.03, 185.59 640.82" transform="matrix(1 0 0 1 0 0)" fill="none" stroke="#477c3b" stroke-width="2.363" opacity="0.9"/><path d="M 697.62 658.44 C 697.76 657.1, 698.21 652.84, 698.51 650.4 C 698.81 647.96, 699.26 644.92, 699.41 643.82" transform="matrix(1 0 0 1 0 0)" fill="none" stroke="#456831" stroke-width="2.349" opacity="0.9"/><path d="M 689.1 658.44 C 689.44 656.11, 690.46 648.69, 691.14 644.45 C 691.82 640.21, 692.84 634.9, 693.18 633" transform="matrix(1 0 0 1 0 0)" fill="none" stroke="#456831" stroke-width="2.188" opacity="0.9"/><path d="M 695.9 658.44 C 696.01 656.4, 696.34 649.9, 696.56 646.18 C 696.77 642.47, 697.1 637.83, 697.21 636.15" transform="matrix(1 0 0 1 0 0)" fill="none" stroke="#456831" stroke-width="3.122" opacity="0.9"/><rect x="-28" y="-28" width="56" height="56" rx="12" transform="matrix(1 0 0 1 200 66)" fill="rgba(35, 32, 26, 0.12)"/><rect x="-28" y="-28" width="56" height="56" rx="12" transform="matrix(1 0 0 1 200 60)" fill="#e4d8bd" stroke="#6c6252" stroke-width="2"/><rect x="-20" y="-20" width="40" height="40" rx="8" transform="matrix(1 0 0 1 200 60)" fill="none" stroke="rgba(108, 98, 82, 0.4)" stroke-width="1.5"/><rect x="-28" y="-28" width="56" height="56" rx="12" transform="matrix(1 0 0 1 520 66)" fill="rgba(35, 32, 26, 0.12)"/><rect x="-28" y="-28" width="56" height="56" rx="12" transform="matrix(1 0 0 1 520 60)" fill="#e4d8bd" stroke="#6c6252" stroke-width="2"/><rect x="-20" y="-20" width="40" height="40" rx="8" transform="matrix(1 0 0 1 520 60)" fill="none" stroke="rgba(108, 98, 82, 0.4)" stroke-width="1.5"/><rect x="-28" y="-28" width="56" height="56" rx="12" transform="matrix(1 0 0 1 840 66)" fill="rgba(35, 32, 26, 0.12)"/><rect x="-28" y="-28" width="56" height="56" rx="12" transform="matrix(1 0 0 1 840 60)" fill="#e4d8bd" stroke="#6c6252" stroke-width="2"/><rect x="-20" y="-20" width="40" height="40" rx="8" transform="matrix(1 0 0 1 840 60)" fill="none" stroke="rgba(108, 98, 82, 0.4)" stroke-width="1.5"/><rect x="-28" y="-28" width="56" height="56" rx="12" transform="matrix(1 0 0 1 320 266)" fill="rgba(35, 32, 26, 0.12)"/><rect x="-28" y="-28" width="56" height="56" rx="12" transform="matrix(1 0 0 1 320 260)" fill="#e4d8bd" stroke="#6c6252" stroke-width="2"/><rect x="-20" y="-20" width="40" height="40" rx="8" transform="matrix(1 0 0 1 320 260)" fill="none" stroke="rgba(108, 98, 82, 0.4)" stroke-width="1.5"/><rect x="-28" y="-28" width="56" height="56" rx="12" transform="matrix(1 0 0 1 640 266)" fill="rgba(35, 32, 26, 0.12)"/><rect x="-28" y="-28" width="56" height="56" rx="12" transform="matrix(1 0 0 1 640 260)" fill="#e4d8bd" stroke="#6c6252" stroke-width="2"/><rect x="-20" y="-20" width="40" height="40" rx="8" transform="matrix(1 0 0 1 640 260)" fill="none" stroke="rgba(108, 98, 82, 0.4)" stroke-width="1.5"/><rect x="-28" y="-28" width="56" height="56" rx="12" transform="matrix(1 0 0 1 900 271)" fill="rgba(35, 32, 26, 0.12)"/><rect x="-28" y="-28" width="56" height="56" rx="12" transform="matrix(1 0 0 1 900 265)" fill="#e4d8bd" stroke="#6c6252" stroke-width="2"/><rect x="-20" y="-20" width="40" height="40" rx="8" transform="matrix(1 0 0 1 900 265)" fill="none" stroke="rgba(108, 98, 82, 0.4)" stroke-width="1.5"/><rect x="-28" y="-28" width="56" height="56" rx="12" transform="matrix(1 0 0 1 1090 271)" fill="rgba(35, 32, 26, 0.12)"/><rect x="-28" y="-28" width="56" height="56" rx="12" transform="matrix(1 0 0 1 1090 265)" fill="#e4d8bd" stroke="#6c6252" stroke-width="2"/><rect x="-20" y="-20" width="40" height="40" rx="8" transform="matrix(1 0 0 1 1090 265)" fill="none" stroke="rgba(108, 98, 82, 0.4)" stroke-width="1.5"/><rect x="-28" y="-28" width="56" height="56" rx="12" transform="matrix(1 0 0 1 170 486)" fill="rgba(35, 32, 26, 0.12)"/><rect x="-28" y="-28" width="56" height="56" rx="12" transform="matrix(1 0 0 1 170 480)" fill="#e4d8bd" stroke="#6c6252" stroke-width="2"/><rect x="-20" y="-20" width="40" height="40" rx="8" transform="matrix(1 0 0 1 170 480)" fill="none" stroke="rgba(108, 98, 82, 0.4)" stroke-width="1.5"/><rect x="-28" y="-28" width="56" height="56" rx="12" transform="matrix(1 0 0 1 400 496)" fill="rgba(35, 32, 26, 0.12)"/><rect x="-28" y="-28" width="56" height="56" rx="12" transform="matrix(1 0 0 1 400 490)" fill="#e4d8bd" stroke="#6c6252" stroke-width="2"/><rect x="-20" y="-20" width="40" height="40" rx="8" transform="matrix(1 0 0 1 400 490)" fill="none" stroke="rgba(108, 98, 82, 0.4)" stroke-width="1.5"/><rect x="-28" y="-28" width="56" height="56" rx="12" transform="matrix(1 0 0 1 640 486)" fill="rgba(35, 32, 26, 0.12)"/><rect x="-28" y="-28" width="56" height="56" rx="12" transform="matrix(1 0 0 1 640 480)" fill="#e4d8bd" stroke="#6c6252" stroke-width="2"/><rect x="-20" y="-20" width="40" height="40" rx="8" transform="matrix(1 0 0 1 640 480)" fill="none" stroke="rgba(108, 98, 82, 0.4)" stroke-width="1.5"/><rect x="-28" y="-28" width="56" height="56" rx="12" transform="matrix(1 0 0 1 900 496)" fill="rgba(35, 32, 26, 0.12)"/><rect x="-28" y="-28" width="56" height="56" rx="12" transform="matrix(1 0 0 1 900 490)" fill="#e4d8bd" stroke="#6c6252" stroke-width="2"/><rect x="-20" y="-20" width="40" height="40" rx="8" transform="matrix(1 0 0 1 900 490)" fill="none" stroke="rgba(108, 98, 82, 0.4)" stroke-width="1.5"/><rect x="-28" y="-28" width="56" height="56" rx="12" transform="matrix(1 0 0 1 1120 486)" fill="rgba(35, 32, 26, 0.12)"/><rect x="-28" y="-28" width="56" height="56" rx="12" transform="matrix(1 0 0 1 1120 480)" fill="#e4d8bd" stroke="#6c6252" stroke-width="2"/><rect x="-20" y="-20" width="40" height="40" rx="8" transform="matrix(1 0 0 1 1120 480)" fill="none" stroke="rgba(108, 98, 82, 0.4)" stroke-width="1.5"/><circle cx="0" cy="0" r="175" transform="matrix(1 0 0 1 900 265)" fill="none" stroke="#2c7a90" stroke-width="2" opacity="0.5"/><rect x="-33" y="-33" width="66" height="66" rx="14" transform="matrix(1 0 0 1 900 265)" fill="none" stroke="#94741d" stroke-width="4"/><circle cx="0" cy="0" r="20" transform="matrix(1 0 0 1 640 268)" fill="rgba(35, 32, 26, 0.18)"/><circle cx="0" cy="0" r="20" transform="matrix(1 0 0 1 640 488)" fill="rgba(35, 32, 26, 0.18)"/><circle cx="0" cy="0" r="20" transform="matrix(1 0 0 1 900 273)" fill="rgba(35, 32, 26, 0.18)"/><circle cx="0" cy="0" r="20" transform="matrix(1 0 0 1 400 498)" fill="rgba(35, 32, 26, 0.18)"/><circle cx="0" cy="0" r="20" transform="matrix(1 0 0 1 900 498)" fill="rgba(35, 32, 26, 0.18)"/><rect x="-19" y="-19" width="38" height="38" rx="9" transform="matrix(1 0 0 1 640 258)" fill="#4a7a3a" stroke="#23201a" stroke-width="2.5"/><rect x="-19" y="-19" width="38" height="38" rx="9" transform="matrix(1 0 0 1 640 478)" fill="#bf6a1c" stroke="#23201a" stroke-width="2.5"/><rect x="-19" y="-19" width="38" height="38" rx="9" transform="matrix(1 0 0 1 900 263)" fill="#2c7a90" stroke="#23201a" stroke-width="2.5"/><rect x="-19" y="-19" width="38" height="38" rx="9" transform="matrix(1 0 0 1 400 488)" fill="#4a7a3a" stroke="#23201a" stroke-width="2.5"/><rect x="-19" y="-19" width="38" height="38" rx="9" transform="matrix(1 0 0 1 900 488)" fill="#bf6a1c" stroke="#23201a" stroke-width="2.5"/><circle cx="0" cy="0" r="10.2" transform="matrix(1 0 0 1 251.7 156.6)" fill="rgba(35, 32, 26, 0.16)"/><circle cx="0" cy="0" r="10.2" transform="matrix(1 0 0 1 167.2 156.6)" fill="rgba(35, 32, 26, 0.16)"/><circle cx="0" cy="0" r="10.2" transform="matrix(1 0 0 1 80.1 156.6)" fill="rgba(35, 32, 26, 0.16)"/><circle cx="0" cy="0" r="10.2" transform="matrix(1 0 0 1 -5.7 156.6)" fill="rgba(35, 32, 26, 0.16)"/><circle cx="0" cy="0" r="12" transform="matrix(1 0 0 1 251.7 150)" fill="#b23a24" stroke="#23201a" stroke-width="1.5"/><circle cx="0" cy="0" r="12" transform="matrix(1 0 0 1 167.2 150)" fill="#b23a24" stroke="#23201a" stroke-width="1.5"/><circle cx="0" cy="0" r="12" transform="matrix(1 0 0 1 80.1 150)" fill="#b23a24" stroke="#23201a" stroke-width="1.5"/><circle cx="0" cy="0" r="12" transform="matrix(1 0 0 1 -5.7 150)" fill="#b23a24" stroke="#23201a" stroke-width="1.5"/><rect x="-13" y="-2" width="26" height="4" rx="2" transform="matrix(1 0 0 1 251.7 130)" fill="#4a7a3a"/><rect x="-13" y="-2" width="26" height="4" rx="2" transform="matrix(1 0 0 1 167.2 130)" fill="#4a7a3a"/><rect x="-13" y="-2" width="26" height="4" rx="2" transform="matrix(1 0 0 1 80.1 130)" fill="#4a7a3a"/><rect x="-13" y="-2" width="26" height="4" rx="2" transform="matrix(1 0 0 1 -5.7 130)" fill="#4a7a3a"/><text x="0" y="0" font-size="20" text-anchor="middle" dominant-baseline="middle" fill="#494133" transform="matrix(1 0 0 1 640 30)">wave 1/10 · ♥ 10 · gold 900</text><text x="0" y="0" font-size="16" text-anchor="middle" dominant-baseline="middle" fill="#6c6252" transform="matrix(1 0 0 1 640 690)">←/→ select plot · [1] arrow 100 · [2] frost 120 · [3] cannon 190 · Space starts the wave early</text></svg>