<svg xmlns="http://www.w3.org/2000/svg" viewBox="0 0 1280 720" width="1280" height="720"><rect x="0" y="0" width="1280" height="720" fill="#ffffff"/><rect x="-40" y="-40" width="80" height="80" rx="8" transform="matrix(1 0 0 1 472 150)" fill="#5a6072" stroke="#29335c" stroke-width="2"/><rect x="-40" y="-40" width="80" height="80" rx="8" transform="matrix(1 0 0 1 556 150)" fill="#5a6072" stroke="#29335c" stroke-width="2"/><rect x="-40" y="-40" width="80" height="80" rx="8" transform="matrix(1 0 0 1 640 150)" fill="#5a6072" stroke="#29335c" stroke-width="2"/><rect x="-40" y="-40" width="80" height="80" rx="8" transform="matrix(1 0 0 1 724 150)" fill="#5a6072" stroke="#29335c" stroke-width="2"/><rect x="-40" y="-40" width="80" height="80" rx="8" transform="matrix(1 0 0 1 808 150)" fill="#5a6072" stroke="#29335c" stroke-width="2"/><rect x="-40" y="-40" width="80" height="80" rx="8" transform="matrix(1 0 0 1 472 234)" fill="#5a6072" stroke="#29335c" stroke-width="2"/><rect x="-40" y="-40" width="80" height="80" rx="6" transform="matrix(1 0 0 1 556 234)" fill="#ffffff" stroke="#e7e8ee" stroke-width="1"/><rect x="-40" y="-40" width="80" height="80" rx="6" transform="matrix(1 0 0 1 640 234)" fill="#ffffff" stroke="#e7e8ee" stroke-width="1"/><rect x="-40" y="-40" width="80" height="80" rx="6" transform="matrix(1 0 0 1 724 234)" fill="#ffffff" stroke="#e7e8ee" stroke-width="1"/><rect x="-40" y="-40" width="80" height="80" rx="8" transform="matrix(1 0 0 1 808 234)" fill="#5a6072" stroke="#29335c" stroke-width="2"/><rect x="-40" y="-40" width="80" height="80" rx="8" transform="matrix(1 0 0 1 472 318)" fill="#5a6072" stroke="#29335c" stroke-width="2"/><rect x="-40" y="-40" width="80" height="80" rx="6" transform="matrix(1 0 0 1 556 318)" fill="#ffffff" stroke="#e7e8ee" stroke-width="1"/><rect x="-40" y="-40" width="80" height="80" rx="6" transform="matrix(1 0 0 1 640 318)" fill="#ffffff" stroke="#e7e8ee" stroke-width="1"/><rect x="-40" y="-40" width="80" height="80" rx="6" transform="matrix(1 0 0 1 724 318)" fill="#ffffff" stroke="#e7e8ee" stroke-width="1"/><rect x="-40" y="-40" width="80" height="80" rx="8" transform="matrix(1 0 0 1 808 318)" fill="#5a6072" stroke="#29335c" stroke-width="2"/><rect x="-40" y="-40" width="80" height="80" rx="8" transform="matrix(1 0 0 1 472 402)" fill="#5a6072" stroke="#29335c" stroke-width="2"/><rect x="-40" y="-40" width="80" height="80" rx="6" transform="matrix(1 0 0 1 556 402)" fill="#ffffff" stroke="#e7e8ee" stroke-width="1"/><rect x="-40" y="-40" width="80" height="80" rx="6" transform="matrix(1 0 0 1 640 402)" fill="#ffffff" stroke="#e7e8ee" stroke-width="1"/><rect x="-40" y="-40" width="80" height="80" rx="6" transform="matrix(1 0 0 1 724 402)" fill="#ffffff" stroke="#e7e8ee" stroke-width="1"/><rect x="-40" y="-40" width="80" height="80" rx="8" transform="matrix(1 0 0 1 808 402)" fill="#5a6072" stroke="#29335c" stroke-width="2"/><rect x="-40" y="-40" width="80" height="80" rx="8" transform="matrix(1 0 0 1 472 486)" fill="#5a6072" stroke="#29335c" stroke-width="2"/><rect x="-40" y="-40" width="80" height="80" rx="6" transform="matrix(1 0 0 1 556 486)" fill="#ffffff" stroke="#e7e8ee" stroke-width="1"/><rect x="-40" y="-40" width="80" height="80" rx="6" transform="matrix(1 0 0 1 640 486)" fill="#ffffff" stroke="#e7e8ee" stroke-width="1"/><rect x="-40" y="-40" width="80" height="80" rx="6" transform="matrix(1 0 0 1 724 486)" fill="#ffffff" stroke="#e7e8ee" stroke-width="1"/><rect x="-40" y="-40" width="80" height="80" rx="8" transform="matrix(1 0 0 1 808 486)" fill="#5a6072" stroke="#29335c" stroke-width="2"/><rect x="-40" y="-40" width="80" height="80" rx="8" transform="matrix(1 0 0 1 472 570)" fill="#5a6072" stroke="#29335c" stroke-width="2"/><rect x="-40" y="-40" width="80" height="80" rx="8" transform="matrix(1 0 0 1 556 570)" fill="#5a6072" stroke="#29335c" stroke-width="2"/><rect x="-40" y="-40" width="80" height="80" rx="8" transform="matrix(1 0 0 1 640 570)" fill="#5a6072" stroke="#29335c" stroke-width="2"/><rect x="-40" y="-40" width="80" height="80" rx="8" transform="matrix(1 0 0 1 724 570)" fill="#5a6072" stroke="#29335c" stroke-width="2"/><rect x="-40" y="-40" width="80" height="80" rx="8" transform="matrix(1 0 0 1 808 570)" fill="#5a6072" stroke="#29335c" stroke-width="2"/><text x="0" y="0" font-size="22" text-anchor="middle" dominant-baseline="middle" fill="#5a6072" transform="matrix(1 0 0 1 640 44)">Level 1 / 3   ·   Moves 0   ·   arrows to push, U undo, R restart</text><circle cx="0" cy="0" r="12" transform="matrix(1 0 0 1 556 234)" fill="none" stroke="#e59500" stroke-width="3"/><circle cx="0" cy="0" r="12" transform="matrix(1 0 0 1 556 318)" fill="none" stroke="#e59500" stroke-width="3"/><circle cx="0" cy="0" r="12" transform="matrix(1 0 0 1 556 486)" fill="none" stroke="#e59500" stroke-width="3"/><circle cx="0" cy="0" r="12" transform="matrix(1 0 0 1 724 486)" fill="none" stroke="#e59500" stroke-width="3"/><rect x="-31" y="-31" width="62" height="62" rx="8" transform="matrix(1 0 0 1 640 318)" fill="#c65b5b" stroke="#29335c" stroke-width="2"/><rect x="-31" y="-31" width="62" height="62" rx="8" transform="matrix(1 0 0 1 724 402)" fill="#c65b5b" stroke="#29335c" stroke-width="2"/><circle cx="0" cy="0" r="22" transform="matrix(1 0 0 1 640 234)" fill="#e59500" stroke="#29335c" stroke-width="2"/></svg>