<svg xmlns="http://www.w3.org/2000/svg" viewBox="0 0 1280 720" width="1280" height="720"><rect x="0" y="0" width="1280" height="720" fill="#efe7d3"/><circle cx="0" cy="0" r="1.713" transform="matrix(1 0 0 1 15.436 34.059)" fill="#e0d2b3" opacity="0.223"/><circle cx="0" cy="0" r="2.778" transform="matrix(1 0 0 1 125.261 24.749)" fill="#d5c7a5" opacity="0.227"/><circle cx="0" cy="0" r="2.306" transform="matrix(1 0 0 1 196.067 38.696)" fill="#d6c8a7" opacity="0.388"/><circle cx="0" cy="0" r="1.844" transform="matrix(1 0 0 1 292.749 30.185)" fill="#e1d4b7" opacity="0.369"/><circle cx="0" cy="0" r="2.164" transform="matrix(1 0 0 1 358.803 30.693)" fill="#daceb1" opacity="0.342"/><circle cx="0" cy="0" r="1.662" transform="matrix(1 0 0 1 451.655 34.495)" fill="#d8cbac" opacity="0.241"/><circle cx="0" cy="0" r="2.29" transform="matrix(1 0 0 1 534.585 28.999)" fill="#e6dbc2" opacity="0.272"/><circle cx="0" cy="0" r="1.754" transform="matrix(1 0 0 1 621.834 30.776)" fill="#e6dbc1" opacity="0.417"/><circle cx="0" cy="0" r="1.893" transform="matrix(1 0 0 1 696.99 18.062)" fill="#e4d9be" opacity="0.273"/><circle cx="0" cy="0" r="1.514" transform="matrix(1 0 0 1 789.972 45.608)" fill="#d4c6a4" opacity="0.408"/><circle cx="0" cy="0" r="1.43" transform="matrix(1 0 0 1 854.688 18.801)" fill="#dbcfb3" opacity="0.414"/><circle cx="0" cy="0" r="2.304" transform="matrix(1 0 0 1 941.32 40.326)" fill="#d7c9a9" opacity="0.274"/><circle cx="0" cy="0" r="1.702" transform="matrix(1 0 0 1 1022.882 28.633)" fill="#e1d3b5" opacity="0.263"/><circle cx="0" cy="0" r="2.518" transform="matrix(1 0 0 1 1136.523 27.932)" fill="#e7ddc5" opacity="0.313"/><circle cx="0" cy="0" r="1.265" transform="matrix(1 0 0 1 1211.019 40.971)" fill="#e0d2b3" opacity="0.403"/><circle cx="0" cy="0" r="2.302" transform="matrix(1 0 0 1 23.314 112.799)" fill="#d9cdaf" opacity="0.24"/><circle cx="0" cy="0" r="1.217" transform="matrix(1 0 0 1 106.364 117.68)" fill="#d7caab" opacity="0.271"/><circle cx="0" cy="0" r="2.252" transform="matrix(1 0 0 1 185.739 108.05)" fill="#dbcfb2" opacity="0.35"/><circle cx="0" cy="0" r="2.604" transform="matrix(1 0 0 1 266.602 124.375)" fill="#e8dec6" opacity="0.4"/><circle cx="0" cy="0" r="1.465" transform="matrix(1 0 0 1 352.717 100.349)" fill="#d8cbad" opacity="0.336"/><circle cx="0" cy="0" r="2.352" transform="matrix(1 0 0 1 464.759 119.94)" fill="#e5dac1" opacity="0.382"/><circle cx="0" cy="0" r="1.747" transform="matrix(1 0 0 1 522.727 125.09)" fill="#ddd1b6" opacity="0.359"/><circle cx="0" cy="0" r="2.088" transform="matrix(1 0 0 1 624.251 99.98)" fill="#e1d4b6" opacity="0.227"/><circle cx="0" cy="0" r="1.326" transform="matrix(1 0 0 1 708.437 98.348)" fill="#d4c5a3" opacity="0.329"/><circle cx="0" cy="0" r="1.213" transform="matrix(1 0 0 1 779.469 98.62)" fill="#d7c9a9" opacity="0.235"/><circle cx="0" cy="0" r="2.532" transform="matrix(1 0 0 1 868.661 104.462)" fill="#e1d3b5" opacity="0.334"/><circle cx="0" cy="0" r="2.674" transform="matrix(1 0 0 1 962.55 117.964)" fill="#d9cdaf" opacity="0.241"/><circle cx="0" cy="0" r="1.842" transform="matrix(1 0 0 1 1037.063 107.941)" fill="#d4c5a3" opacity="0.341"/><circle cx="0" cy="0" r="2.781" transform="matrix(1 0 0 1 1117.748 108.968)" fill="#ddd1b6" opacity="0.26"/><circle cx="0" cy="0" r="2.444" transform="matrix(1 0 0 1 1218.969 110.844)" fill="#d8cbac" opacity="0.29"/><circle cx="0" cy="0" r="1.541" transform="matrix(1 0 0 1 25.241 203.283)" fill="#e1d3b5" opacity="0.255"/><circle cx="0" cy="0" r="1.532" transform="matrix(1 0 0 1 124.273 210.239)" fill="#e7dcc4" opacity="0.333"/><circle cx="0" cy="0" r="1.249" transform="matrix(1 0 0 1 193.771 185.818)" fill="#e0d2b3" opacity="0.279"/><circle cx="0" cy="0" r="1.361" transform="matrix(1 0 0 1 278.277 189.234)" fill="#e1d4b7" opacity="0.399"/><circle cx="0" cy="0" r="2.79" transform="matrix(1 0 0 1 367.654 192.698)" fill="#d9cdae" opacity="0.362"/><circle cx="0" cy="0" r="1.705" transform="matrix(1 0 0 1 459.486 186.237)" fill="#d6c8a8" opacity="0.412"/><circle cx="0" cy="0" r="2.487" transform="matrix(1 0 0 1 530.036 203.177)" fill="#d9ccad" opacity="0.262"/><circle cx="0" cy="0" r="2.057" transform="matrix(1 0 0 1 620.9 195.774)" fill="#e4d8bd" opacity="0.354"/><circle cx="0" cy="0" r="2.523" transform="matrix(1 0 0 1 694.966 205.852)" fill="#d9ccae" opacity="0.274"/><circle cx="0" cy="0" r="1.373" transform="matrix(1 0 0 1 771.245 199.195)" fill="#dcd0b4" opacity="0.397"/><circle cx="0" cy="0" r="1.665" transform="matrix(1 0 0 1 854.451 194.572)" fill="#d7caab" opacity="0.225"/><circle cx="0" cy="0" r="1.834" transform="matrix(1 0 0 1 939.816 207.282)" fill="#ddd1b6" opacity="0.269"/><circle cx="0" cy="0" r="1.323" transform="matrix(1 0 0 1 1038.393 213.519)" fill="#e8ddc6" opacity="0.22"/><circle cx="0" cy="0" r="1.255" transform="matrix(1 0 0 1 1108.331 187.089)" fill="#d4c6a4" opacity="0.239"/><circle cx="0" cy="0" r="2.248" transform="matrix(1 0 0 1 1217.738 185.771)" fill="#dbcfb2" opacity="0.305"/><circle cx="0" cy="0" r="1.251" transform="matrix(1 0 0 1 43.613 291.081)" fill="#dbcfb2" opacity="0.352"/><circle cx="0" cy="0" r="1.974" transform="matrix(1 0 0 1 118.813 297.264)" fill="#dcd1b5" opacity="0.264"/><circle cx="0" cy="0" r="2.574" transform="matrix(1 0 0 1 188.087 282.557)" fill="#e5dac0" opacity="0.233"/><circle cx="0" cy="0" r="2.235" transform="matrix(1 0 0 1 283.721 290.274)" fill="#d9ccae" opacity="0.357"/><circle cx="0" cy="0" r="2.126" transform="matrix(1 0 0 1 373.984 267.941)" fill="#e8dec7" opacity="0.227"/><circle cx="0" cy="0" r="2.267" transform="matrix(1 0 0 1 438.369 273.027)" fill="#dacdb0" opacity="0.359"/><circle cx="0" cy="0" r="2.629" transform="matrix(1 0 0 1 538.94 280.062)" fill="#e7ddc5" opacity="0.303"/><circle cx="0" cy="0" r="2.55" transform="matrix(1 0 0 1 627.406 292.429)" fill="#dcd1b5" opacity="0.354"/><circle cx="0" cy="0" r="1.415" transform="matrix(1 0 0 1 706.977 271.844)" fill="#e6dbc2" opacity="0.299"/><circle cx="0" cy="0" r="1.431" transform="matrix(1 0 0 1 777.043 288.783)" fill="#e8dec8" opacity="0.23"/><circle cx="0" cy="0" r="2.195" transform="matrix(1 0 0 1 857.5 283.145)" fill="#dacdb0" opacity="0.234"/><circle cx="0" cy="0" r="2.598" transform="matrix(1 0 0 1 968.954 295.694)" fill="#d4c5a3" opacity="0.361"/><circle cx="0" cy="0" r="1.595" transform="matrix(1 0 0 1 1030.049 286.979)" fill="#e0d3b4" opacity="0.353"/><circle cx="0" cy="0" r="2.428" transform="matrix(1 0 0 1 1120.067 275.141)" fill="#e0d2b2" opacity="0.33"/><circle cx="0" cy="0" r="2.273" transform="matrix(1 0 0 1 1215.202 293.178)" fill="#d4c6a3" opacity="0.32"/><circle cx="0" cy="0" r="1.392" transform="matrix(1 0 0 1 45.618 370.503)" fill="#e5d9bf" opacity="0.39"/><circle cx="0" cy="0" r="1.962" transform="matrix(1 0 0 1 101.175 360.614)" fill="#e3d6ba" opacity="0.303"/><circle cx="0" cy="0" r="2.256" transform="matrix(1 0 0 1 197.884 377.061)" fill="#e0d3b4" opacity="0.377"/><circle cx="0" cy="0" r="1.465" transform="matrix(1 0 0 1 292.805 352.672)" fill="#e1d4b6" opacity="0.329"/><circle cx="0" cy="0" r="1.56" transform="matrix(1 0 0 1 360.204 356.392)" fill="#e8dec7" opacity="0.415"/><circle cx="0" cy="0" r="2.412" transform="matrix(1 0 0 1 465.47 362.096)" fill="#d6c8a7" opacity="0.365"/><circle cx="0" cy="0" r="2.798" transform="matrix(1 0 0 1 534.09 365.836)" fill="#d4c6a3" opacity="0.388"/><circle cx="0" cy="0" r="2.751" transform="matrix(1 0 0 1 625.595 380.273)" fill="#d5c7a5" opacity="0.324"/><circle cx="0" cy="0" r="2.454" transform="matrix(1 0 0 1 693.114 361.052)" fill="#ddd1b6" opacity="0.295"/><circle cx="0" cy="0" r="1.816" transform="matrix(1 0 0 1 777.931 365.73)" fill="#e7dcc4" opacity="0.399"/><circle cx="0" cy="0" r="2.475" transform="matrix(1 0 0 1 854.162 364.318)" fill="#e4d8bd" opacity="0.278"/><circle cx="0" cy="0" r="2.144" transform="matrix(1 0 0 1 940.592 375.714)" fill="#e1d4b7" opacity="0.365"/><circle cx="0" cy="0" r="2.556" transform="matrix(1 0 0 1 1045.367 378.762)" fill="#dbd0b3" opacity="0.321"/><circle cx="0" cy="0" r="2.672" transform="matrix(1 0 0 1 1118.319 350.166)" fill="#dcd0b3" opacity="0.412"/><circle cx="0" cy="0" r="1.585" transform="matrix(1 0 0 1 1199.241 371.986)" fill="#e7ddc5" opacity="0.329"/><circle cx="0" cy="0" r="1.537" transform="matrix(1 0 0 1 26.63 463.775)" fill="#e8dec8" opacity="0.413"/><circle cx="0" cy="0" r="1.296" transform="matrix(1 0 0 1 103.026 462.197)" fill="#ddd1b6" opacity="0.392"/><circle cx="0" cy="0" r="1.373" transform="matrix(1 0 0 1 210.446 463.041)" fill="#e3d7bb" opacity="0.352"/><circle cx="0" cy="0" r="1.97" transform="matrix(1 0 0 1 276.76 459.159)" fill="#e7dcc4" opacity="0.277"/><circle cx="0" cy="0" r="1.863" transform="matrix(1 0 0 1 379.01 463.741)" fill="#e4d7bc" opacity="0.41"/><circle cx="0" cy="0" r="1.469" transform="matrix(1 0 0 1 440.874 440.883)" fill="#e7dcc4" opacity="0.256"/><circle cx="0" cy="0" r="1.911" transform="matrix(1 0 0 1 524.673 438.706)" fill="#dbd0b3" opacity="0.279"/><circle cx="0" cy="0" r="1.732" transform="matrix(1 0 0 1 612.053 462.859)" fill="#e3d7bc" opacity="0.291"/><circle cx="0" cy="0" r="2.496" transform="matrix(1 0 0 1 713.953 446.286)" fill="#dcd1b5" opacity="0.268"/><circle cx="0" cy="0" r="2.1" transform="matrix(1 0 0 1 778.364 457.936)" fill="#e7dcc4" opacity="0.286"/><circle cx="0" cy="0" r="1.373" transform="matrix(1 0 0 1 876.223 440.239)" fill="#dbcfb2" opacity="0.28"/><circle cx="0" cy="0" r="2.554" transform="matrix(1 0 0 1 959.761 456.182)" fill="#d7c9a9" opacity="0.287"/><circle cx="0" cy="0" r="2.673" transform="matrix(1 0 0 1 1029.476 440.032)" fill="#e5d9bf" opacity="0.359"/><circle cx="0" cy="0" r="1.569" transform="matrix(1 0 0 1 1133.248 465.176)" fill="#e6dcc3" opacity="0.34"/><circle cx="0" cy="0" r="2.579" transform="matrix(1 0 0 1 1204.71 435.392)" fill="#d4c5a3" opacity="0.298"/><circle cx="0" cy="0" r="2.161" transform="matrix(1 0 0 1 29.358 532.163)" fill="#e6dac1" opacity="0.384"/><circle cx="0" cy="0" r="2.471" transform="matrix(1 0 0 1 121.552 522.146)" fill="#d4c5a3" opacity="0.367"/><circle cx="0" cy="0" r="2.069" transform="matrix(1 0 0 1 203.858 534.32)" fill="#e7dcc3" opacity="0.307"/><circle cx="0" cy="0" r="2.23" transform="matrix(1 0 0 1 269.395 521.324)" fill="#e6dbc2" opacity="0.343"/><circle cx="0" cy="0" r="2.01" transform="matrix(1 0 0 1 356.884 538.108)" fill="#e7dcc5" opacity="0.42"/><circle cx="0" cy="0" r="1.945" transform="matrix(1 0 0 1 436.306 528.788)" fill="#d9cdaf" opacity="0.252"/><circle cx="0" cy="0" r="1.393" transform="matrix(1 0 0 1 524.253 518.408)" fill="#e7dcc4" opacity="0.286"/><circle cx="0" cy="0" r="2.096" transform="matrix(1 0 0 1 619.695 545.618)" fill="#e8dec8" opacity="0.264"/><circle cx="0" cy="0" r="2.279" transform="matrix(1 0 0 1 702.77 548.535)" fill="#d5c7a6" opacity="0.243"/><circle cx="0" cy="0" r="2.545" transform="matrix(1 0 0 1 786.593 526.762)" fill="#d9ccad" opacity="0.298"/><circle cx="0" cy="0" r="1.845" transform="matrix(1 0 0 1 882.354 547.213)" fill="#dacdaf" opacity="0.294"/><circle cx="0" cy="0" r="1.798" transform="matrix(1 0 0 1 941.015 523.576)" fill="#e6dbc2" opacity="0.304"/><circle cx="0" cy="0" r="2.137" transform="matrix(1 0 0 1 1043.839 529.242)" fill="#e4d7bc" opacity="0.31"/><circle cx="0" cy="0" r="2.117" transform="matrix(1 0 0 1 1123.796 526.16)" fill="#e2d5b8" opacity="0.279"/><circle cx="0" cy="0" r="1.769" transform="matrix(1 0 0 1 1193.405 547.213)" fill="#d3c5a2" opacity="0.328"/><circle cx="0" cy="0" r="2.333" transform="matrix(1 0 0 1 18.568 613.539)" fill="#e7ddc5" opacity="0.396"/><circle cx="0" cy="0" r="2.694" transform="matrix(1 0 0 1 126.711 622.941)" fill="#d4c6a4" opacity="0.318"/><circle cx="0" cy="0" r="1.752" transform="matrix(1 0 0 1 212.244 627.668)" fill="#d6c9a8" opacity="0.37"/><circle cx="0" cy="0" r="1.3" transform="matrix(1 0 0 1 272.479 602.6)" fill="#e5dac0" opacity="0.349"/><circle cx="0" cy="0" r="2.178" transform="matrix(1 0 0 1 375.497 602.915)" fill="#e0d2b4" opacity="0.411"/><circle cx="0" cy="0" r="2.294" transform="matrix(1 0 0 1 463.071 610.978)" fill="#e5dac0" opacity="0.302"/><circle cx="0" cy="0" r="2.725" transform="matrix(1 0 0 1 519.519 617.927)" fill="#e6dbc3" opacity="0.373"/><circle cx="0" cy="0" r="2.585" transform="matrix(1 0 0 1 631.279 620.325)" fill="#e6dbc3" opacity="0.303"/><circle cx="0" cy="0" r="1.999" transform="matrix(1 0 0 1 708.329 624.98)" fill="#e5d9bf" opacity="0.33"/><circle cx="0" cy="0" r="1.469" transform="matrix(1 0 0 1 790.256 611.196)" fill="#d9ccae" opacity="0.245"/><circle cx="0" cy="0" r="2.605" transform="matrix(1 0 0 1 862.503 604.33)" fill="#dcd0b3" opacity="0.403"/><circle cx="0" cy="0" r="1.741" transform="matrix(1 0 0 1 960.422 602.068)" fill="#e4d9be" opacity="0.287"/><circle cx="0" cy="0" r="2.724" transform="matrix(1 0 0 1 1023.21 613.096)" fill="#e4d8bd" opacity="0.29"/><circle cx="0" cy="0" r="2.058" transform="matrix(1 0 0 1 1125.03 629.075)" fill="#d9ccae" opacity="0.264"/><circle cx="0" cy="0" r="1.854" transform="matrix(1 0 0 1 1212.017 606.936)" fill="#ddd1b6" opacity="0.256"/><circle cx="0" cy="0" r="1.399" transform="matrix(1 0 0 1 30.863 700.441)" fill="#d6c8a7" opacity="0.248"/><circle cx="0" cy="0" r="2.356" transform="matrix(1 0 0 1 100.452 699.308)" fill="#e6dbc2" opacity="0.28"/><circle cx="0" cy="0" r="1.651" transform="matrix(1 0 0 1 197.274 701.146)" fill="#e5d9bf" opacity="0.361"/><circle cx="0" cy="0" r="1.667" transform="matrix(1 0 0 1 287.388 707.526)" fill="#dacdb0" opacity="0.231"/><circle cx="0" cy="0" r="2.66" transform="matrix(1 0 0 1 351.833 694.535)" fill="#d6c9a8" opacity="0.316"/><circle cx="0" cy="0" r="1.817" transform="matrix(1 0 0 1 459.49 714.845)" fill="#e7ddc5" opacity="0.406"/><circle cx="0" cy="0" r="1.71" transform="matrix(1 0 0 1 531.649 700.703)" fill="#e8dec7" opacity="0.248"/><circle cx="0" cy="0" r="2.141" transform="matrix(1 0 0 1 603.925 701.467)" fill="#d9cdae" opacity="0.312"/><circle cx="0" cy="0" r="1.284" transform="matrix(1 0 0 1 717.657 715.05)" fill="#e5dac0" opacity="0.246"/><circle cx="0" cy="0" r="1.979" transform="matrix(1 0 0 1 789.48 696.427)" fill="#e3d7bb" opacity="0.268"/><circle cx="0" cy="0" r="2.557" transform="matrix(1 0 0 1 873.333 708.277)" fill="#e3d6ba" opacity="0.36"/><circle cx="0" cy="0" r="1.414" transform="matrix(1 0 0 1 956.75 699.592)" fill="#d6c9a8" opacity="0.341"/><circle cx="0" cy="0" r="1.659" transform="matrix(1 0 0 1 1029.069 696.897)" fill="#e1d3b5" opacity="0.404"/><circle cx="0" cy="0" r="1.856" transform="matrix(1 0 0 1 1130.757 698.783)" fill="#d9cdaf" opacity="0.363"/><circle cx="0" cy="0" r="2.198" transform="matrix(1 0 0 1 1213.066 710.449)" fill="#d7caaa" opacity="0.336"/><rect x="-32" y="-32" width="64" height="64" transform="matrix(1 0 0 1 224 80)" fill="#2c667c"/><rect x="-32" y="-32" width="64" height="64" transform="matrix(1 0 0 1 288 80)" fill="#2c667c"/><rect x="-32" y="-32" width="64" height="64" transform="matrix(1 0 0 1 352 80)" fill="#2c667c"/><rect x="-32" y="-32" width="64" height="64" transform="matrix(1 0 0 1 416 80)" fill="#2c667c"/><rect x="-32" y="-32" width="64" height="64" rx="14" transform="matrix(1 0 0 1 480 80)" fill="#b9a882"/><rect x="-32" y="-32" width="64" height="64" rx="14" transform="matrix(1 0 0 1 544 80)" fill="#b9a882"/><rect x="-32" y="-32" width="64" height="64" transform="matrix(1 0 0 1 608 80)" fill="#2c667c"/><rect x="-32" y="-32" width="64" height="64" transform="matrix(1 0 0 1 672 80)" fill="#2c667c"/><rect x="-32" y="-32" width="64" height="64" transform="matrix(1 0 0 1 736 80)" fill="#2c667c"/><rect x="-32" y="-32" width="64" height="64" transform="matrix(1 0 0 1 800 80)" fill="#2c667c"/><rect x="-32" y="-32" width="64" height="64" transform="matrix(1 0 0 1 864 80)" fill="#2c667c"/><rect x="-32" y="-32" width="64" height="64" transform="matrix(1 0 0 1 928 80)" fill="#2c667c"/><rect x="-32" y="-32" width="64" height="64" transform="matrix(1 0 0 1 992 80)" fill="#2c667c"/><rect x="-32" y="-32" width="64" height="64" transform="matrix(1 0 0 1 1056 80)" fill="#2c667c"/><rect x="-32" y="-32" width="64" height="64" transform="matrix(1 0 0 1 224 144)" fill="#2c667c"/><rect x="-32" y="-32" width="64" height="64" rx="14" transform="matrix(1 0 0 1 288 144)" fill="#b9a882"/><rect x="-32" y="-32" width="64" height="64" rx="14" transform="matrix(1 0 0 1 352 144)" fill="#b9a882"/><rect x="-32" y="-32" width="64" height="64" transform="matrix(1 0 0 1 416 144)" fill="#2c667c"/><rect x="-32" y="-32" width="64" height="64" transform="matrix(1 0 0 1 480 144)" fill="#2c667c"/><rect x="-32" y="-32" width="64" height="64" rx="14" transform="matrix(1 0 0 1 544 144)" fill="#b9a882"/><rect x="-32" y="-32" width="64" height="64" rx="14" transform="matrix(1 0 0 1 608 144)" fill="#b9a882"/><rect x="-32" y="-32" width="64" height="64" rx="14" transform="matrix(1 0 0 1 672 144)" fill="#b9a882"/><rect x="-32" y="-32" width="64" height="64" transform="matrix(1 0 0 1 736 144)" fill="#2c667c"/><rect x="-32" y="-32" width="64" height="64" rx="14" transform="matrix(1 0 0 1 800 144)" fill="#b9a882"/><rect x="-32" y="-32" width="64" height="64" rx="14" transform="matrix(1 0 0 1 864 144)" fill="#b9a882"/><rect x="-32" y="-32" width="64" height="64" rx="14" transform="matrix(1 0 0 1 928 144)" fill="#b9a882"/><rect x="-32" y="-32" width="64" height="64" rx="14" transform="matrix(1 0 0 1 992 144)" fill="#b9a882"/><rect x="-32" y="-32" width="64" height="64" transform="matrix(1 0 0 1 1056 144)" fill="#2c667c"/><rect x="-32" y="-32" width="64" height="64" transform="matrix(1 0 0 1 224 208)" fill="#2c667c"/><rect x="-32" y="-32" width="64" height="64" rx="14" transform="matrix(1 0 0 1 288 208)" fill="#b9a882"/><rect x="-32" y="-32" width="64" height="64" transform="matrix(1 0 0 1 352 208)" fill="#2c667c"/><rect x="-32" y="-32" width="64" height="64" rx="14" transform="matrix(1 0 0 1 416 208)" fill="#b9a882"/><rect x="-32" y="-32" width="64" height="64" transform="matrix(1 0 0 1 480 208)" fill="#2c667c"/><rect x="-32" y="-32" width="64" height="64" rx="14" transform="matrix(1 0 0 1 544 208)" fill="#b9a882"/><rect x="-32" y="-32" width="64" height="64" rx="4" transform="matrix(1 0 0 1 608 208)" fill="#b9a882" opacity="0.55"/><rect x="-32" y="-32" width="64" height="64" rx="4" transform="matrix(1 0 0 1 672 208)" fill="#b9a882" opacity="0.55"/><rect x="-32" y="-32" width="64" height="64" rx="14" transform="matrix(1 0 0 1 736 208)" fill="#b9a882"/><rect x="-32" y="-32" width="64" height="64" rx="4" transform="matrix(1 0 0 1 800 208)" fill="#b9a882" opacity="0.55"/><rect x="-32" y="-32" width="64" height="64" rx="4" transform="matrix(1 0 0 1 864 208)" fill="#b9a882" opacity="0.55"/><rect x="-32" y="-32" width="64" height="64" rx="14" transform="matrix(1 0 0 1 928 208)" fill="#b9a882"/><rect x="-32" y="-32" width="64" height="64" transform="matrix(1 0 0 1 992 208)" fill="#2c667c"/><rect x="-32" y="-32" width="64" height="64" transform="matrix(1 0 0 1 1056 208)" fill="#2c667c"/><rect x="-32" y="-32" width="64" height="64" transform="matrix(1 0 0 1 224 272)" fill="#2c667c"/><rect x="-32" y="-32" width="64" height="64" rx="14" transform="matrix(1 0 0 1 288 272)" fill="#b9a882"/><rect x="-32" y="-32" width="64" height="64" rx="14" transform="matrix(1 0 0 1 352 272)" fill="#b9a882"/><rect x="-32" y="-32" width="64" height="64" rx="4" transform="matrix(1 0 0 1 416 272)" fill="#b9a882" opacity="0.55"/><rect x="-32" y="-32" width="64" height="64" rx="14" transform="matrix(1 0 0 1 480 272)" fill="#b9a882"/><rect x="-32" y="-32" width="64" height="64" rx="4" transform="matrix(1 0 0 1 544 272)" fill="#b9a882" opacity="0.55"/><rect x="-32" y="-32" width="64" height="64" rx="4" transform="matrix(1 0 0 1 608 272)" fill="#b9a882" opacity="0.55"/><rect x="-32" y="-32" width="64" height="64" rx="4" transform="matrix(1 0 0 1 672 272)" fill="#b9a882" opacity="0.55"/><rect x="-32" y="-32" width="64" height="64" rx="4" transform="matrix(1 0 0 1 736 272)" fill="#b9a882" opacity="0.55"/><rect x="-32" y="-32" width="64" height="64" rx="4" transform="matrix(1 0 0 1 800 272)" fill="#b9a882" opacity="0.55"/><rect x="-32" y="-32" width="64" height="64" rx="4" transform="matrix(1 0 0 1 864 272)" fill="#b9a882" opacity="0.55"/><rect x="-32" y="-32" width="64" height="64" rx="14" transform="matrix(1 0 0 1 928 272)" fill="#b9a882"/><rect x="-32" y="-32" width="64" height="64" transform="matrix(1 0 0 1 992 272)" fill="#2c667c"/><rect x="-32" y="-32" width="64" height="64" transform="matrix(1 0 0 1 1056 272)" fill="#2c667c"/><rect x="-32" y="-32" width="64" height="64" rx="14" transform="matrix(1 0 0 1 224 336)" fill="#b9a882"/><rect x="-32" y="-32" width="64" height="64" rx="4" transform="matrix(1 0 0 1 288 336)" fill="#b9a882" opacity="0.55"/><rect x="-32" y="-32" width="64" height="64" rx="4" transform="matrix(1 0 0 1 352 336)" fill="#b9a882" opacity="0.55"/><rect x="-32" y="-32" width="64" height="64" rx="4" transform="matrix(1 0 0 1 416 336)" fill="#b9a882" opacity="0.55"/><rect x="-32" y="-32" width="64" height="64" rx="4" transform="matrix(1 0 0 1 480 336)" fill="#b9a882" opacity="0.55"/><rect x="-32" y="-32" width="64" height="64" rx="14" transform="matrix(1 0 0 1 544 336)" fill="#b9a882"/><rect x="-32" y="-32" width="64" height="64" rx="4" transform="matrix(1 0 0 1 608 336)" fill="#b9a882" opacity="0.55"/><rect x="-32" y="-32" width="64" height="64" rx="4" transform="matrix(1 0 0 1 672 336)" fill="#b9a882" opacity="0.55"/><rect x="-32" y="-32" width="64" height="64" rx="4" transform="matrix(1 0 0 1 736 336)" fill="#b9a882" opacity="0.55"/><rect x="-32" y="-32" width="64" height="64" rx="4" transform="matrix(1 0 0 1 800 336)" fill="#b9a882" opacity="0.55"/><rect x="-32" y="-32" width="64" height="64" rx="14" transform="matrix(1 0 0 1 864 336)" fill="#b9a882"/><rect x="-32" y="-32" width="64" height="64" transform="matrix(1 0 0 1 928 336)" fill="#2c667c"/><rect x="-32" y="-32" width="64" height="64" rx="14" transform="matrix(1 0 0 1 992 336)" fill="#b9a882"/><rect x="-32" y="-32" width="64" height="64" transform="matrix(1 0 0 1 1056 336)" fill="#2c667c"/><rect x="-32" y="-32" width="64" height="64" transform="matrix(1 0 0 1 224 400)" fill="#2c667c"/><rect x="-32" y="-32" width="64" height="64" rx="14" transform="matrix(1 0 0 1 288 400)" fill="#b9a882"/><rect x="-32" y="-32" width="64" height="64" rx="4" transform="matrix(1 0 0 1 352 400)" fill="#b9a882" opacity="0.55"/><rect x="-32" y="-32" width="64" height="64" rx="4" transform="matrix(1 0 0 1 416 400)" fill="#b9a882" opacity="0.55"/><rect x="-32" y="-32" width="64" height="64" rx="14" transform="matrix(1 0 0 1 480 400)" fill="#b9a882"/><rect x="-32" y="-32" width="64" height="64" transform="matrix(1 0 0 1 544 400)" fill="#2c667c"/><rect x="-32" y="-32" width="64" height="64" rx="14" transform="matrix(1 0 0 1 608 400)" fill="#b9a882"/><rect x="-32" y="-32" width="64" height="64" rx="4" transform="matrix(1 0 0 1 672 400)" fill="#b9a882" opacity="0.55"/><rect x="-32" y="-32" width="64" height="64" rx="4" transform="matrix(1 0 0 1 736 400)" fill="#b9a882" opacity="0.55"/><rect x="-32" y="-32" width="64" height="64" rx="4" transform="matrix(1 0 0 1 800 400)" fill="#b9a882" opacity="0.55"/><rect x="-32" y="-32" width="64" height="64" rx="4" transform="matrix(1 0 0 1 864 400)" fill="#b9a882" opacity="0.55"/><rect x="-32" y="-32" width="64" height="64" rx="14" transform="matrix(1 0 0 1 928 400)" fill="#b9a882"/><rect x="-32" y="-32" width="64" height="64" transform="matrix(1 0 0 1 992 400)" fill="#2c667c"/><rect x="-32" y="-32" width="64" height="64" rx="14" transform="matrix(1 0 0 1 1056 400)" fill="#b9a882"/><rect x="-32" y="-32" width="64" height="64" transform="matrix(1 0 0 1 224 464)" fill="#2c667c"/><rect x="-32" y="-32" width="64" height="64" rx="14" transform="matrix(1 0 0 1 288 464)" fill="#b9a882"/><rect x="-32" y="-32" width="64" height="64" rx="4" transform="matrix(1 0 0 1 352 464)" fill="#b9a882" opacity="0.55"/><rect x="-32" y="-32" width="64" height="64" rx="14" transform="matrix(1 0 0 1 416 464)" fill="#b9a882"/><rect x="-32" y="-32" width="64" height="64" rx="4" transform="matrix(1 0 0 1 480 464)" fill="#b9a882" opacity="0.55"/><rect x="-32" y="-32" width="64" height="64" rx="14" transform="matrix(1 0 0 1 544 464)" fill="#b9a882"/><rect x="-32" y="-32" width="64" height="64" rx="4" transform="matrix(1 0 0 1 608 464)" fill="#b9a882" opacity="0.55"/><rect x="-32" y="-32" width="64" height="64" rx="14" transform="matrix(1 0 0 1 672 464)" fill="#b9a882"/><rect x="-32" y="-32" width="64" height="64" rx="4" transform="matrix(1 0 0 1 736 464)" fill="#b9a882" opacity="0.55"/><rect x="-32" y="-32" width="64" height="64" rx="4" transform="matrix(1 0 0 1 800 464)" fill="#b9a882" opacity="0.55"/><rect x="-32" y="-32" width="64" height="64" rx="4" transform="matrix(1 0 0 1 864 464)" fill="#b9a882" opacity="0.55"/><rect x="-32" y="-32" width="64" height="64" rx="14" transform="matrix(1 0 0 1 928 464)" fill="#b9a882"/><rect x="-32" y="-32" width="64" height="64" transform="matrix(1 0 0 1 992 464)" fill="#2c667c"/><rect x="-32" y="-32" width="64" height="64" transform="matrix(1 0 0 1 1056 464)" fill="#2c667c"/><rect x="-32" y="-32" width="64" height="64" transform="matrix(1 0 0 1 224 528)" fill="#2c667c"/><rect x="-32" y="-32" width="64" height="64" transform="matrix(1 0 0 1 288 528)" fill="#2c667c"/><rect x="-32" y="-32" width="64" height="64" rx="14" transform="matrix(1 0 0 1 352 528)" fill="#b9a882"/><rect x="-32" y="-32" width="64" height="64" transform="matrix(1 0 0 1 416 528)" fill="#2c667c"/><rect x="-32" y="-32" width="64" height="64" rx="14" transform="matrix(1 0 0 1 480 528)" fill="#b9a882"/><rect x="-32" y="-32" width="64" height="64" rx="4" transform="matrix(1 0 0 1 544 528)" fill="#b9a882" opacity="0.55"/><rect x="-32" y="-32" width="64" height="64" rx="14" transform="matrix(1 0 0 1 608 528)" fill="#b9a882"/><rect x="-32" y="-32" width="64" height="64" transform="matrix(1 0 0 1 672 528)" fill="#2c667c"/><rect x="-32" y="-32" width="64" height="64" rx="14" transform="matrix(1 0 0 1 736 528)" fill="#b9a882"/><rect x="-32" y="-32" width="64" height="64" rx="4" transform="matrix(1 0 0 1 800 528)" fill="#b9a882" opacity="0.55"/><rect x="-32" y="-32" width="64" height="64" rx="4" transform="matrix(1 0 0 1 864 528)" fill="#b9a882" opacity="0.55"/><rect x="-32" y="-32" width="64" height="64" rx="14" transform="matrix(1 0 0 1 928 528)" fill="#b9a882"/><rect x="-32" y="-32" width="64" height="64" transform="matrix(1 0 0 1 992 528)" fill="#2c667c"/><rect x="-32" y="-32" width="64" height="64" transform="matrix(1 0 0 1 1056 528)" fill="#2c667c"/><rect x="-32" y="-32" width="64" height="64" transform="matrix(1 0 0 1 224 592)" fill="#2c667c"/><rect x="-32" y="-32" width="64" height="64" rx="14" transform="matrix(1 0 0 1 288 592)" fill="#b9a882"/><rect x="-32" y="-32" width="64" height="64" rx="14" transform="matrix(1 0 0 1 352 592)" fill="#b9a882"/><rect x="-32" y="-32" width="64" height="64" transform="matrix(1 0 0 1 416 592)" fill="#2c667c"/><rect x="-32" y="-32" width="64" height="64" transform="matrix(1 0 0 1 480 592)" fill="#2c667c"/><rect x="-32" y="-32" width="64" height="64" rx="14" transform="matrix(1 0 0 1 544 592)" fill="#b9a882"/><rect x="-32" y="-32" width="64" height="64" transform="matrix(1 0 0 1 608 592)" fill="#2c667c"/><rect x="-32" y="-32" width="64" height="64" rx="14" transform="matrix(1 0 0 1 672 592)" fill="#b9a882"/><rect x="-32" y="-32" width="64" height="64" rx="14" transform="matrix(1 0 0 1 736 592)" fill="#b9a882"/><rect x="-32" y="-32" width="64" height="64" rx="14" transform="matrix(1 0 0 1 800 592)" fill="#b9a882"/><rect x="-32" y="-32" width="64" height="64" rx="14" transform="matrix(1 0 0 1 864 592)" fill="#b9a882"/><rect x="-32" y="-32" width="64" height="64" rx="14" transform="matrix(1 0 0 1 928 592)" fill="#b9a882"/><rect x="-32" y="-32" width="64" height="64" transform="matrix(1 0 0 1 992 592)" fill="#2c667c"/><rect x="-32" y="-32" width="64" height="64" transform="matrix(1 0 0 1 1056 592)" fill="#2c667c"/><rect x="-32" y="-32" width="64" height="64" transform="matrix(1 0 0 1 224 656)" fill="#2c667c"/><rect x="-32" y="-32" width="64" height="64" rx="14" transform="matrix(1 0 0 1 288 656)" fill="#b9a882"/><rect x="-32" y="-32" width="64" height="64" transform="matrix(1 0 0 1 352 656)" fill="#2c667c"/><rect x="-32" y="-32" width="64" height="64" transform="matrix(1 0 0 1 416 656)" fill="#2c667c"/><rect x="-32" y="-32" width="64" height="64" transform="matrix(1 0 0 1 480 656)" fill="#2c667c"/><rect x="-32" y="-32" width="64" height="64" transform="matrix(1 0 0 1 544 656)" fill="#2c667c"/><rect x="-32" y="-32" width="64" height="64" rx="14" transform="matrix(1 0 0 1 608 656)" fill="#b9a882"/><rect x="-32" y="-32" width="64" height="64" transform="matrix(1 0 0 1 672 656)" fill="#2c667c"/><rect x="-32" y="-32" width="64" height="64" transform="matrix(1 0 0 1 736 656)" fill="#2c667c"/><rect x="-32" y="-32" width="64" height="64" transform="matrix(1 0 0 1 800 656)" fill="#2c667c"/><rect x="-32" y="-32" width="64" height="64" transform="matrix(1 0 0 1 864 656)" fill="#2c667c"/><rect x="-32" y="-32" width="64" height="64" transform="matrix(1 0 0 1 928 656)" fill="#2c667c"/><rect x="-32" y="-32" width="64" height="64" transform="matrix(1 0 0 1 992 656)" fill="#2c667c"/><rect x="-32" y="-32" width="64" height="64" transform="matrix(1 0 0 1 1056 656)" fill="#2c667c"/><rect x="-10.666" y="-1" width="21.331" height="2" rx="1" transform="matrix(1 0 0 1 224 82.665)" fill="#8fcdd8" opacity="0.5"/><rect x="-11.764" y="-1" width="23.527" height="2" rx="1" transform="matrix(1 0 0 1 352 78.047)" fill="#8fcdd8" opacity="0.5"/><rect x="-8.066" y="-1" width="16.132" height="2" rx="1" transform="matrix(1 0 0 1 416 92.625)" fill="#8fcdd8" opacity="0.5"/><rect x="-27" y="-27" width="54" height="54" rx="8" transform="matrix(1 0 0 1 480 80)" fill="#91a94e" stroke="rgba(35, 32, 26, 0.12)" stroke-width="1"/><rect x="-27" y="-27" width="54" height="54" rx="8" transform="matrix(1 0 0 1 544 80)" fill="#9ab259" stroke="rgba(35, 32, 26, 0.12)" stroke-width="1"/><rect x="-11.814" y="-1" width="23.629" height="2" rx="1" transform="matrix(1 0 0 1 608 71.396)" fill="#8fcdd8" opacity="0.5"/><rect x="-10.002" y="-1" width="20.004" height="2" rx="1" transform="matrix(1 0 0 1 672 82.962)" fill="#8fcdd8" opacity="0.5"/><rect x="-9.484" y="-1" width="18.968" height="2" rx="1" transform="matrix(1 0 0 1 800 75.695)" fill="#8fcdd8" opacity="0.5"/><rect x="-10.779" y="-1" width="21.557" height="2" rx="1" transform="matrix(1 0 0 1 928 89.973)" fill="#8fcdd8" opacity="0.5"/><rect x="-7.568" y="-1" width="15.135" height="2" rx="1" transform="matrix(1 0 0 1 1056 84.053)" fill="#8fcdd8" opacity="0.5"/><rect x="-11.419" y="-1" width="22.838" height="2" rx="1" transform="matrix(1 0 0 1 224 150.537)" fill="#8fcdd8" opacity="0.5"/><rect x="-27" y="-27" width="54" height="54" rx="8" transform="matrix(1 0 0 1 288 144)" fill="#9ab258" stroke="rgba(35, 32, 26, 0.12)" stroke-width="1"/><rect x="-27" y="-27" width="54" height="54" rx="8" transform="matrix(1 0 0 1 352 144)" fill="#98b055" stroke="rgba(35, 32, 26, 0.12)" stroke-width="1"/><rect x="-8.056" y="-1" width="16.112" height="2" rx="1" transform="matrix(1 0 0 1 416 133.74)" fill="#8fcdd8" opacity="0.5"/><rect x="-11.62" y="-1" width="23.24" height="2" rx="1" transform="matrix(1 0 0 1 480 145.024)" fill="#8fcdd8" opacity="0.5"/><rect x="-27" y="-27" width="54" height="54" rx="8" transform="matrix(1 0 0 1 544 144)" fill="#94ad50" stroke="rgba(35, 32, 26, 0.12)" stroke-width="1"/><rect x="-27" y="-27" width="54" height="54" rx="8" transform="matrix(1 0 0 1 608 144)" fill="#9ab259" stroke="rgba(35, 32, 26, 0.12)" stroke-width="1"/><rect x="-27" y="-27" width="54" height="54" rx="8" transform="matrix(1 0 0 1 672 144)" fill="#96af52" stroke="rgba(35, 32, 26, 0.12)" stroke-width="1"/><rect x="-27" y="-27" width="54" height="54" rx="8" transform="matrix(1 0 0 1 800 144)" fill="#99b257" stroke="rgba(35, 32, 26, 0.12)" stroke-width="1"/><rect x="-27" y="-27" width="54" height="54" rx="8" transform="matrix(1 0 0 1 864 144)" fill="#96af52" stroke="rgba(35, 32, 26, 0.12)" stroke-width="1"/><rect x="-27" y="-27" width="54" height="54" rx="8" transform="matrix(1 0 0 1 928 144)" fill="#9ab259" stroke="rgba(35, 32, 26, 0.12)" stroke-width="1"/><rect x="-27" y="-27" width="54" height="54" rx="8" transform="matrix(1 0 0 1 992 144)" fill="#92aa4f" stroke="rgba(35, 32, 26, 0.12)" stroke-width="1"/><rect x="-9.931" y="-1" width="19.861" height="2" rx="1" transform="matrix(1 0 0 1 224 200.304)" fill="#8fcdd8" opacity="0.5"/><rect x="-27" y="-27" width="54" height="54" rx="8" transform="matrix(1 0 0 1 288 208)" fill="#93ac4f" stroke="rgba(35, 32, 26, 0.12)" stroke-width="1"/><rect x="-27" y="-27" width="54" height="54" rx="8" transform="matrix(1 0 0 1 416 208)" fill="#50843f" stroke="rgba(35, 32, 26, 0.12)" stroke-width="1"/><rect x="-27" y="-27" width="54" height="54" rx="8" transform="matrix(1 0 0 1 544 208)" fill="#8fa74d" stroke="rgba(35, 32, 26, 0.12)" stroke-width="1"/><rect x="-27" y="-27" width="54" height="54" rx="8" transform="matrix(1 0 0 1 608 208)" fill="#9ab258" stroke="rgba(35, 32, 26, 0.12)" stroke-width="1"/><rect x="-27" y="-27" width="54" height="54" rx="8" transform="matrix(1 0 0 1 672 208)" fill="#9ab259" stroke="rgba(35, 32, 26, 0.12)" stroke-width="1"/><rect x="-27" y="-27" width="54" height="54" rx="8" transform="matrix(1 0 0 1 736 208)" fill="#94ad50" stroke="rgba(35, 32, 26, 0.12)" stroke-width="1"/><rect x="-27" y="-27" width="54" height="54" rx="8" transform="matrix(1 0 0 1 800 208)" fill="#91aa4f" stroke="rgba(35, 32, 26, 0.12)" stroke-width="1"/><rect x="-27" y="-27" width="54" height="54" rx="8" transform="matrix(1 0 0 1 864 208)" fill="#8fa74d" stroke="rgba(35, 32, 26, 0.12)" stroke-width="1"/><rect x="-27" y="-27" width="54" height="54" rx="8" transform="matrix(1 0 0 1 928 208)" fill="#9ab259" stroke="rgba(35, 32, 26, 0.12)" stroke-width="1"/><rect x="-7.29" y="-1" width="14.58" height="2" rx="1" transform="matrix(1 0 0 1 224 269.089)" fill="#8fcdd8" opacity="0.5"/><rect x="-27" y="-27" width="54" height="54" rx="8" transform="matrix(1 0 0 1 288 272)" fill="#9ab258" stroke="rgba(35, 32, 26, 0.12)" stroke-width="1"/><rect x="-27" y="-27" width="54" height="54" rx="8" transform="matrix(1 0 0 1 352 272)" fill="#50833e" stroke="rgba(35, 32, 26, 0.12)" stroke-width="1"/><rect x="-27" y="-27" width="54" height="54" rx="8" transform="matrix(1 0 0 1 416 272)" fill="#95ae50" stroke="rgba(35, 32, 26, 0.12)" stroke-width="1"/><rect x="-27" y="-27" width="54" height="54" rx="8" transform="matrix(1 0 0 1 480 272)" fill="#4d7e3c" stroke="rgba(35, 32, 26, 0.12)" stroke-width="1"/><rect x="-27" y="-27" width="54" height="54" rx="8" transform="matrix(1 0 0 1 544 272)" fill="#4c7e3c" stroke="rgba(35, 32, 26, 0.12)" stroke-width="1"/><rect x="-27" y="-27" width="54" height="54" rx="8" transform="matrix(1 0 0 1 608 272)" fill="#9bb35a" stroke="rgba(35, 32, 26, 0.12)" stroke-width="1"/><rect x="-27" y="-27" width="54" height="54" rx="8" transform="matrix(1 0 0 1 672 272)" fill="#8ea64d" stroke="rgba(35, 32, 26, 0.12)" stroke-width="1"/><rect x="-27" y="-27" width="54" height="54" rx="8" transform="matrix(1 0 0 1 736 272)" fill="#99b157" stroke="rgba(35, 32, 26, 0.12)" stroke-width="1"/><rect x="-27" y="-27" width="54" height="54" rx="8" transform="matrix(1 0 0 1 800 272)" fill="#98b156" stroke="rgba(35, 32, 26, 0.12)" stroke-width="1"/><rect x="-27" y="-27" width="54" height="54" rx="8" transform="matrix(1 0 0 1 864 272)" fill="#90a84e" stroke="rgba(35, 32, 26, 0.12)" stroke-width="1"/><rect x="-27" y="-27" width="54" height="54" rx="8" transform="matrix(1 0 0 1 928 272)" fill="#9cb35b" stroke="rgba(35, 32, 26, 0.12)" stroke-width="1"/><rect x="-10.655" y="-1" width="21.31" height="2" rx="1" transform="matrix(1 0 0 1 992 273.302)" fill="#8fcdd8" opacity="0.5"/><rect x="-11.228" y="-1" width="22.457" height="2" rx="1" transform="matrix(1 0 0 1 1056 262.278)" fill="#8fcdd8" opacity="0.5"/><rect x="-27" y="-27" width="54" height="54" rx="8" transform="matrix(1 0 0 1 224 336)" fill="#99b156" stroke="rgba(35, 32, 26, 0.12)" stroke-width="1"/><rect x="-27" y="-27" width="54" height="54" rx="8" transform="matrix(1 0 0 1 288 336)" fill="#99b258" stroke="rgba(35, 32, 26, 0.12)" stroke-width="1"/><rect x="-27" y="-27" width="54" height="54" rx="8" transform="matrix(1 0 0 1 352 336)" fill="#94ad50" stroke="rgba(35, 32, 26, 0.12)" stroke-width="1"/><rect x="-27" y="-27" width="54" height="54" rx="8" transform="matrix(1 0 0 1 416 336)" fill="#497839" stroke="rgba(35, 32, 26, 0.12)" stroke-width="1"/><rect x="-27" y="-27" width="54" height="54" rx="8" transform="matrix(1 0 0 1 480 336)" fill="#4c7d3b" stroke="rgba(35, 32, 26, 0.12)" stroke-width="1"/><rect x="-27" y="-27" width="54" height="54" rx="8" transform="matrix(1 0 0 1 544 336)" fill="#4a7a3a" stroke="rgba(35, 32, 26, 0.12)" stroke-width="1"/><rect x="-27" y="-27" width="54" height="54" rx="8" transform="matrix(1 0 0 1 608 336)" fill="#467437" stroke="rgba(35, 32, 26, 0.12)" stroke-width="1"/><rect x="-27" y="-27" width="54" height="54" rx="8" transform="matrix(1 0 0 1 672 336)" fill="#487638" stroke="rgba(35, 32, 26, 0.12)" stroke-width="1"/><rect x="-27" y="-27" width="54" height="54" rx="8" transform="matrix(1 0 0 1 736 336)" fill="#9cb35c" stroke="rgba(35, 32, 26, 0.12)" stroke-width="1"/><rect x="-27" y="-27" width="54" height="54" rx="8" transform="matrix(1 0 0 1 800 336)" fill="#8fa74d" stroke="rgba(35, 32, 26, 0.12)" stroke-width="1"/><rect x="-27" y="-27" width="54" height="54" rx="8" transform="matrix(1 0 0 1 864 336)" fill="#8fa74d" stroke="rgba(35, 32, 26, 0.12)" stroke-width="1"/><rect x="-8.02" y="-1" width="16.039" height="2" rx="1" transform="matrix(1 0 0 1 928 347.938)" fill="#8fcdd8" opacity="0.5"/><rect x="-27" y="-27" width="54" height="54" rx="8" transform="matrix(1 0 0 1 992 336)" fill="#97b054" stroke="rgba(35, 32, 26, 0.12)" stroke-width="1"/><rect x="-9.644" y="-1" width="19.289" height="2" rx="1" transform="matrix(1 0 0 1 1056 326.702)" fill="#8fcdd8" opacity="0.5"/><rect x="-8.765" y="-1" width="17.529" height="2" rx="1" transform="matrix(1 0 0 1 224 407.957)" fill="#8fcdd8" opacity="0.5"/><rect x="-27" y="-27" width="54" height="54" rx="8" transform="matrix(1 0 0 1 288 400)" fill="#97b054" stroke="rgba(35, 32, 26, 0.12)" stroke-width="1"/><rect x="-27" y="-27" width="54" height="54" rx="8" transform="matrix(1 0 0 1 352 400)" fill="#92aa4f" stroke="rgba(35, 32, 26, 0.12)" stroke-width="1"/><rect x="-27" y="-27" width="54" height="54" rx="8" transform="matrix(1 0 0 1 416 400)" fill="#98b156" stroke="rgba(35, 32, 26, 0.12)" stroke-width="1"/><rect x="-27" y="-27" width="54" height="54" rx="8" transform="matrix(1 0 0 1 480 400)" fill="#9cb45c" stroke="rgba(35, 32, 26, 0.12)" stroke-width="1"/><rect x="-27" y="-27" width="54" height="54" rx="8" transform="matrix(1 0 0 1 608 400)" fill="#467437" stroke="rgba(35, 32, 26, 0.12)" stroke-width="1"/><rect x="-27" y="-27" width="54" height="54" rx="8" transform="matrix(1 0 0 1 672 400)" fill="#9cb45c" stroke="rgba(35, 32, 26, 0.12)" stroke-width="1"/><rect x="-27" y="-27" width="54" height="54" rx="8" transform="matrix(1 0 0 1 736 400)" fill="#92aa4f" stroke="rgba(35, 32, 26, 0.12)" stroke-width="1"/><rect x="-27" y="-27" width="54" height="54" rx="8" transform="matrix(1 0 0 1 800 400)" fill="#9bb35a" stroke="rgba(35, 32, 26, 0.12)" stroke-width="1"/><rect x="-27" y="-27" width="54" height="54" rx="8" transform="matrix(1 0 0 1 864 400)" fill="#477537" stroke="rgba(35, 32, 26, 0.12)" stroke-width="1"/><rect x="-27" y="-27" width="54" height="54" rx="8" transform="matrix(1 0 0 1 928 400)" fill="#96af52" stroke="rgba(35, 32, 26, 0.12)" stroke-width="1"/><rect x="-27" y="-27" width="54" height="54" rx="8" transform="matrix(1 0 0 1 1056 400)" fill="#9cb35c" stroke="rgba(35, 32, 26, 0.12)" stroke-width="1"/><rect x="-9.691" y="-1" width="19.381" height="2" rx="1" transform="matrix(1 0 0 1 224 451.382)" fill="#8fcdd8" opacity="0.5"/><rect x="-27" y="-27" width="54" height="54" rx="8" transform="matrix(1 0 0 1 288 464)" fill="#9bb35a" stroke="rgba(35, 32, 26, 0.12)" stroke-width="1"/><rect x="-27" y="-27" width="54" height="54" rx="8" transform="matrix(1 0 0 1 352 464)" fill="#9ab258" stroke="rgba(35, 32, 26, 0.12)" stroke-width="1"/><rect x="-27" y="-27" width="54" height="54" rx="8" transform="matrix(1 0 0 1 416 464)" fill="#9ab259" stroke="rgba(35, 32, 26, 0.12)" stroke-width="1"/><rect x="-27" y="-27" width="54" height="54" rx="8" transform="matrix(1 0 0 1 480 464)" fill="#9ab259" stroke="rgba(35, 32, 26, 0.12)" stroke-width="1"/><rect x="-27" y="-27" width="54" height="54" rx="8" transform="matrix(1 0 0 1 544 464)" fill="#4c7d3b" stroke="rgba(35, 32, 26, 0.12)" stroke-width="1"/><rect x="-27" y="-27" width="54" height="54" rx="8" transform="matrix(1 0 0 1 608 464)" fill="#467437" stroke="rgba(35, 32, 26, 0.12)" stroke-width="1"/><rect x="-27" y="-27" width="54" height="54" rx="8" transform="matrix(1 0 0 1 672 464)" fill="#467337" stroke="rgba(35, 32, 26, 0.12)" stroke-width="1"/><rect x="-27" y="-27" width="54" height="54" rx="8" transform="matrix(1 0 0 1 736 464)" fill="#4d7f3c" stroke="rgba(35, 32, 26, 0.12)" stroke-width="1"/><rect x="-27" y="-27" width="54" height="54" rx="8" transform="matrix(1 0 0 1 800 464)" fill="#4b7c3b" stroke="rgba(35, 32, 26, 0.12)" stroke-width="1"/><rect x="-27" y="-27" width="54" height="54" rx="8" transform="matrix(1 0 0 1 864 464)" fill="#4e813d" stroke="rgba(35, 32, 26, 0.12)" stroke-width="1"/><rect x="-27" y="-27" width="54" height="54" rx="8" transform="matrix(1 0 0 1 928 464)" fill="#97b054" stroke="rgba(35, 32, 26, 0.12)" stroke-width="1"/><rect x="-7.199" y="-1" width="14.398" height="2" rx="1" transform="matrix(1 0 0 1 1056 475.674)" fill="#8fcdd8" opacity="0.5"/><rect x="-7.395" y="-1" width="14.791" height="2" rx="1" transform="matrix(1 0 0 1 224 527.338)" fill="#8fcdd8" opacity="0.5"/><rect x="-27" y="-27" width="54" height="54" rx="8" transform="matrix(1 0 0 1 352 528)" fill="#93ac50" stroke="rgba(35, 32, 26, 0.12)" stroke-width="1"/><rect x="-11.808" y="-1" width="23.616" height="2" rx="1" transform="matrix(1 0 0 1 416 530.8)" fill="#8fcdd8" opacity="0.5"/><rect x="-27" y="-27" width="54" height="54" rx="8" transform="matrix(1 0 0 1 480 528)" fill="#97b054" stroke="rgba(35, 32, 26, 0.12)" stroke-width="1"/><rect x="-27" y="-27" width="54" height="54" rx="8" transform="matrix(1 0 0 1 544 528)" fill="#9bb35b" stroke="rgba(35, 32, 26, 0.12)" stroke-width="1"/><rect x="-27" y="-27" width="54" height="54" rx="8" transform="matrix(1 0 0 1 608 528)" fill="#9bb35b" stroke="rgba(35, 32, 26, 0.12)" stroke-width="1"/><rect x="-27" y="-27" width="54" height="54" rx="8" transform="matrix(1 0 0 1 736 528)" fill="#8ea64d" stroke="rgba(35, 32, 26, 0.12)" stroke-width="1"/><rect x="-27" y="-27" width="54" height="54" rx="8" transform="matrix(1 0 0 1 800 528)" fill="#4d803d" stroke="rgba(35, 32, 26, 0.12)" stroke-width="1"/><rect x="-27" y="-27" width="54" height="54" rx="8" transform="matrix(1 0 0 1 864 528)" fill="#467337" stroke="rgba(35, 32, 26, 0.12)" stroke-width="1"/><rect x="-27" y="-27" width="54" height="54" rx="8" transform="matrix(1 0 0 1 928 528)" fill="#98b055" stroke="rgba(35, 32, 26, 0.12)" stroke-width="1"/><rect x="-11.67" y="-1" width="23.339" height="2" rx="1" transform="matrix(1 0 0 1 1056 534.202)" fill="#8fcdd8" opacity="0.5"/><rect x="-27" y="-27" width="54" height="54" rx="8" transform="matrix(1 0 0 1 288 592)" fill="#93ac4f" stroke="rgba(35, 32, 26, 0.12)" stroke-width="1"/><rect x="-27" y="-27" width="54" height="54" rx="8" transform="matrix(1 0 0 1 352 592)" fill="#97b054" stroke="rgba(35, 32, 26, 0.12)" stroke-width="1"/><rect x="-10.236" y="-1" width="20.472" height="2" rx="1" transform="matrix(1 0 0 1 416 588.125)" fill="#8fcdd8" opacity="0.5"/><rect x="-27" y="-27" width="54" height="54" rx="8" transform="matrix(1 0 0 1 544 592)" fill="#477538" stroke="rgba(35, 32, 26, 0.12)" stroke-width="1"/><rect x="-11.411" y="-1" width="22.821" height="2" rx="1" transform="matrix(1 0 0 1 608 578.837)" fill="#8fcdd8" opacity="0.5"/><rect x="-27" y="-27" width="54" height="54" rx="8" transform="matrix(1 0 0 1 672 592)" fill="#4e813d" stroke="rgba(35, 32, 26, 0.12)" stroke-width="1"/><rect x="-27" y="-27" width="54" height="54" rx="8" transform="matrix(1 0 0 1 736 592)" fill="#96af52" stroke="rgba(35, 32, 26, 0.12)" stroke-width="1"/><rect x="-27" y="-27" width="54" height="54" rx="8" transform="matrix(1 0 0 1 800 592)" fill="#93ab4f" stroke="rgba(35, 32, 26, 0.12)" stroke-width="1"/><rect x="-27" y="-27" width="54" height="54" rx="8" transform="matrix(1 0 0 1 864 592)" fill="#9bb35a" stroke="rgba(35, 32, 26, 0.12)" stroke-width="1"/><rect x="-27" y="-27" width="54" height="54" rx="8" transform="matrix(1 0 0 1 928 592)" fill="#9cb45c" stroke="rgba(35, 32, 26, 0.12)" stroke-width="1"/><rect x="-11.139" y="-1" width="22.277" height="2" rx="1" transform="matrix(1 0 0 1 992 588.421)" fill="#8fcdd8" opacity="0.5"/><rect x="-27" y="-27" width="54" height="54" rx="8" transform="matrix(1 0 0 1 288 656)" fill="#8fa74d" stroke="rgba(35, 32, 26, 0.12)" stroke-width="1"/><rect x="-11.806" y="-1" width="23.612" height="2" rx="1" transform="matrix(1 0 0 1 352 663.668)" fill="#8fcdd8" opacity="0.5"/><rect x="-10.252" y="-1" width="20.504" height="2" rx="1" transform="matrix(1 0 0 1 416 662.093)" fill="#8fcdd8" opacity="0.5"/><rect x="-9.413" y="-1" width="18.827" height="2" rx="1" transform="matrix(1 0 0 1 480 668.954)" fill="#8fcdd8" opacity="0.5"/><rect x="-27" y="-27" width="54" height="54" rx="8" transform="matrix(1 0 0 1 608 656)" fill="#97b054" stroke="rgba(35, 32, 26, 0.12)" stroke-width="1"/><rect x="-8.794" y="-1" width="17.588" height="2" rx="1" transform="matrix(1 0 0 1 672 649.633)" fill="#8fcdd8" opacity="0.5"/><rect x="-9.271" y="-1" width="18.541" height="2" rx="1" transform="matrix(1 0 0 1 992 650.85)" fill="#8fcdd8" opacity="0.5"/><rect x="-10.004" y="-1" width="20.008" height="2" rx="1" transform="matrix(1 0 0 1 1056 658.694)" fill="#8fcdd8" opacity="0.5"/><polygon points="-4,0 0,-8 4,0" transform="matrix(1 0 0 1 490.817 81.593)" fill="rgba(74, 122, 58, 0.55)"/><polygon points="-4,0 0,-8 4,0" transform="matrix(1 0 0 1 479.858 75.323)" fill="rgba(74, 122, 58, 0.55)"/><polygon points="-4,0 0,-8 4,0" transform="matrix(1 0 0 1 296.291 142.163)" fill="rgba(74, 122, 58, 0.55)"/><polygon points="-4,0 0,-8 4,0" transform="matrix(1 0 0 1 292.223 145.801)" fill="rgba(74, 122, 58, 0.55)"/><polygon points="-4,0 0,-8 4,0" transform="matrix(1 0 0 1 687.649 138.221)" fill="rgba(74, 122, 58, 0.55)"/><polygon points="-4,0 0,-8 4,0" transform="matrix(1 0 0 1 661.419 146.567)" fill="rgba(74, 122, 58, 0.55)"/><polygon points="-4,0 0,-8 4,0" transform="matrix(1 0 0 1 807.55 154.92)" fill="rgba(74, 122, 58, 0.55)"/><polygon points="-4,0 0,-8 4,0" transform="matrix(1 0 0 1 796.16 136.363)" fill="rgba(74, 122, 58, 0.55)"/><polygon points="-4,0 0,-8 4,0" transform="matrix(1 0 0 1 862.309 154.888)" fill="rgba(74, 122, 58, 0.55)"/><polygon points="-4,0 0,-8 4,0" transform="matrix(1 0 0 1 849.147 140.373)" fill="rgba(74, 122, 58, 0.55)"/><circle cx="0" cy="0" r="7.892" transform="matrix(1 0 0 1 430.977 204.783)" fill="rgba(35, 32, 26, 0.12)"/><path d="M 11.97 0 C 11.97 2.65, 8.76 6.09, 6.34 7.95 C 3.92 9.82, 0.27 11.64, -2.55 11.17 C -5.37 10.69, -9.49 7.68, -10.57 5.09 C -11.66 2.51, -10.45 -1.98, -9.04 -4.35 C -7.63 -6.73, -4.66 -8.56, -2.09 -9.16 C 0.48 -9.76, 4.02 -9.5, 6.36 -7.97 C 8.7 -6.45, 11.97 -2.65, 11.97 0 Z" transform="matrix(1 0 0 1 428.977 196.891)" fill="#4f823e" stroke="rgba(35, 32, 26, 0.4)" stroke-width="1.5"/><polygon points="-4,0 0,-8 4,0" transform="matrix(1 0 0 1 616.639 211.133)" fill="rgba(74, 122, 58, 0.55)"/><polygon points="-4,0 0,-8 4,0" transform="matrix(1 0 0 1 625.631 222.984)" fill="rgba(74, 122, 58, 0.55)"/><polygon points="-4,0 0,-8 4,0" transform="matrix(1 0 0 1 735.865 210.917)" fill="rgba(74, 122, 58, 0.55)"/><polygon points="-4,0 0,-8 4,0" transform="matrix(1 0 0 1 747.619 203.392)" fill="rgba(74, 122, 58, 0.55)"/><polygon points="-4,0 0,-8 4,0" transform="matrix(1 0 0 1 791.997 197.538)" fill="rgba(74, 122, 58, 0.55)"/><polygon points="-4,0 0,-8 4,0" transform="matrix(1 0 0 1 788.068 213.618)" fill="rgba(74, 122, 58, 0.55)"/><polygon points="-4,0 0,-8 4,0" transform="matrix(1 0 0 1 852.967 217.231)" fill="rgba(74, 122, 58, 0.55)"/><polygon points="-4,0 0,-8 4,0" transform="matrix(1 0 0 1 849.222 215.232)" fill="rgba(74, 122, 58, 0.55)"/><circle cx="0" cy="0" r="7.686" transform="matrix(1 0 0 1 359.802 291.727)" fill="rgba(35, 32, 26, 0.12)"/><path d="M 8.71 0 C 8.75 2.36, 7.75 5.09, 5.8 7.28 C 3.85 9.46, -0.53 13.61, -2.99 13.11 C -5.46 12.62, -7.99 7.24, -8.99 4.33 C -9.99 1.42, -9.99 -1.46, -8.98 -4.32 C -7.97 -7.19, -5.35 -12.44, -2.94 -12.87 C -0.52 -13.31, 3.57 -9.06, 5.51 -6.91 C 7.45 -4.76, 8.66 -2.36, 8.71 0 Z" transform="matrix(1 0 0 1 357.802 284.041)" fill="#436e34" stroke="rgba(35, 32, 26, 0.4)" stroke-width="1.5"/><circle cx="0" cy="0" r="7.018" transform="matrix(1 0 0 1 471.13 277.904)" fill="rgba(35, 32, 26, 0.12)"/><path d="M 9.66 0 C 10.06 2.59, 9.37 7.72, 7.41 9.29 C 5.44 10.85, 0.62 10.19, -2.14 9.38 C -4.9 8.57, -7.97 6.73, -9.18 4.42 C -10.38 2.1, -10.46 -1.92, -9.35 -4.5 C -8.24 -7.09, -4.92 -10.79, -2.53 -11.08 C -0.14 -11.37, 2.96 -8.11, 5 -6.26 C 7.03 -4.42, 9.26 -2.59, 9.66 0 Z" transform="matrix(1 0 0 1 469.13 270.885)" fill="#4e803d" stroke="rgba(35, 32, 26, 0.4)" stroke-width="1.5"/><circle cx="0" cy="0" r="8.651" transform="matrix(1 0 0 1 561.734 267.541)" fill="rgba(35, 32, 26, 0.12)"/><path d="M 15.12 0 C 15.27 3.66, 12.24 9.27, 9.2 11.54 C 6.16 13.8, 0.32 14.59, -3.1 13.58 C -6.52 12.57, -10.12 8.56, -11.33 5.46 C -12.55 2.36, -11.78 -1.89, -10.4 -5.01 C -9.01 -8.12, -6.13 -12.31, -3.02 -13.21 C 0.1 -14.11, 5.28 -12.61, 8.3 -10.41 C 11.33 -8.21, 14.97 -3.66, 15.12 0 Z" transform="matrix(1 0 0 1 559.734 258.89)" fill="#416c33" stroke="rgba(35, 32, 26, 0.4)" stroke-width="1.5"/><circle cx="0" cy="0" r="7.509" transform="matrix(1 0 0 1 547.654 267.754)" fill="rgba(35, 32, 26, 0.12)"/><path d="M 9.85 0 C 9.55 2.76, 7.83 5.23, 5.74 7.19 C 3.65 9.16, -0.09 12.21, -2.69 11.81 C -5.3 11.4, -9.07 7.35, -9.9 4.77 C -10.72 2.19, -8.9 -1.15, -7.64 -3.68 C -6.39 -6.21, -4.9 -9.45, -2.37 -10.4 C 0.15 -11.35, 5.45 -11.12, 7.49 -9.39 C 9.52 -7.65, 10.14 -2.76, 9.85 0 Z" transform="matrix(1 0 0 1 545.654 260.245)" fill="#4d7f3c" stroke="rgba(35, 32, 26, 0.4)" stroke-width="1.5"/><polygon points="-4,0 0,-8 4,0" transform="matrix(1 0 0 1 600.912 272.863)" fill="rgba(74, 122, 58, 0.55)"/><polygon points="-4,0 0,-8 4,0" transform="matrix(1 0 0 1 600.861 269.953)" fill="rgba(74, 122, 58, 0.55)"/><polygon points="-4,0 0,-8 4,0" transform="matrix(1 0 0 1 662.543 286.34)" fill="rgba(74, 122, 58, 0.55)"/><polygon points="-4,0 0,-8 4,0" transform="matrix(1 0 0 1 687.344 265.385)" fill="rgba(74, 122, 58, 0.55)"/><polygon points="-4,0 0,-8 4,0" transform="matrix(1 0 0 1 300.628 325.237)" fill="rgba(74, 122, 58, 0.55)"/><polygon points="-4,0 0,-8 4,0" transform="matrix(1 0 0 1 305.884 350.917)" fill="rgba(74, 122, 58, 0.55)"/><polygon points="-4,0 0,-8 4,0" transform="matrix(1 0 0 1 356.65 349.694)" fill="rgba(74, 122, 58, 0.55)"/><polygon points="-4,0 0,-8 4,0" transform="matrix(1 0 0 1 359.814 339.607)" fill="rgba(74, 122, 58, 0.55)"/><circle cx="0" cy="0" r="8.524" transform="matrix(1 0 0 1 404.97 342.352)" fill="rgba(35, 32, 26, 0.12)"/><path d="M 11.52 0 C 11.87 2.91, 10.49 7.74, 8.03 10.07 C 5.58 12.41, 0.32 14.65, -3.2 14.02 C -6.72 13.39, -11.79 9.52, -13.09 6.3 C -14.38 3.08, -12.64 -1.92, -10.99 -5.29 C -9.34 -8.67, -6 -13.58, -3.18 -13.93 C -0.36 -14.29, 3.45 -9.73, 5.9 -7.4 C 8.35 -5.08, 11.16 -2.91, 11.52 0 Z" transform="matrix(1 0 0 1 402.97 333.828)" fill="#538941" stroke="rgba(35, 32, 26, 0.4)" stroke-width="1.5"/><circle cx="0" cy="0" r="7.144" transform="matrix(1 0 0 1 430 355.982)" fill="rgba(35, 32, 26, 0.12)"/><path d="M 11.75 0 C 11.85 2.98, 9.84 7.39, 7.44 9.33 C 5.04 11.27, -0.15 12.56, -2.65 11.62 C -5.15 10.67, -6.57 6.28, -7.57 3.65 C -8.57 1.02, -9.47 -1.63, -8.65 -4.17 C -7.83 -6.7, -5.23 -10.85, -2.64 -11.59 C -0.06 -12.32, 4.44 -10.51, 6.84 -8.58 C 9.24 -6.64, 11.65 -2.98, 11.75 0 Z" transform="matrix(1 0 0 1 428 348.839)" fill="#426d34" stroke="rgba(35, 32, 26, 0.4)" stroke-width="1.5"/><circle cx="0" cy="0" r="9.091" transform="matrix(1 0 0 1 480.639 338.664)" fill="rgba(35, 32, 26, 0.12)"/><path d="M 14.97 0 C 15.35 3.58, 12.69 10.09, 9.72 12.18 C 6.74 14.28, 0.61 13.72, -2.87 12.59 C -6.36 11.46, -9.32 8.6, -11.17 5.38 C -13.03 2.16, -15.41 -3.9, -13.99 -6.74 C -12.57 -9.57, -6.22 -11.21, -2.65 -11.63 C 0.91 -12.06, 4.47 -11.22, 7.4 -9.28 C 10.34 -7.34, 14.58 -3.58, 14.97 0 Z" transform="matrix(1 0 0 1 478.639 329.573)" fill="#477638" stroke="rgba(35, 32, 26, 0.4)" stroke-width="1.5"/><circle cx="0" cy="0" r="7.735" transform="matrix(1 0 0 1 536.123 333.794)" fill="rgba(35, 32, 26, 0.12)"/><path d="M 9.23 0 C 9.39 2.85, 9.19 7.62, 7.3 9.16 C 5.41 10.69, 1.09 9.76, -2.1 9.19 C -5.29 8.61, -10.36 8.11, -11.83 5.7 C -13.3 3.29, -12.41 -2.15, -10.94 -5.27 C -9.46 -8.38, -5.84 -12.56, -2.97 -13 C -0.09 -13.45, 4.29 -10.1, 6.33 -7.93 C 8.36 -5.76, 9.07 -2.85, 9.23 0 Z" transform="matrix(1 0 0 1 534.123 326.059)" fill="#50843f" stroke="rgba(35, 32, 26, 0.4)" stroke-width="1.5"/><circle cx="0" cy="0" r="8.524" transform="matrix(1 0 0 1 543.977 354.271)" fill="rgba(35, 32, 26, 0.12)"/><path d="M 14.5 0 C 14.1 3.35, 9.66 6.64, 6.81 8.54 C 3.96 10.43, 0.34 11.94, -2.6 11.38 C -5.54 10.83, -9.5 7.97, -10.84 5.22 C -12.18 2.47, -11.93 -1.97, -10.64 -5.12 C -9.36 -8.28, -6.44 -12.66, -3.13 -13.73 C 0.18 -14.8, 6.28 -13.85, 9.22 -11.56 C 12.16 -9.27, 14.9 -3.35, 14.5 0 Z" transform="matrix(1 0 0 1 541.977 345.747)" fill="#416b33" stroke="rgba(35, 32, 26, 0.4)" stroke-width="1.5"/><circle cx="0" cy="0" r="8.372" transform="matrix(1 0 0 1 603.381 355.94)" fill="rgba(35, 32, 26, 0.12)"/><path d="M 13.98 0 C 13.76 3.38, 10.25 7.13, 7.42 9.31 C 4.59 11.49, -0.36 13.97, -2.99 13.09 C -5.62 12.21, -6.82 7.19, -8.36 4.03 C -9.9 0.86, -13.18 -3.3, -12.22 -5.89 C -11.27 -8.47, -6.12 -10.64, -2.62 -11.49 C 0.87 -12.34, 5.98 -12.88, 8.74 -10.96 C 11.51 -9.05, 14.2 -3.38, 13.98 0 Z" transform="matrix(1 0 0 1 601.381 347.568)" fill="#487739" stroke="rgba(35, 32, 26, 0.4)" stroke-width="1.5"/><circle cx="0" cy="0" r="7.551" transform="matrix(1 0 0 1 677.678 340.782)" fill="rgba(35, 32, 26, 0.12)"/><path d="M 10.07 0 C 10.48 2.72, 9.7 8.32, 7.71 9.67 C 5.72 11.02, 0.74 9.08, -1.85 8.09 C -4.43 7.11, -6.43 5.91, -7.8 3.76 C -9.17 1.6, -10.88 -2.08, -10.07 -4.85 C -9.26 -7.62, -5.49 -12.56, -2.93 -12.86 C -0.37 -13.15, 3.12 -8.77, 5.29 -6.63 C 7.46 -4.49, 9.67 -2.72, 10.07 0 Z" transform="matrix(1 0 0 1 675.678 333.231)" fill="#50843f" stroke="rgba(35, 32, 26, 0.4)" stroke-width="1.5"/><circle cx="0" cy="0" r="7.379" transform="matrix(1 0 0 1 679.959 330.584)" fill="rgba(35, 32, 26, 0.12)"/><path d="M 9.12 0 C 9.3 2.36, 8.07 6.17, 6.19 7.76 C 4.31 9.35, 0.61 9.98, -2.18 9.54 C -4.97 9.09, -9.62 7.3, -10.55 5.08 C -11.49 2.87, -9.25 -1.59, -7.8 -3.75 C -6.34 -5.92, -3.96 -7.49, -1.81 -7.93 C 0.34 -8.37, 3.28 -7.72, 5.1 -6.4 C 6.93 -5.08, 8.94 -2.36, 9.12 0 Z" transform="matrix(1 0 0 1 677.959 323.205)" fill="#4d7f3c" stroke="rgba(35, 32, 26, 0.4)" stroke-width="1.5"/><polygon points="-4,0 0,-8 4,0" transform="matrix(1 0 0 1 752.392 348.957)" fill="rgba(74, 122, 58, 0.55)"/><polygon points="-4,0 0,-8 4,0" transform="matrix(1 0 0 1 730.142 337.444)" fill="rgba(74, 122, 58, 0.55)"/><polygon points="-4,0 0,-8 4,0" transform="matrix(1 0 0 1 279.755 388.336)" fill="rgba(74, 122, 58, 0.55)"/><polygon points="-4,0 0,-8 4,0" transform="matrix(1 0 0 1 292.265 394.961)" fill="rgba(74, 122, 58, 0.55)"/><polygon points="-4,0 0,-8 4,0" transform="matrix(1 0 0 1 361.569 413.714)" fill="rgba(74, 122, 58, 0.55)"/><polygon points="-4,0 0,-8 4,0" transform="matrix(1 0 0 1 346.178 415.427)" fill="rgba(74, 122, 58, 0.55)"/><polygon points="-4,0 0,-8 4,0" transform="matrix(1 0 0 1 428.302 396.224)" fill="rgba(74, 122, 58, 0.55)"/><polygon points="-4,0 0,-8 4,0" transform="matrix(1 0 0 1 421.294 388.63)" fill="rgba(74, 122, 58, 0.55)"/><polygon points="-4,0 0,-8 4,0" transform="matrix(1 0 0 1 468.72 411.711)" fill="rgba(74, 122, 58, 0.55)"/><polygon points="-4,0 0,-8 4,0" transform="matrix(1 0 0 1 477.755 396.13)" fill="rgba(74, 122, 58, 0.55)"/><circle cx="0" cy="0" r="7.066" transform="matrix(1 0 0 1 623.521 415.696)" fill="rgba(35, 32, 26, 0.12)"/><path d="M 12.24 0 C 12.61 2.67, 9.91 7.57, 7.46 9.36 C 5.01 11.14, 0.6 11.42, -2.45 10.73 C -5.5 10.04, -9.44 7.87, -10.83 5.22 C -12.23 2.56, -12.34 -3.08, -10.82 -5.21 C -9.31 -7.35, -4.42 -7.36, -1.74 -7.6 C 0.95 -7.84, 2.96 -7.9, 5.29 -6.64 C 7.62 -5.37, 11.88 -2.67, 12.24 0 Z" transform="matrix(1 0 0 1 621.521 408.63)" fill="#4c7e3c" stroke="rgba(35, 32, 26, 0.4)" stroke-width="1.5"/><polygon points="-4,0 0,-8 4,0" transform="matrix(1 0 0 1 686.617 399.114)" fill="rgba(74, 122, 58, 0.55)"/><polygon points="-4,0 0,-8 4,0" transform="matrix(1 0 0 1 667.048 388.643)" fill="rgba(74, 122, 58, 0.55)"/><circle cx="0" cy="0" r="6.305" transform="matrix(1 0 0 1 853.129 411.618)" fill="rgba(35, 32, 26, 0.12)"/><path d="M 7.11 0 C 7.38 2.15, 7.42 6.16, 5.94 7.45 C 4.46 8.74, 0.7 8.27, -1.77 7.74 C -4.24 7.21, -7.94 6.16, -8.88 4.28 C -9.82 2.39, -8.51 -1.16, -7.41 -3.57 C -6.32 -5.98, -4.29 -9.87, -2.33 -10.19 C -0.36 -10.5, 2.78 -7.16, 4.36 -5.46 C 5.93 -3.76, 6.85 -2.15, 7.11 0 Z" transform="matrix(1 0 0 1 851.129 405.313)" fill="#51853f" stroke="rgba(35, 32, 26, 0.4)" stroke-width="1.5"/><circle cx="0" cy="0" r="9.012" transform="matrix(1 0 0 1 880.11 421.863)" fill="rgba(35, 32, 26, 0.12)"/><path d="M 15.03 0 C 14.97 3.79, 11.94 8.83, 8.9 11.16 C 5.87 13.5, 0.6 14.73, -3.19 13.99 C -6.99 13.24, -12.52 9.91, -13.86 6.68 C -15.21 3.44, -13.21 -2.69, -11.27 -5.43 C -9.32 -8.16, -5.64 -8.7, -2.22 -9.73 C 1.2 -10.76, 6.37 -13.21, 9.24 -11.59 C 12.12 -9.97, 15.09 -3.79, 15.03 0 Z" transform="matrix(1 0 0 1 878.11 412.851)" fill="#538941" stroke="rgba(35, 32, 26, 0.4)" stroke-width="1.5"/><polygon points="-4,0 0,-8 4,0" transform="matrix(1 0 0 1 1053.183 413.982)" fill="rgba(74, 122, 58, 0.55)"/><polygon points="-4,0 0,-8 4,0" transform="matrix(1 0 0 1 1054.456 394.864)" fill="rgba(74, 122, 58, 0.55)"/><polygon points="-4,0 0,-8 4,0" transform="matrix(1 0 0 1 281.516 465.619)" fill="rgba(74, 122, 58, 0.55)"/><polygon points="-4,0 0,-8 4,0" transform="matrix(1 0 0 1 272.471 470.012)" fill="rgba(74, 122, 58, 0.55)"/><polygon points="-4,0 0,-8 4,0" transform="matrix(1 0 0 1 492.818 462.632)" fill="rgba(74, 122, 58, 0.55)"/><polygon points="-4,0 0,-8 4,0" transform="matrix(1 0 0 1 480.121 468.874)" fill="rgba(74, 122, 58, 0.55)"/><circle cx="0" cy="0" r="6.675" transform="matrix(1 0 0 1 555.395 465.212)" fill="rgba(35, 32, 26, 0.12)"/><path d="M 10.73 0 C 10.45 2.35, 7 4.24, 4.81 6.03 C 2.61 7.81, -0.15 11, -2.45 10.71 C -4.74 10.43, -8.04 6.73, -8.96 4.31 C -9.87 1.89, -9.03 -1.41, -7.92 -3.81 C -6.81 -6.21, -4.7 -9.37, -2.3 -10.09 C 0.09 -10.8, 4.29 -9.78, 6.46 -8.1 C 8.63 -6.42, 11 -2.35, 10.73 0 Z" transform="matrix(1 0 0 1 553.395 458.538)" fill="#4d7f3c" stroke="rgba(35, 32, 26, 0.4)" stroke-width="1.5"/><circle cx="0" cy="0" r="7.355" transform="matrix(1 0 0 1 539.544 463.381)" fill="rgba(35, 32, 26, 0.12)"/><path d="M 10.49 0 C 10.88 2.86, 10.19 8.16, 8.02 10.05 C 5.84 11.94, 0.12 12.34, -2.59 11.33 C -5.29 10.31, -7.02 6.63, -8.22 3.96 C -9.41 1.28, -10.84 -2.74, -9.76 -4.7 C -8.69 -6.66, -4.35 -7.4, -1.78 -7.8 C 0.79 -8.2, 3.6 -8.38, 5.65 -7.08 C 7.69 -5.78, 10.09 -2.86, 10.49 0 Z" transform="matrix(1 0 0 1 537.544 456.026)" fill="#416b33" stroke="rgba(35, 32, 26, 0.4)" stroke-width="1.5"/><circle cx="0" cy="0" r="6.96" transform="matrix(1 0 0 1 604.745 479.383)" fill="rgba(35, 32, 26, 0.12)"/><path d="M 9.74 0 C 9.9 2.87, 9.43 7.26, 7.36 9.22 C 5.29 11.18, 0.3 12.44, -2.68 11.75 C -5.66 11.06, -9.17 7.89, -10.52 5.07 C -11.88 2.24, -12.22 -2.84, -10.81 -5.21 C -9.4 -7.57, -4.95 -8.66, -2.08 -9.12 C 0.78 -9.59, 4.41 -9.53, 6.38 -8.01 C 8.35 -6.49, 9.58 -2.87, 9.74 0 Z" transform="matrix(1 0 0 1 602.745 472.422)" fill="#446f35" stroke="rgba(35, 32, 26, 0.4)" stroke-width="1.5"/><circle cx="0" cy="0" r="8.187" transform="matrix(1 0 0 1 669.208 483.453)" fill="rgba(35, 32, 26, 0.12)"/><path d="M 13.22 0 C 12.73 2.94, 8.17 5.36, 5.59 7.01 C 3.01 8.65, 0.57 10.14, -2.26 9.88 C -5.08 9.62, -9.88 8, -11.35 5.46 C -12.81 2.93, -12.53 -2.66, -11.04 -5.32 C -9.54 -7.97, -5.64 -9.56, -2.39 -10.45 C 0.87 -11.34, 5.9 -12.4, 8.5 -10.66 C 11.1 -8.91, 13.7 -2.94, 13.22 0 Z" transform="matrix(1 0 0 1 667.208 475.266)" fill="#416b33" stroke="rgba(35, 32, 26, 0.4)" stroke-width="1.5"/><circle cx="0" cy="0" r="6.835" transform="matrix(1 0 0 1 689.292 483.7)" fill="rgba(35, 32, 26, 0.12)"/><path d="M 11.11 0 C 11 2.68, 8.22 6.28, 6.07 7.61 C 3.91 8.93, 0.53 8.57, -1.81 7.94 C -4.16 7.32, -7.12 5.76, -8.01 3.86 C -8.91 1.96, -8.08 -1.01, -7.16 -3.45 C -6.23 -5.89, -4.78 -9.95, -2.46 -10.78 C -0.14 -11.62, 4.49 -10.27, 6.75 -8.47 C 9.02 -6.67, 11.23 -2.68, 11.11 0 Z" transform="matrix(1 0 0 1 687.292 476.866)" fill="#528740" stroke="rgba(35, 32, 26, 0.4)" stroke-width="1.5"/><circle cx="0" cy="0" r="7.008" transform="matrix(1 0 0 1 725.786 480.357)" fill="rgba(35, 32, 26, 0.12)"/><path d="M 11.39 0 C 11.46 3.12, 9.93 8.02, 7.67 9.62 C 5.41 11.21, 0.87 10.32, -2.18 9.57 C -5.24 8.82, -9.79 7.33, -10.67 5.14 C -11.54 2.95, -8.75 -0.77, -7.42 -3.57 C -6.08 -6.37, -5.11 -10.73, -2.66 -11.65 C -0.21 -12.57, 4.92 -11.05, 7.26 -9.1 C 9.6 -7.16, 11.32 -3.12, 11.39 0 Z" transform="matrix(1 0 0 1 723.786 473.349)" fill="#487638" stroke="rgba(35, 32, 26, 0.4)" stroke-width="1.5"/><circle cx="0" cy="0" r="6.573" transform="matrix(1 0 0 1 747.98 482.509)" fill="rgba(35, 32, 26, 0.12)"/><path d="M 9.74 0 C 9.92 2.21, 7.82 5.75, 5.84 7.32 C 3.85 8.88, 0 10.05, -2.14 9.4 C -4.29 8.74, -5.79 5.71, -7.02 3.38 C -8.25 1.05, -10.38 -2.64, -9.53 -4.59 C -8.67 -6.53, -4.27 -8.06, -1.89 -8.29 C 0.49 -8.52, 2.82 -7.35, 4.76 -5.97 C 6.7 -4.58, 9.56 -2.21, 9.74 0 Z" transform="matrix(1 0 0 1 745.98 475.936)" fill="#528740" stroke="rgba(35, 32, 26, 0.4)" stroke-width="1.5"/><circle cx="0" cy="0" r="8.394" transform="matrix(1 0 0 1 806.729 463.908)" fill="rgba(35, 32, 26, 0.12)"/><path d="M 10.9 0 C 10.7 3.44, 9.82 8.03, 7.64 9.58 C 5.47 11.14, 0.8 10.13, -2.13 9.33 C -5.06 8.53, -8.57 7.17, -9.94 4.79 C -11.31 2.4, -11.61 -2.46, -10.34 -4.98 C -9.08 -7.5, -5.55 -9.33, -2.36 -10.35 C 0.83 -11.36, 6.6 -12.78, 8.81 -11.05 C 11.02 -9.33, 11.09 -3.44, 10.9 0 Z" transform="matrix(1 0 0 1 804.729 455.515)" fill="#426d34" stroke="rgba(35, 32, 26, 0.4)" stroke-width="1.5"/><circle cx="0" cy="0" r="7.147" transform="matrix(1 0 0 1 850.719 470.768)" fill="rgba(35, 32, 26, 0.12)"/><path d="M 12.5 0 C 12.56 2.44, 8.47 5.94, 6.02 7.55 C 3.57 9.15, 0.1 10.29, -2.2 9.66 C -4.51 9.02, -6.38 6.23, -7.8 3.76 C -9.23 1.28, -11.73 -3.15, -10.75 -5.18 C -9.77 -7.2, -4.65 -8.07, -1.92 -8.39 C 0.82 -8.72, 3.26 -8.5, 5.67 -7.11 C 8.07 -5.71, 12.44 -2.44, 12.5 0 Z" transform="matrix(1 0 0 1 848.719 463.621)" fill="#416c33" stroke="rgba(35, 32, 26, 0.4)" stroke-width="1.5"/><circle cx="0" cy="0" r="8.839" transform="matrix(1 0 0 1 870.288 482.366)" fill="rgba(35, 32, 26, 0.12)"/><path d="M 12.69 0 C 12.84 3.4, 11.18 8.55, 8.57 10.74 C 5.95 12.93, 0.02 14.16, -3 13.14 C -6.01 12.11, -8.45 7.54, -9.52 4.59 C -10.6 1.64, -10.65 -2.06, -9.46 -4.55 C -8.26 -7.05, -5.23 -9.55, -2.37 -10.4 C 0.48 -11.25, 5.18 -11.38, 7.69 -9.65 C 10.21 -7.91, 12.55 -3.4, 12.69 0 Z" transform="matrix(1 0 0 1 868.288 473.527)" fill="#467437" stroke="rgba(35, 32, 26, 0.4)" stroke-width="1.5"/><polygon points="-4,0 0,-8 4,0" transform="matrix(1 0 0 1 933.188 455.145)" fill="rgba(74, 122, 58, 0.55)"/><polygon points="-4,0 0,-8 4,0" transform="matrix(1 0 0 1 935.356 466.582)" fill="rgba(74, 122, 58, 0.55)"/><polygon points="-4,0 0,-8 4,0" transform="matrix(1 0 0 1 347.204 521.222)" fill="rgba(74, 122, 58, 0.55)"/><polygon points="-4,0 0,-8 4,0" transform="matrix(1 0 0 1 361.612 531.601)" fill="rgba(74, 122, 58, 0.55)"/><polygon points="-4,0 0,-8 4,0" transform="matrix(1 0 0 1 617.251 532.833)" fill="rgba(74, 122, 58, 0.55)"/><polygon points="-4,0 0,-8 4,0" transform="matrix(1 0 0 1 592.415 526.224)" fill="rgba(74, 122, 58, 0.55)"/><circle cx="0" cy="0" r="7.732" transform="matrix(1 0 0 1 817.424 549.431)" fill="rgba(35, 32, 26, 0.12)"/><path d="M 11.79 0 C 12.2 2.96, 10.62 8.91, 8.31 10.42 C 6 11.94, 1.24 9.89, -2.07 9.08 C -5.38 8.27, -10.07 7.97, -11.56 5.57 C -13.05 3.17, -12.46 -2.21, -11.03 -5.31 C -9.6 -8.41, -5.79 -12.69, -2.97 -13.03 C -0.16 -13.37, 3.41 -9.53, 5.87 -7.36 C 8.33 -5.19, 11.38 -2.96, 11.79 0 Z" transform="matrix(1 0 0 1 815.424 541.699)" fill="#4e813d" stroke="rgba(35, 32, 26, 0.4)" stroke-width="1.5"/><circle cx="0" cy="0" r="8.245" transform="matrix(1 0 0 1 787.643 538.133)" fill="rgba(35, 32, 26, 0.12)"/><path d="M 10.05 0 C 10.02 3.33, 10.01 7.89, 7.88 9.89 C 5.75 11.88, 0.43 12.73, -2.73 11.97 C -5.9 11.22, -9.47 8.35, -11.11 5.35 C -12.74 2.35, -13.97 -3.24, -12.55 -6.05 C -11.14 -8.86, -6.06 -10.83, -2.63 -11.51 C 0.81 -12.19, 5.95 -12.03, 8.07 -10.11 C 10.18 -8.2, 10.08 -3.33, 10.05 0 Z" transform="matrix(1 0 0 1 785.643 529.888)" fill="#528740" stroke="rgba(35, 32, 26, 0.4)" stroke-width="1.5"/><circle cx="0" cy="0" r="8.926" transform="matrix(1 0 0 1 870.503 541.715)" fill="rgba(35, 32, 26, 0.12)"/><path d="M 15.69 0 C 15.41 2.99, 9.38 6.02, 6.33 7.94 C 3.28 9.86, 0.54 11.82, -2.63 11.51 C -5.79 11.2, -11.22 8.92, -12.66 6.09 C -14.1 3.27, -12.94 -2.51, -11.27 -5.43 C -9.59 -8.35, -5.82 -10.67, -2.61 -11.43 C 0.6 -12.19, 4.93 -11.92, 7.98 -10.01 C 11.03 -8.11, 15.96 -2.99, 15.69 0 Z" transform="matrix(1 0 0 1 868.503 532.79)" fill="#477638" stroke="rgba(35, 32, 26, 0.4)" stroke-width="1.5"/><circle cx="0" cy="0" r="7.304" transform="matrix(1 0 0 1 865.513 525.663)" fill="rgba(35, 32, 26, 0.12)"/><path d="M 11.62 0 C 11.88 2.56, 9.25 6.94, 6.92 8.67 C 4.59 10.4, 0.31 11.09, -2.37 10.38 C -5.04 9.67, -8.32 6.71, -9.13 4.4 C -9.95 2.08, -8.34 -0.8, -7.27 -3.5 C -6.2 -6.2, -4.79 -11.29, -2.7 -11.81 C -0.6 -12.34, 2.93 -8.63, 5.31 -6.66 C 7.7 -4.69, 11.35 -2.56, 11.62 0 Z" transform="matrix(1 0 0 1 863.513 518.359)" fill="#477638" stroke="rgba(35, 32, 26, 0.4)" stroke-width="1.5"/><polygon points="-4,0 0,-8 4,0" transform="matrix(1 0 0 1 926.259 536.084)" fill="rgba(74, 122, 58, 0.55)"/><polygon points="-4,0 0,-8 4,0" transform="matrix(1 0 0 1 938.35 527.315)" fill="rgba(74, 122, 58, 0.55)"/><polygon points="-4,0 0,-8 4,0" transform="matrix(1 0 0 1 273.446 587.872)" fill="rgba(74, 122, 58, 0.55)"/><polygon points="-4,0 0,-8 4,0" transform="matrix(1 0 0 1 276.66 589.547)" fill="rgba(74, 122, 58, 0.55)"/><circle cx="0" cy="0" r="7.357" transform="matrix(1 0 0 1 548.183 587.657)" fill="rgba(35, 32, 26, 0.12)"/><path d="M 8.85 0 C 8.72 3.17, 9.1 7.33, 7.23 9.07 C 5.36 10.81, 0.11 11.33, -2.38 10.44 C -4.88 9.55, -6.25 6.37, -7.74 3.73 C -9.23 1.08, -12.25 -3.22, -11.33 -5.45 C -10.41 -7.69, -5.42 -8.93, -2.21 -9.68 C 1 -10.43, 6.11 -11.59, 7.95 -9.98 C 9.8 -8.36, 8.97 -3.17, 8.85 0 Z" transform="matrix(1 0 0 1 546.183 580.3)" fill="#467437" stroke="rgba(35, 32, 26, 0.4)" stroke-width="1.5"/><circle cx="0" cy="0" r="6.576" transform="matrix(1 0 0 1 534.011 588.163)" fill="rgba(35, 32, 26, 0.12)"/><path d="M 10.32 0 C 10.18 2.22, 6.9 4.95, 4.91 6.16 C 2.91 7.36, 0.34 7.71, -1.65 7.25 C -3.65 6.79, -5.77 5.35, -7.04 3.39 C -8.32 1.44, -10.12 -2.27, -9.32 -4.49 C -8.53 -6.71, -4.78 -9.48, -2.27 -9.93 C 0.24 -10.38, 3.64 -8.84, 5.73 -7.19 C 7.83 -5.53, 10.45 -2.22, 10.32 0 Z" transform="matrix(1 0 0 1 532.011 581.588)" fill="#406932" stroke="rgba(35, 32, 26, 0.4)" stroke-width="1.5"/><circle cx="0" cy="0" r="8.705" transform="matrix(1 0 0 1 678.567 590.005)" fill="rgba(35, 32, 26, 0.12)"/><path d="M 9.88 0 C 10.21 3.2, 10.8 8.59, 8.64 10.84 C 6.48 13.09, 0.18 14.43, -3.08 13.5 C -6.35 12.58, -9.23 8.6, -10.96 5.28 C -12.68 1.95, -14.9 -4.01, -13.43 -6.47 C -11.97 -8.93, -5.52 -9.18, -2.17 -9.5 C 1.18 -9.82, 4.66 -9.95, 6.67 -8.37 C 8.68 -6.78, 9.55 -3.2, 9.88 0 Z" transform="matrix(1 0 0 1 676.567 581.3)" fill="#477538" stroke="rgba(35, 32, 26, 0.4)" stroke-width="1.5"/><circle cx="0" cy="0" r="15" transform="matrix(1 0 0 1 480 95)" fill="rgba(35, 32, 26, 0.18)" stroke="none" stroke-width="0"/><rect x="-13" y="-9" width="26" height="18" rx="3" transform="matrix(1 0 0 1 480 86)" fill="#e4d8bd" stroke="rgba(35, 32, 26, 0.5)" stroke-width="1.5"/><polygon points="-17,4 0,-14 17,4" transform="matrix(1 0 0 1 480 74)" fill="#b23a24" stroke="rgba(35, 32, 26, 0.5)" stroke-width="1.5"/><circle cx="0" cy="0" r="3.2" transform="matrix(1 0 0 1 480 87)" fill="#e3c054" stroke="none" stroke-width="0"/><circle cx="0" cy="0" r="15" transform="matrix(1 0 0 1 544 95)" fill="rgba(35, 32, 26, 0.18)" stroke="none" stroke-width="0"/><rect x="-13" y="-9" width="26" height="18" rx="3" transform="matrix(1 0 0 1 544 86)" fill="#e4d8bd" stroke="rgba(35, 32, 26, 0.5)" stroke-width="1.5"/><polygon points="-17,4 0,-14 17,4" transform="matrix(1 0 0 1 544 74)" fill="#b23a24" stroke="rgba(35, 32, 26, 0.5)" stroke-width="1.5"/><circle cx="0" cy="0" r="3.2" transform="matrix(1 0 0 1 544 87)" fill="#e3c054" stroke="none" stroke-width="0"/><circle cx="0" cy="0" r="15" transform="matrix(1 0 0 1 288 159)" fill="rgba(35, 32, 26, 0.18)" stroke="none" stroke-width="0"/><rect x="-17" y="-6" width="34" height="12" rx="2" transform="matrix(1 0 0 1 288 144)" fill="#6c6252" stroke="rgba(35, 32, 26, 0.5)" stroke-width="1.5"/><rect x="-1.5" y="-5" width="3" height="10" rx="1" transform="matrix(1 0 0 1 276 154)" fill="#494133" stroke="none" stroke-width="0"/><rect x="-1.5" y="-5" width="3" height="10" rx="1" transform="matrix(1 0 0 1 288 154)" fill="#494133" stroke="none" stroke-width="0"/><rect x="-1.5" y="-5" width="3" height="10" rx="1" transform="matrix(1 0 0 1 300 154)" fill="#494133" stroke="none" stroke-width="0"/><circle cx="0" cy="0" r="15" transform="matrix(1 0 0 1 544 159)" fill="rgba(35, 32, 26, 0.18)" stroke="none" stroke-width="0"/><rect x="-13" y="-9" width="26" height="18" rx="3" transform="matrix(1 0 0 1 544 150)" fill="#e4d8bd" stroke="rgba(35, 32, 26, 0.5)" stroke-width="1.5"/><polygon points="-17,4 0,-14 17,4" transform="matrix(1 0 0 1 544 138)" fill="#b23a24" stroke="rgba(35, 32, 26, 0.5)" stroke-width="1.5"/><circle cx="0" cy="0" r="3.2" transform="matrix(1 0 0 1 544 151)" fill="#e3c054" stroke="none" stroke-width="0"/><circle cx="0" cy="0" r="15" transform="matrix(1 0 0 1 608 159)" fill="rgba(35, 32, 26, 0.18)" stroke="none" stroke-width="0"/><rect x="-13" y="-9" width="26" height="18" rx="3" transform="matrix(1 0 0 1 608 150)" fill="#e4d8bd" stroke="rgba(35, 32, 26, 0.5)" stroke-width="1.5"/><polygon points="-17,4 0,-14 17,4" transform="matrix(1 0 0 1 608 138)" fill="#b23a24" stroke="rgba(35, 32, 26, 0.5)" stroke-width="1.5"/><circle cx="0" cy="0" r="3.2" transform="matrix(1 0 0 1 608 151)" fill="#e3c054" stroke="none" stroke-width="0"/><circle cx="0" cy="0" r="15" transform="matrix(1 0 0 1 992 159)" fill="rgba(35, 32, 26, 0.18)" stroke="none" stroke-width="0"/><rect x="-17" y="-6" width="34" height="12" rx="2" transform="matrix(1 0 0 1 992 144)" fill="#6c6252" stroke="rgba(35, 32, 26, 0.5)" stroke-width="1.5"/><rect x="-1.5" y="-5" width="3" height="10" rx="1" transform="matrix(1 0 0 1 980 154)" fill="#494133" stroke="none" stroke-width="0"/><rect x="-1.5" y="-5" width="3" height="10" rx="1" transform="matrix(1 0 0 1 992 154)" fill="#494133" stroke="none" stroke-width="0"/><rect x="-1.5" y="-5" width="3" height="10" rx="1" transform="matrix(1 0 0 1 1004 154)" fill="#494133" stroke="none" stroke-width="0"/><circle cx="0" cy="0" r="15" transform="matrix(1 0 0 1 544 223)" fill="rgba(35, 32, 26, 0.18)" stroke="none" stroke-width="0"/><rect x="-2.5" y="-12" width="5" height="24" rx="1" transform="matrix(1 0 0 1 533 210)" fill="#63548c" stroke="rgba(35, 32, 26, 0.5)" stroke-width="1.5"/><rect x="-2.5" y="-12" width="5" height="24" rx="1" transform="matrix(1 0 0 1 555 210)" fill="#63548c" stroke="rgba(35, 32, 26, 0.5)" stroke-width="1.5"/><rect x="-17" y="-3" width="34" height="6" rx="2" transform="matrix(1 0 0 1 544 197)" fill="#63548c" stroke="rgba(35, 32, 26, 0.5)" stroke-width="1.5"/><rect x="-13" y="-2" width="26" height="4" rx="1" transform="matrix(1 0 0 1 544 204)" fill="#63548c" stroke="rgba(35, 32, 26, 0.5)" stroke-width="1.5"/><circle cx="0" cy="0" r="15" transform="matrix(1 0 0 1 608 223)" fill="rgba(35, 32, 26, 0.18)" stroke="none" stroke-width="0"/><rect x="-13" y="-9" width="26" height="18" rx="3" transform="matrix(1 0 0 1 608 214)" fill="#e4d8bd" stroke="rgba(35, 32, 26, 0.5)" stroke-width="1.5"/><polygon points="-17,4 0,-14 17,4" transform="matrix(1 0 0 1 608 202)" fill="#b23a24" stroke="rgba(35, 32, 26, 0.5)" stroke-width="1.5"/><circle cx="0" cy="0" r="3.2" transform="matrix(1 0 0 1 608 215)" fill="#e3c054" stroke="none" stroke-width="0"/><circle cx="0" cy="0" r="15" transform="matrix(1 0 0 1 672 223)" fill="rgba(35, 32, 26, 0.18)" stroke="none" stroke-width="0"/><rect x="-15" y="-12" width="30" height="24" rx="4" transform="matrix(1 0 0 1 672 210)" fill="#cdbb54" stroke="rgba(35, 32, 26, 0.5)" stroke-width="1.5"/><rect x="-1.25" y="-10" width="2.5" height="20" rx="1" transform="matrix(1 0 0 1 663 210)" fill="#94741d" stroke="none" stroke-width="0" opacity="0.8"/><rect x="-1.25" y="-10" width="2.5" height="20" rx="1" transform="matrix(1 0 0 1 672 210)" fill="#94741d" stroke="none" stroke-width="0" opacity="0.8"/><rect x="-1.25" y="-10" width="2.5" height="20" rx="1" transform="matrix(1 0 0 1 681 210)" fill="#94741d" stroke="none" stroke-width="0" opacity="0.8"/><circle cx="0" cy="0" r="15" transform="matrix(1 0 0 1 864 223)" fill="rgba(35, 32, 26, 0.18)" stroke="none" stroke-width="0"/><rect x="-15" y="-12" width="30" height="24" rx="4" transform="matrix(1 0 0 1 864 210)" fill="#cdbb54" stroke="rgba(35, 32, 26, 0.5)" stroke-width="1.5"/><rect x="-1.25" y="-10" width="2.5" height="20" rx="1" transform="matrix(1 0 0 1 855 210)" fill="#94741d" stroke="none" stroke-width="0" opacity="0.8"/><rect x="-1.25" y="-10" width="2.5" height="20" rx="1" transform="matrix(1 0 0 1 864 210)" fill="#94741d" stroke="none" stroke-width="0" opacity="0.8"/><rect x="-1.25" y="-10" width="2.5" height="20" rx="1" transform="matrix(1 0 0 1 873 210)" fill="#94741d" stroke="none" stroke-width="0" opacity="0.8"/><circle cx="0" cy="0" r="15" transform="matrix(1 0 0 1 416 287)" fill="rgba(35, 32, 26, 0.18)" stroke="none" stroke-width="0"/><rect x="-14" y="-9" width="28" height="18" rx="2" transform="matrix(1 0 0 1 416 278)" fill="#b9a882" stroke="rgba(35, 32, 26, 0.5)" stroke-width="1.5"/><rect x="-15" y="-4" width="30" height="8" rx="2" transform="matrix(1 0 0 1 416 266)" fill="#bf6a1c" stroke="rgba(35, 32, 26, 0.5)" stroke-width="1.5"/><circle cx="0" cy="0" r="5" transform="matrix(1 0 0 1 426 282)" fill="#6c6252" stroke="rgba(35, 32, 26, 0.5)" stroke-width="1.5"/><circle cx="0" cy="0" r="15" transform="matrix(1 0 0 1 672 415)" fill="rgba(35, 32, 26, 0.18)" stroke="none" stroke-width="0"/><rect x="-14" y="-9" width="28" height="18" rx="2" transform="matrix(1 0 0 1 672 406)" fill="#b9a882" stroke="rgba(35, 32, 26, 0.5)" stroke-width="1.5"/><rect x="-15" y="-4" width="30" height="8" rx="2" transform="matrix(1 0 0 1 672 394)" fill="#bf6a1c" stroke="rgba(35, 32, 26, 0.5)" stroke-width="1.5"/><circle cx="0" cy="0" r="5" transform="matrix(1 0 0 1 682 410)" fill="#6c6252" stroke="rgba(35, 32, 26, 0.5)" stroke-width="1.5"/><rect x="-32" y="-32" width="64" height="64" rx="10" transform="matrix(1 0 0 1 672 400)" fill="none" stroke="#b23a24" stroke-width="3"/><text x="0" y="0" font-size="22" text-anchor="middle" dominant-baseline="middle" fill="#b23a24" transform="matrix(1 0 0 1 672 356)">×</text><text x="0" y="0" font-size="20" text-anchor="middle" dominant-baseline="middle" fill="#494133" transform="matrix(1 0 0 1 640 26)">renown 152/150 · placing Farm (+2 per adjacent open grass) · 6 left</text><text x="0" y="0" font-size="16" text-anchor="middle" dominant-baseline="middle" fill="#6c6252" transform="matrix(1 0 0 1 640 700)">arrows aim · Space builds · every roof scores by its neighbours</text></svg>